<?xml version="1.0" encoding="utf-8"?>
<!-- Generator: Adobe Illustrator 18.1.0, SVG Export Plug-In . SVG Version: 6.00 Build 0)  -->
<svg version="1.1" id="Layer_1" xmlns="http://www.w3.org/2000/svg" xmlns:xlink="http://www.w3.org/1999/xlink" x="0px" y="0px"
	 viewBox="-230 322 150 150" enable-background="new -230 322 150 150" xml:space="preserve">
<g>
	<g>
		<path fill="#7A7A7A" d="M-105.7,354.8h9.4V336h-18.8v9.4h9.4C-105.7,345.4-105.7,354.8-105.7,354.8z M-129.2,336H-148v9.4h18.8
			V336z M-105.7,387.6h9.4v-18.8h-9.4C-105.7,368.8-105.7,387.6-105.7,387.6z M-204.3,368.8h-9.4v18.8h9.4V368.8z M-204.3,345.4h9.4
			V336h-18.8v18.8h9.4V345.4z M-162,336h-18.8v9.4h18.8V336z M-213.7,458h18.8h9.4h89.2v-9.4v-17.9h-107.9h-9.4"/>
	</g>
</g>
<rect x="-105.7" y="401.3" fill="#7A7A7A" width="9.4" height="23.5"/>
<rect x="-213.7" y="401.3" fill="#7A7A7A" width="9.4" height="23.5"/>
</svg>
