<?xml version="1.0" encoding="utf-8"?>
<!-- Generator: Adobe Illustrator 17.0.0, SVG Export Plug-In . SVG Version: 6.00 Build 0)  -->
<!DOCTYPE svg PUBLIC "-//W3C//DTD SVG 1.1//EN" "http://www.w3.org/Graphics/SVG/1.1/DTD/svg11.dtd">
<svg version="1.1" id="Layer_1" xmlns="http://www.w3.org/2000/svg" xmlns:xlink="http://www.w3.org/1999/xlink" x="0px" y="0px"
	 width="150px" height="150px" viewBox="0 0 150 150" enable-background="new 0 0 150 150" xml:space="preserve">
<path fill-rule="evenodd" clip-rule="evenodd" d="M77.09,117.996l-15.156,0.782l-3.449-14.018c0,0-23.216-27.127-27.123-40.457
	c-3.907-13.332-0.46-1.378-0.46-1.378s-9.424-9.426-7.585-12.876c0,0,3.218-4.595,10.343-0.458c0,0,14.942,29.652,25.514,22.528
	c0,0,5.013,0.92,3.863-22.298c0,0-1.103-31.488,0.735-33.326c0,0,6.436-5.29,9.195-0.464l3.218,34.252c0,0,3.447-4.598,7.814-3.219
	c4.368,1.377,4.368,6.665,4.368,6.665s5.056-1.38,8.274-0.229c3.218,1.151,2.759,3.681,2.759,6.667c0,0,4.596-0.459,5.745,1.38
	c0,0,3.388-0.457,4.766,5.054c0,0,0.019,8.89-2.834,18.411c-0.995-0.492-2.1-0.793-3.283-0.793h-1.932
	c-4.117,0-7.468,3.347-7.468,7.464v0.032c-0.018,0.007-0.037,0.014-0.055,0.021l-0.396-0.394c-1.411-1.411-3.285-2.189-5.281-2.189
	c-1.995,0-3.869,0.778-5.281,2.189l-1.365,1.365c-1.411,1.411-2.187,3.287-2.187,5.279c0,1.995,0.776,3.871,2.187,5.282l0.334,0.334
	c-4.003,0.134-7.218,3.431-7.218,7.464v1.932C75.135,114.925,75.886,116.669,77.09,117.996z M126.92,112.997v-1.933
	c0-2.134-1.73-3.864-3.864-3.864h-2.52c-0.4-1.487-0.971-2.902-1.711-4.214l2.267-2.267c1.51-1.509,1.51-3.956,0-5.465l-1.365-1.365
	c-1.509-1.51-3.956-1.51-5.465,0l-2.222,2.222c-1.36-0.791-2.828-1.408-4.38-1.831v-2.596c0-2.134-1.731-3.864-3.865-3.864h-1.932
	c-2.134,0-3.864,1.73-3.864,3.864v2.596c-1.552,0.423-3.021,1.041-4.38,1.831l-2.222-2.222c-1.51-1.51-3.956-1.51-5.465,0
	l-1.367,1.365c-1.509,1.509-1.509,3.956,0,5.465l2.267,2.267c-0.738,1.313-1.31,2.727-1.709,4.214h-2.52
	c-2.134,0-3.864,1.73-3.864,3.864v1.933c0,2.134,1.73,3.864,3.864,3.864h2.551c0.415,1.501,1.01,2.923,1.77,4.244l-2.358,2.358
	c-1.509,1.509-1.509,3.956,0,5.465l1.367,1.367c1.509,1.509,3.955,1.509,5.465,0l2.372-2.374c1.317,0.749,2.735,1.333,4.23,1.74
	v2.475c0,2.134,1.73,3.864,3.864,3.864h1.932c2.134,0,3.865-1.73,3.865-3.864v-2.475c1.493-0.408,2.912-0.991,4.228-1.74
	l2.374,2.374c1.509,1.509,3.956,1.509,5.465,0l1.365-1.367c1.51-1.509,1.51-3.956,0-5.465l-2.358-2.358
	c0.76-1.32,1.356-2.743,1.771-4.244h2.551C125.19,116.861,126.92,115.131,126.92,112.997z M113.455,112.09
	c0,5.87-4.758,10.626-10.626,10.626c-5.87,0-10.626-4.756-10.626-10.626c0-5.868,4.756-10.626,10.626-10.626
	C108.698,101.464,113.455,106.222,113.455,112.09z M107.66,111.97c0-2.667-2.164-4.83-4.83-4.83c-2.668,0-4.83,2.164-4.83,4.83
	c0,2.667,2.162,4.83,4.83,4.83C105.496,116.8,107.66,114.637,107.66,111.97z"/>
</svg>
