<?xml version="1.0" encoding="utf-8"?>
<!-- Generator: Adobe Illustrator 18.1.0, SVG Export Plug-In . SVG Version: 6.00 Build 0)  -->
<svg version="1.1" id="Layer_1" xmlns="http://www.w3.org/2000/svg" xmlns:xlink="http://www.w3.org/1999/xlink" x="0px" y="0px"
	 viewBox="-367 335 150 150" enable-background="new -367 335 150 150" xml:space="preserve">
<path d="M-354.6,410.6c0,34.8,28.2,63,63,63s63-28.2,63-63s-28.2-63-63-63S-354.6,375.9-354.6,410.6z M-288.3,410.6l-24.8-24.8
	c-3.4-3.4-3.4-8.8,0-12.1c3.4-3.4,8.8-3.4,12.1,0l30.9,30.9c3.4,3.4,3.4,8.8,0,12.1l-30.9,30.9c-1.7,1.7-3.9,2.5-6.1,2.5
	c-2.2,0-4.4-0.8-6.1-2.5c-3.4-3.4-3.4-8.8,0-12.1L-288.3,410.6z"/>
</svg>
