<?xml version="1.0" encoding="utf-8"?>
<!-- Generator: Adobe Illustrator 18.1.0, SVG Export Plug-In . SVG Version: 6.00 Build 0)  -->
<svg version="1.1" id="Layer_1" xmlns="http://www.w3.org/2000/svg" xmlns:xlink="http://www.w3.org/1999/xlink" x="0px" y="0px"
	 viewBox="0 0 150 150" enable-background="new 0 0 150 150" xml:space="preserve">
<path d="M9.9,75c0,35.9,29.1,65.1,65.1,65.1s65.1-29.1,65.1-65.1S110.9,9.9,75,9.9S9.9,39.1,9.9,75z M100.7,52.8
	c3.5-3.5,9.1-3.5,12.6,0c1.7,1.7,2.6,4,2.6,6.3c0,2.3-0.9,4.5-2.6,6.3L81.3,97.3c-3.5,3.5-9.1,3.5-12.6,0L36.8,65.3
	c-3.5-3.5-3.5-9.1,0-12.6c3.5-3.5,9.1-3.5,12.6,0L75,78.4L100.7,52.8z"/>
</svg>
