<?xml version="1.0" encoding="utf-8"?>
<!-- Generator: Adobe Illustrator 18.1.0, SVG Export Plug-In . SVG Version: 6.00 Build 0)  -->
<svg version="1.1" id="Layer_1" xmlns="http://www.w3.org/2000/svg" xmlns:xlink="http://www.w3.org/1999/xlink" x="0px" y="0px"
	 viewBox="-230 322 150 150" enable-background="new -230 322 150 150" xml:space="preserve">
<g>
	<g>
		<path fill="#7A7A7A" d="M-204.3,439.2h-9.4V458h18.8v-9.4h-9.4C-204.3,448.6-204.3,439.2-204.3,439.2z M-180.8,458h18.8v-9.4
			h-18.8V458z M-204.3,406.4h-9.4v18.8h9.4C-204.3,425.2-204.3,406.4-204.3,406.4z M-105.7,425.2h9.4v-18.8h-9.4V425.2z
			 M-105.7,448.6h-9.4v9.4h18.8v-18.8h-9.4V448.6z M-148,458h18.8v-9.4H-148V458z M-96.3,336h-18.8h-9.4h-89.2v9.4v17.9h107.9h9.4"
			/>
	</g>
</g>
<rect x="-213.7" y="369.3" fill="#7A7A7A" width="9.4" height="23.5"/>
<rect x="-105.7" y="369.3" fill="#7A7A7A" width="9.4" height="23.5"/>
</svg>
