<?xml version="1.0" encoding="utf-8"?>
<!-- Generator: Adobe Illustrator 17.0.0, SVG Export Plug-In . SVG Version: 6.00 Build 0)  -->
<!DOCTYPE svg PUBLIC "-//W3C//DTD SVG 1.1//EN" "http://www.w3.org/Graphics/SVG/1.1/DTD/svg11.dtd">
<svg version="1.1" id="Layer_1" xmlns="http://www.w3.org/2000/svg" xmlns:xlink="http://www.w3.org/1999/xlink" x="0px" y="0px"
	 width="150px" height="150px" viewBox="0 0 150 150" enable-background="new 0 0 150 150" xml:space="preserve">
<path fill-rule="evenodd" clip-rule="evenodd" d="M89.001,100.865h-13.6l-31.13,26.442l0.012-26.442H31.898
	C20.848,100.865,14,92.918,14,83.014V40.542c0-10.742,7.409-17.85,17.898-17.85h67.825c10.21,0,18.903,7.39,18.903,17.85v36.921
	l-6.092,1.582l-0.8-1.653l-2.797,0.614c-0.406,0.089-0.807,0.177-1.215,0.284c-7.306,1.937-13.314,6.953-16.482,13.764
	C89.941,94.846,89.211,97.836,89.001,100.865z M119.881,123.374c-0.254,0.068-0.51,0.128-0.767,0.187l-2.709-5.545
	c0.649-0.088,1.291-0.216,1.922-0.382c4.369-1.164,8.183-4.148,10.222-8.529c1.604-3.447,1.827-7.14,0.912-10.539
	c-1.024-3.769-3.444-7.12-6.979-9.257l-2.416,5.167l-5.867-12.111l13.121-3.408l-2.309,4.938c5.202,2.925,8.79,7.738,10.247,13.133
	c1.268,4.677,0.95,9.826-1.258,14.561l0,0C131.191,117.631,125.894,121.785,119.881,123.374z M108.658,110.519l5.909,12.088
	l-13.107,3.454l2.182-4.713c-5.26-2.914-8.89-7.751-10.359-13.184l-0.005-0.015c-1.268-4.675-0.95-9.826,1.256-14.56
	c2.807-6.039,8.108-10.193,14.119-11.786c0.35-0.092,0.704-0.172,1.06-0.249l2.7,5.575c-0.746,0.088-1.483,0.225-2.206,0.415
	c-4.369,1.164-8.183,4.147-10.222,8.53c-1.601,3.443-1.827,7.14-0.911,10.536c1.033,3.805,3.49,7.185,7.078,9.317L108.658,110.519z"
	/>
</svg>
