<?xml version="1.0" encoding="utf-8"?>
<!-- Generator: Adobe Illustrator 17.0.0, SVG Export Plug-In . SVG Version: 6.00 Build 0)  -->
<!DOCTYPE svg PUBLIC "-//W3C//DTD SVG 1.1//EN" "http://www.w3.org/Graphics/SVG/1.1/DTD/svg11.dtd">
<svg version="1.1" id="Layer_1" xmlns="http://www.w3.org/2000/svg" xmlns:xlink="http://www.w3.org/1999/xlink" x="0px" y="0px"
	 width="150px" height="150px" viewBox="0 0 150 150" enable-background="new 0 0 150 150" xml:space="preserve">
<path fill-rule="evenodd" clip-rule="evenodd" fill="#7A7A7A" d="M66.025,61.976l3.564,3.563L37.78,97.344
	c0,0-8.083,8.759,0.358,18.014c0,0,8.203,8.108,17.698,0.765l66.518-66.518c0,0,10.691-11.172-0.071-24.561
	c0,0-10.738-11.838-24.489-1.962L28.565,92.312c0,0-9.614,9.901-4.281,24.032c0,0,4.998,12.548,18.046,14.284
	c0,0,9.997,2.053,19.31-5.997l31.858-31.86l3.578,3.579L64.93,128.499c0,0-12.76,12.551-30.227,5.183
	c0,0-18.521-7.684-17.021-28.389c0,0,0.5-8.971,7.235-16.495l68.938-68.939c0,0,16.411-14.003,31.701,1.285
	c0,0,14.558,14.248,1.231,31.043l-67.734,67.736c0,0-11.017,9.934-23.764-0.423c0,0-10.938-9.244-3.542-22.339
	c0,0,0.655-1.425,2.619-3.62L66.025,61.976z"/>
</svg>
