<?xml version="1.0" encoding="utf-8"?>
<!-- Generator: Adobe Illustrator 18.1.0, SVG Export Plug-In . SVG Version: 6.00 Build 0)  -->
<svg version="1.1" id="Layer_1" xmlns="http://www.w3.org/2000/svg" xmlns:xlink="http://www.w3.org/1999/xlink" x="0px" y="0px"
	 viewBox="-368 334 150 150" enable-background="new -368 334 150 150" xml:space="preserve">
<path d="M-293,475c36,0,65.2-29.2,65.2-65.2s-29.2-65.2-65.2-65.2s-65.2,29.2-65.2,65.2S-329,475-293,475z M-293,406.4l-25.7,25.7
	c-3.5,3.5-9.1,3.5-12.6,0c-3.5-3.5-3.5-9.1,0-12.6l32-32c3.5-3.5,9.1-3.5,12.6,0l32,32c1.7,1.7,2.6,4,2.6,6.3s-0.9,4.6-2.6,6.3
	c-3.5,3.5-9.1,3.5-12.6,0L-293,406.4z"/>
</svg>
