<?xml version="1.0" encoding="utf-8"?>
<!-- Generator: Adobe Illustrator 17.0.0, SVG Export Plug-In . SVG Version: 6.00 Build 0)  -->
<!DOCTYPE svg PUBLIC "-//W3C//DTD SVG 1.1//EN" "http://www.w3.org/Graphics/SVG/1.1/DTD/svg11.dtd">
<svg version="1.1" id="Layer_1" xmlns="http://www.w3.org/2000/svg" xmlns:xlink="http://www.w3.org/1999/xlink" x="0px" y="0px"
	 width="150px" height="150px" viewBox="0 0 150 150" enable-background="new 0 0 150 150" xml:space="preserve">
<g>
	<g>
		<path fill="#7A7A7A" d="M47.487,91.047h29.415l16.94-32.348H64.164L47.487,91.047z M26.226,58.699v32.348h16.927l17.072-32.348
			H26.226z M136,66.987c0,0-0.135-7.899-8.54-7.899v-4.335c0-4.638-3.763-8.406-8.405-8.406h-96.65
			c-4.642,0-8.405,3.767-8.405,8.406V95.25c0,4.644,3.763,8.403,8.405,8.403h96.65c4.642,0,8.405-3.76,8.405-8.403v-4.333
			c8.799,0,8.536-7.964,8.536-7.964L136,66.987z M119.691,91.047c0,2.32-1.881,4.202-4.202,4.202H26.352
			c-2.321,0-4.202-1.882-4.202-4.202v-32.09c0-2.322,1.882-4.205,4.202-4.205h89.136c2.321,0,4.202,1.883,4.202,4.205V91.047z
			 M131.933,83.076h-4.067V66.81h4.067V83.076z"/>
	</g>
</g>
</svg>
