<?xml version="1.0" encoding="utf-8"?>
<!-- Generator: Adobe Illustrator 17.0.0, SVG Export Plug-In . SVG Version: 6.00 Build 0)  -->
<!DOCTYPE svg PUBLIC "-//W3C//DTD SVG 1.1//EN" "http://www.w3.org/Graphics/SVG/1.1/DTD/svg11.dtd">
<svg version="1.1" id="Layer_1" xmlns="http://www.w3.org/2000/svg" xmlns:xlink="http://www.w3.org/1999/xlink" x="0px" y="0px"
	 width="150px" height="150px" viewBox="0 0 150 150" enable-background="new 0 0 150 150" xml:space="preserve">
<path d="M29.407,98.574h30.814v3.083H29.407V98.574z M91.036,92.412H29.407v3.08h61.629V92.412z M29.407,43.107h61.629v-3.081
	H29.407V43.107z M29.407,49.269h61.629v-3.08H29.407V49.269z M79.593,110.899H23.244c-1.703,0-3.081-1.379-3.081-3.081V33.863
	c0-1.701,1.379-3.081,3.081-3.081h73.955c1.701,0,3.081,1.38,3.081,3.081v29.346c1.209-0.64,2.378-0.799,3.108-0.799
	c1.103,0,2.126,0.274,3.055,0.621V30.782c0-3.404-2.759-6.162-6.163-6.162H20.163c-3.404,0-6.163,2.758-6.163,6.162v80.118
	c0,3.404,2.759,6.163,6.163,6.163h58.945C78.923,114.763,79.119,112.716,79.593,110.899z M29.407,83.166h61.629v-3.08H29.407V83.166
	z M29.407,89.33h61.629v-3.083H29.407V89.33z M29.407,77.003h61.629v-3.081H29.407V77.003z M29.407,70.842h61.629V67.76H29.407
	V70.842z M29.407,55.435h61.629v-3.083H29.407V55.435z M29.407,61.596h30.814v-3.08H29.407V61.596z M100.737,96.813
	c1.625-0.691-0.465-6.32-0.465-6.32c-3.83-7.125-2.553-11.605-2.553-11.605c0.928-1.264,1.392-8.617,1.392-8.617
	c1.857-8.732,8.937-2.871,8.937-2.871c13.811,3.906,10.677,12.408,10.677,12.408c-0.581,1.379,0,4.365,0,4.365
	c2.669,3.103-1.278,6.32-1.278,6.32c-0.116,2.182-1.276,5.055-1.276,5.055c0.813,5.057,16.249,9.881,16.249,9.881
	c5.106,1.608,3.249,13.298,3.249,13.298s-13.585,6.654-27.033,6.654c-13.184,0-26.238-6.654-26.238-6.654
	c-2.436-13.908,10.561-16.744,10.561-16.744C96.326,101.867,100.737,96.813,100.737,96.813z"/>
</svg>
