<?xml version="1.0" encoding="utf-8"?>
<!-- Generator: Adobe Illustrator 18.1.0, SVG Export Plug-In . SVG Version: 6.00 Build 0)  -->
<svg version="1.1" id="Layer_1" xmlns="http://www.w3.org/2000/svg" xmlns:xlink="http://www.w3.org/1999/xlink" x="0px" y="0px"
	 viewBox="-366 336 150 150" enable-background="new -366 336 150 150" xml:space="preserve">
<path d="M-234,347.9c-0.8-0.6-1.8-0.8-2.8-0.6l-54.3,14l-54.3-14c-1-0.2-2,0-2.8,0.6c-0.8,0.6-1.3,1.6-1.3,2.6V458
	c0,1.5,1,2.8,2.5,3.2l55.1,14.2c0.3,0.1,0.5,0.1,0.8,0.1s0.5,0,0.8-0.1l55.1-14.2c1.4-0.4,2.5-1.7,2.5-3.2V350.5
	C-232.7,349.5-233.1,348.6-234,347.9z M-342.8,354.7l48.5,12.5v100.7l-48.5-12.5V354.7z M-239.2,455.4l-48.5,12.5V367.2l48.5-12.5
	V455.4z M-304.7,394.9l-24.8-4.4l1.1-6.4l24.8,4.4L-304.7,394.9z M-304.7,415.7l-24.8-4.4l1.1-6.4l24.8,4.4L-304.7,415.7z
	 M-304.7,436.5l-24.8-4.4l1.1-6.4l24.8,4.4L-304.7,436.5z M-275.8,394.9l-1.1-6.4l24.8-4.4l1.1,6.4L-275.8,394.9z M-275.8,415.7
	l-1.1-6.4l24.8-4.4l1.1,6.4L-275.8,415.7z M-275.8,436.5l-1.1-6.4l24.8-4.4l1.1,6.4L-275.8,436.5z"/>
</svg>
