<?xml version="1.0" encoding="utf-8"?>
<!-- Generator: Adobe Illustrator 18.1.0, SVG Export Plug-In . SVG Version: 6.00 Build 0)  -->
<svg version="1.1" id="Layer_1" xmlns="http://www.w3.org/2000/svg" xmlns:xlink="http://www.w3.org/1999/xlink" x="0px" y="0px"
	 viewBox="-365 335 150 150" enable-background="new -365 335 150 150" xml:space="preserve">
<path d="M-289.1,344.9c-35.9,0-65,29.1-65,65s29.1,65,65,65s65-29.1,65-65S-253.2,344.9-289.1,344.9z M-266.9,435.5
	c3.5,3.5,3.5,9.1,0,12.5c-1.7,1.7-4,2.6-6.3,2.6c-2.3,0-4.5-0.9-6.3-2.6l-31.9-31.9c-3.5-3.5-3.5-9.1,0-12.5l31.9-31.9
	c3.5-3.5,9.1-3.5,12.5,0c3.5,3.5,3.5,9.1,0,12.5l-25.6,25.6L-266.9,435.5z"/>
</svg>
