<?xml version="1.0" encoding="utf-8"?>
<!-- Generator: Adobe Illustrator 17.0.0, SVG Export Plug-In . SVG Version: 6.00 Build 0)  -->
<!DOCTYPE svg PUBLIC "-//W3C//DTD SVG 1.1//EN" "http://www.w3.org/Graphics/SVG/1.1/DTD/svg11.dtd">
<svg version="1.1" id="Layer_1" xmlns="http://www.w3.org/2000/svg" xmlns:xlink="http://www.w3.org/1999/xlink" x="0px" y="0px"
	 width="150px" height="150px" viewBox="0 0 150 150" enable-background="new 0 0 150 150" xml:space="preserve">
<g>
	<g>
		<path fill="#7A7A7A" d="M131.643,14H18.357C15.951,14,14,15.951,14,18.357v113.285V136h4.357h113.286H136v-4.357V18.357
			C136,15.951,134.049,14,131.643,14z M57.571,22.714c2.406,0,4.357,1.95,4.357,4.357c0,2.407-1.951,4.357-4.357,4.357
			c-2.406,0-4.357-1.95-4.357-4.357C53.214,24.665,55.165,22.714,57.571,22.714z M44.5,22.714c2.406,0,4.357,1.95,4.357,4.357
			c0,2.407-1.951,4.357-4.357,4.357s-4.357-1.95-4.357-4.357C40.143,24.665,42.094,22.714,44.5,22.714z M31.429,22.714
			c2.406,0,4.357,1.95,4.357,4.357c0,2.407-1.951,4.357-4.357,4.357c-2.406,0-4.357-1.95-4.357-4.357
			C27.071,24.665,29.022,22.714,31.429,22.714z M127.286,127.286H22.714V40.143h104.571V127.286z M40.771,82.958
			c0.885,0.87,2.321,0.87,3.206,0l12.825-12.605c0.542-0.533,0.748-1.268,0.627-1.958c0.122-0.69-0.085-1.425-0.627-1.958
			L43.977,53.831c-0.885-0.87-2.321-0.87-3.206,0c-0.885,0.871-0.885,2.282,0,3.151l11.611,11.413L40.771,79.807
			C39.885,80.676,39.885,82.088,40.771,82.958z M68.464,70.643h13.071c1.203,0,2.179-0.975,2.179-2.179
			c0-1.203-0.976-2.179-2.179-2.179H68.464c-1.203,0-2.179,0.976-2.179,2.179C66.286,69.668,67.261,70.643,68.464,70.643z"/>
	</g>
</g>
</svg>
