<?xml version="1.0" encoding="utf-8"?>
<!-- Generator: Adobe Illustrator 17.0.0, SVG Export Plug-In . SVG Version: 6.00 Build 0)  -->
<!DOCTYPE svg PUBLIC "-//W3C//DTD SVG 1.1//EN" "http://www.w3.org/Graphics/SVG/1.1/DTD/svg11.dtd">
<svg version="1.1" id="Layer_1" xmlns="http://www.w3.org/2000/svg" xmlns:xlink="http://www.w3.org/1999/xlink" x="0px" y="0px"
	 width="150px" height="150px" viewBox="0 0 150 150" enable-background="new 0 0 150 150" xml:space="preserve">
<g>
	<g>
		<path fill="#7A7A7A" d="M79.275,38.287h-8.134V83.02h4.067h4.067h16.267V74.89H79.275V38.287z M75,14
			c-33.689,0-60.998,27.311-60.998,60.997C14.002,108.691,41.311,136,75,136c33.688,0,60.998-27.309,60.998-61.003
			C135.998,41.311,108.688,14,75,14z M75,128.253c-29.411,0-53.254-23.841-53.254-53.256c0-29.406,23.843-53.25,53.254-53.25
			c29.411,0,53.253,23.844,53.253,53.25C128.253,104.412,104.411,128.253,75,128.253z"/>
	</g>
</g>
</svg>
