<?xml version="1.0" encoding="utf-8"?>
<!-- Generator: Adobe Illustrator 18.1.0, SVG Export Plug-In . SVG Version: 6.00 Build 0)  -->
<svg version="1.1" id="Layer_1" xmlns="http://www.w3.org/2000/svg" xmlns:xlink="http://www.w3.org/1999/xlink" x="0px" y="0px"
	 viewBox="0 0 150 150" enable-background="new 0 0 150 150" xml:space="preserve">
<g>
	<g>
		<path fill="#7A7A7A" d="M104.6,9.2H92.7v25.2h11.9V9.2z M57.6,9.2H45.7v25.2h11.9V9.2z M116.1,20.6h-6.6v18.7H87.8V20.6H62.5v18.7
			H40.8V20.6H34c-9.3,0-17.7,7.6-17.7,16.9v84.4c0,9.3,8.4,17,17.7,17h82c9.3,0,17.7-7.7,17.7-17V37.5
			C133.7,28.1,125.4,20.6,116.1,20.6z M58.2,60.8v62.4H44.4V67.7h-8.1v-6.9v-6.9h22V60.8z M113.7,88.7v13.9v6.7v13.9H99.9H72.1v-6.9
			v-6.9v-6.7V88.7v-21v-6.9v-6.9h41.6 M86,67.7v21v13.9v6.7h13.9v-6.7V88.7v-21"/>
	</g>
</g>
</svg>
