<?xml version="1.0" encoding="utf-8"?>
<!-- Generator: Adobe Illustrator 17.0.0, SVG Export Plug-In . SVG Version: 6.00 Build 0)  -->
<!DOCTYPE svg PUBLIC "-//W3C//DTD SVG 1.1//EN" "http://www.w3.org/Graphics/SVG/1.1/DTD/svg11.dtd">
<svg version="1.1" id="Layer_1" xmlns="http://www.w3.org/2000/svg" xmlns:xlink="http://www.w3.org/1999/xlink" x="0px" y="0px"
	 width="150px" height="150px" viewBox="0 0 150 150" enable-background="new 0 0 150 150" xml:space="preserve">
<path d="M116.862,81.017C96.389,54.618,73.419,24.864,59.905,7.414c-4.482,28.256-26.134,42.75-40.748,47.341
	c-1.674,0.526-3.119,1.06-3.482,2.442c12.306,14.612,42.3,51.905,55.218,66.836C93.564,119.359,113.302,96.315,116.862,81.017z
	 M132.941,82.943c-8.663-10.382-57.938-68.922-57.938-68.922l-2.832,5.989c0,0,46.452,58.23,48.527,61.314
	c-3.807,12.276-27.417,40.81-49.298,45.508c-0.198,1.32-0.123,2.743,0,3.977C101.791,122.696,130.541,89.623,132.941,82.943z
	 M128.626,92.866c-5.087,7.399-32.539,33.147-56.897,39.715c-0.067,0.664,0.078,2.002,0.167,2.761
	c10.119-2.465,44.972-15.053,64.104-34.612C132.367,97.01,130.216,94.358,128.626,92.866z M71.436,139.836
	c7.243-1.038,51.144-17.509,62.612-28.165c0-2.077,0-2.077,0-4.155c-11.292,9.845-45.564,26.423-62.612,29.2
	C71.558,137.544,71.569,138.669,71.436,139.836z M76.806,142.52c15.245-5.611,57.008-20.986,57.008-20.986s0.234-3.631,0.234-5.709
	c-8.035,5.989-38.123,18.804-62.712,25.916C71.484,142.222,72.317,142.779,76.806,142.52z M14,64.234c0,1.922,0,2.945,0,5.125
	c0,2.356,0.632,5.248,2.189,7.338c8.398,10.598,38.593,48.708,48.841,61.643c2.157,2.721,3.431,2.596,3.431,2.596l0.476-14.724
	L14.679,60.296C14.679,60.296,14,61.458,14,64.234z"/>
</svg>
