<?xml version="1.0" encoding="utf-8"?>
<!-- Generator: Adobe Illustrator 18.1.0, SVG Export Plug-In . SVG Version: 6.00 Build 0)  -->
<svg version="1.1" id="Layer_1" xmlns="http://www.w3.org/2000/svg" xmlns:xlink="http://www.w3.org/1999/xlink" x="0px" y="0px"
	 viewBox="-230 322 150 150" enable-background="new -230 322 150 150" xml:space="preserve">
<path fill="#5C6373" d="M-206.8,446.4h-5.4c-2,0-3.6-1.6-3.6-3.6V338.6c0-2,1.6-3.6,3.6-3.6h73.6c2,0,3.6,1.6,3.6,3.6v5.4h-64.7
	c-4,0-7.2,3.2-7.2,7.2C-206.8,351.2-206.8,446.4-206.8,446.4z M-94.2,436.4c0,12.2-9.9,22-22,22s-22-9.9-22-22s9.9-22,22-22
	C-104.1,414.4-94.2,424.2-94.2,436.4z M-102.6,433.7h-10.9v-10.9h-5.4v10.9h-10.9v5.4h10.9V450h5.4v-10.9h10.9L-102.6,433.7
	L-102.6,433.7z M-144.7,436.4c0,9.2,4.4,17.4,11.2,22.6h-66.2c-2,0-3.6-1.6-3.6-3.6V351.2c0-2,1.6-3.6,3.6-3.6h73.6
	c2,0,3.6,1.6,3.6,3.6v57.4C-135.1,411.4-144.7,422.8-144.7,436.4z M-158.3,426.6H-187v5.4h28.7V426.6z M-138.2,412.3H-187v5.4h48.8
	V412.3z M-138.2,397.9H-187v5.4h48.8V397.9z M-138.2,383.5H-187v5.4h48.8V383.5z M-138.2,369.2H-187v5.4h48.8V369.2z"/>
</svg>
