<?xml version="1.0" encoding="utf-8"?>
<!-- Generator: Adobe Illustrator 17.0.0, SVG Export Plug-In . SVG Version: 6.00 Build 0)  -->
<!DOCTYPE svg PUBLIC "-//W3C//DTD SVG 1.1//EN" "http://www.w3.org/Graphics/SVG/1.1/DTD/svg11.dtd">
<svg version="1.1" id="Layer_1" xmlns="http://www.w3.org/2000/svg" xmlns:xlink="http://www.w3.org/1999/xlink" x="0px" y="0px"
	 width="150px" height="150px" viewBox="0 0 150 150" enable-background="new 0 0 150 150" xml:space="preserve">
<path fill-rule="evenodd" clip-rule="evenodd" d="M122.606,81.764c0,0,4.402,5.438,1.813,11.648c0,0-1.554,4.404-4.143,5.695
	c0,0,4.402,10.095-4.66,16.571c0,0,0,9.319-6.214,11.907c0,0-12.911,4.294-32.653,3.44c-10.323-0.449-23.238-2.759-27.988-3.172
	V66.234c5.612-2.115,19.347-6.867,26.479-14.585c6.72-7.275,10.56-17.176,10.456-29.944c0,0,0.418-10.492,10.243-6.989
	c1.708,1.709,12.168,18.812,1.552,46.256h18.383c0,0,6.731-0.342,9.579,8.452C125.453,69.424,128.302,75.033,122.606,81.764z
	 M23.834,61.308h19.788V136H23.834V61.308z M34.114,132.24c2.896,0,5.243-2.348,5.243-5.243c0-2.898-2.347-5.241-5.243-5.241
	c-2.895,0-5.243,2.343-5.243,5.241C28.871,129.892,31.219,132.24,34.114,132.24z"/>
</svg>
