<?xml version="1.0" encoding="utf-8"?>
<!-- Generator: Adobe Illustrator 17.0.0, SVG Export Plug-In . SVG Version: 6.00 Build 0)  -->
<!DOCTYPE svg PUBLIC "-//W3C//DTD SVG 1.1//EN" "http://www.w3.org/Graphics/SVG/1.1/DTD/svg11.dtd">
<svg version="1.1" id="Layer_1" xmlns="http://www.w3.org/2000/svg" xmlns:xlink="http://www.w3.org/1999/xlink" x="0px" y="0px"
	 width="150px" height="150px" viewBox="0 0 150 150" enable-background="new 0 0 150 150" xml:space="preserve">
<g>
	<g>
		<path d="M70.956,99.416h8.087v-8.129h-8.087V99.416z M66.913,94.254c-5.006-1.48-8.086-4.255-8.086-7.033
			c-4.044,4.067-25.91,7.377-28.305,12.194c-2.396,4.816-4.042,17.162-4.042,24.392c2.788,2.334,18.428,3.67,36.39,4.06
			l4.043-24.386V94.254z M79.044,103.481h-8.087l-4.044,24.389h-3.924c1.315,0.028,2.653,0.045,3.988,0.064L75,136l8.046-8.089
			c0.872-0.014,1.752-0.023,2.616-0.041h-2.575L79.044,103.481z M119.477,99.416c-2.396-4.818-24.26-8.127-28.304-12.194
			c0,2.778-3.08,5.553-8.086,7.033v9.227l4.038,24.355c17.993-0.435,33.654-1.795,36.395-4.029
			C123.521,116.578,121.873,104.232,119.477,99.416z M53.964,51.995c-3.259,0.116-4.032,1.083-3.424,5.099
			c0.572,3.786-0.599,7.269,5.441,7.269c0,3.049,0,4.125,2.017,6.186c2.018,2.059,6.053,10.39,6.053,16.489
			c1.989,1.016,6.619,1.983,11.095,1.997c4.601,0.013,9.048-0.951,11.093-1.997c0-6.099,4.303-11.267,6.051-14.426
			c1.639-2.965,2.018-5.199,2.018-8.248c6.04,0,5.163-4.479,5.115-8.304c-0.05-4.014,0.159-3.948-3.099-4.064
			c0.161-11.997,4.023-17.066,2.017-20.61c2.176-2.254-6.364-24.798-41.484-14.873c-3.929,4.676-1.231,7.623-1.57,8.417
			c-0.818,1.927-4.254-1.045-3.722,4.879C47.474,34.076,54.261,50.046,53.964,51.995z"/>
	</g>
</g>
</svg>
