<?xml version="1.0" encoding="utf-8"?>
<!-- Generator: Adobe Illustrator 17.0.0, SVG Export Plug-In . SVG Version: 6.00 Build 0)  -->
<!DOCTYPE svg PUBLIC "-//W3C//DTD SVG 1.1//EN" "http://www.w3.org/Graphics/SVG/1.1/DTD/svg11.dtd">
<svg version="1.1" id="Layer_1" xmlns="http://www.w3.org/2000/svg" xmlns:xlink="http://www.w3.org/1999/xlink" x="0px" y="0px"
	 width="150px" height="150px" viewBox="0 0 150 150" enable-background="new 0 0 150 150" xml:space="preserve">
<path fill-rule="evenodd" clip-rule="evenodd" d="M132.554,118.634h-2.275c-0.37,1.339-0.902,2.607-1.58,3.784l2.103,2.103
	c1.347,1.345,1.347,3.528,0,4.874l-1.217,1.219c-1.346,1.346-3.528,1.346-4.874,0l-2.117-2.117
	c-1.173,0.668-2.439,1.189-3.771,1.552v2.208c0,1.903-1.544,3.446-3.447,3.446h-1.723c-1.903,0-3.446-1.542-3.446-3.446v-2.208
	c-1.333-0.364-2.597-0.884-3.772-1.552l-2.115,2.117c-1.347,1.346-3.528,1.346-4.874,0l-1.219-1.219
	c-1.345-1.346-1.345-3.528,0-4.874l2.103-2.103c-0.678-1.177-1.208-2.446-1.578-3.784h-2.275c-1.903,0-3.446-1.542-3.446-3.446
	v-1.724c0-1.902,1.542-3.446,3.446-3.446h2.248c0.357-1.326,0.866-2.588,1.525-3.758l-2.022-2.022c-1.345-1.346-1.345-3.528,0-4.874
	l1.219-1.217c1.346-1.347,3.527-1.347,4.874,0l1.982,1.982c1.212-0.705,2.522-1.256,3.906-1.633v-2.315
	c0-1.903,1.542-3.446,3.446-3.446h1.723c1.903,0,3.447,1.542,3.447,3.446v2.315c1.384,0.377,2.692,0.928,3.906,1.633l1.982-1.982
	c1.346-1.347,3.528-1.347,4.874,0l1.217,1.217c1.347,1.346,1.347,3.528,0,4.874l-2.022,2.022c0.66,1.171,1.169,2.432,1.526,3.758
	h2.248c1.903,0,3.446,1.544,3.446,3.446v1.724C136,117.092,134.458,118.634,132.554,118.634z M114.516,104.904
	c-5.235,0-9.476,4.243-9.476,9.476c0,5.233,4.242,9.476,9.476,9.476c5.233,0,9.476-4.243,9.476-9.476
	C123.992,109.147,119.749,104.904,114.516,104.904z M114.516,118.58c-2.38,0-4.308-1.929-4.308-4.308s1.928-4.308,4.308-4.308
	c2.378,0,4.308,1.929,4.308,4.308S116.894,118.58,114.516,118.58z M69.484,100.944h24.345c0.188-1.521,0.843-2.934,1.943-4.034
	l1.221-1.219c0.072-0.072,0.159-0.123,0.233-0.192V83.699H69.484V100.944z M69.484,52.466h27.742V35.102H69.484V52.466z
	 M89.558,115.188v-1.723c0-0.725,0.137-1.414,0.345-2.072H24.403c-1.916,0-3.468-1.552-3.468-3.468V24.699
	c0-1.914,1.552-3.468,3.468-3.468h83.227c1.914,0,3.468,1.553,3.468,3.468v65.054c0.791-0.316,1.653-0.491,2.556-0.491h1.723
	c0.942,0,1.837,0.196,2.656,0.538V21.231c0-3.829-3.105-6.934-6.935-6.934H20.936c-3.831,0-6.936,3.105-6.936,6.934v90.162
	c0,3.83,3.105,6.934,6.936,6.934h69.408C89.857,117.381,89.558,116.323,89.558,115.188z M69.484,76.669h27.742V59.422H69.484V76.669
	z M62.549,35.102H34.807v17.364h27.742V35.102z M34.807,100.944h27.742V83.699H34.807V100.944z M62.549,59.422H34.807v17.248h27.742
	V59.422z"/>
</svg>
