<?xml version="1.0" encoding="utf-8"?>
<!-- Generator: Adobe Illustrator 17.0.0, SVG Export Plug-In . SVG Version: 6.00 Build 0)  -->
<!DOCTYPE svg PUBLIC "-//W3C//DTD SVG 1.1//EN" "http://www.w3.org/Graphics/SVG/1.1/DTD/svg11.dtd">
<svg version="1.1" id="Layer_1" xmlns="http://www.w3.org/2000/svg" xmlns:xlink="http://www.w3.org/1999/xlink" x="0px" y="0px"
	 width="150px" height="150px" viewBox="0 0 150 150" enable-background="new 0 0 150 150" xml:space="preserve">
<path d="M89.793,58.243h11.061v11.06H89.793V58.243z M99.149,95.112c0.432,0.268,0.895,0.485,1.261,0.856l0.444,0.444v-1.3H99.149z
	 M89.793,87.738h11.061v-11.06H89.793V87.738z M89.793,97.475c0.078-0.087,0.104-0.201,0.188-0.286l1.258-1.25
	c0.354-0.356,0.809-0.564,1.229-0.827h-2.674V97.475z M89.793,106.071v0.101h0.066C89.831,106.142,89.821,106.102,89.793,106.071z
	 M45.435,36.123c4.009,0,7.259-3.251,7.259-7.26v-7.604c0-4.008-3.249-7.259-7.259-7.259s-7.259,3.251-7.259,7.259v7.604
	C38.176,32.872,41.425,36.123,45.435,36.123z M83.861,115.283v-1.736H27.115V50.869h81.112v38.73h1.207
	c3.007,0,5.43,2.095,6.166,4.877V32.434c0-4.072-3.301-7.373-7.373-7.373h-7.373v3.689c0,6.107-4.954,11.059-11.061,11.059
	c-6.108,0-11.061-4.952-11.061-11.059v-3.689H56.611v3.689c0,6.107-4.953,11.059-11.061,11.059c-6.109,0-11.06-4.952-11.06-11.059
	v-3.689h-7.374c-4.072,0-7.373,3.301-7.373,7.373v81.112c0,4.072,3.301,7.373,7.373,7.373h60.192
	C85.287,119.817,83.861,117.747,83.861,115.283z M82.42,76.678H71.359v11.06H82.42V76.678z M89.678,36.123
	c4.008,0,7.259-3.251,7.259-7.26v-7.604c0-4.008-3.251-7.259-7.259-7.259c-4.009,0-7.259,3.251-7.259,7.259v7.604
	C82.42,32.872,85.669,36.123,89.678,36.123z M34.49,106.172h11.06v-11.06H34.49V106.172z M45.55,76.678H34.49v11.06h11.06V76.678z
	 M63.985,58.243H52.924v11.06h11.061V58.243z M45.55,58.243H34.49v11.06h11.06V58.243z M52.924,106.172h11.061v-11.06H52.924
	V106.172z M71.359,106.172H82.42v-11.06H71.359V106.172z M82.42,58.243H71.359v11.06H82.42V58.243z M63.985,76.678H52.924v11.06
	h11.061V76.678z M130.258,115.288v-1.74c0-1.922-1.558-3.48-3.48-3.48h-2.269c-0.36-1.339-0.875-2.613-1.539-3.794l2.041-2.041
	c1.359-1.36,1.359-3.562,0-4.921l-1.231-1.231c-1.359-1.359-3.561-1.359-4.92,0l-2.002,2.002c-1.225-0.712-2.546-1.268-3.944-1.649
	v-2.336c0-1.922-1.558-3.48-3.48-3.48h-1.74c-1.921,0-3.478,1.558-3.478,3.48v2.336c-1.398,0.381-2.72,0.937-3.944,1.649
	l-2.002-2.002c-1.359-1.359-3.561-1.359-4.92,0l-1.231,1.231c-1.359,1.359-1.359,3.561,0,4.921l2.041,2.041
	c-0.666,1.181-1.179,2.455-1.539,3.794h-2.269c-1.922,0-3.48,1.558-3.48,3.48v1.74c0,1.921,1.558,3.478,3.48,3.478h2.296
	c0.374,1.353,0.91,2.633,1.595,3.822l-2.124,2.124c-1.359,1.359-1.359,3.561,0,4.92l1.231,1.231c1.359,1.359,3.561,1.359,4.92,0
	l2.137-2.137c1.185,0.675,2.461,1.201,3.808,1.568v2.228c0,1.922,1.558,3.48,3.478,3.48h1.74c1.922,0,3.48-1.558,3.48-3.48v-2.228
	c1.345-0.368,2.622-0.893,3.808-1.568l2.137,2.137c1.359,1.359,3.561,1.359,4.92,0l1.231-1.231c1.359-1.359,1.359-3.561,0-4.92
	l-2.124-2.124c0.684-1.188,1.22-2.469,1.594-3.822h2.297C128.701,118.766,130.258,117.209,130.258,115.288z M118.135,114.472
	c0,5.284-4.284,9.568-9.568,9.568s-9.568-4.284-9.568-9.568c0-5.284,4.284-9.568,9.568-9.568S118.135,109.188,118.135,114.472z
	 M112.916,114.363c0-2.403-1.948-4.349-4.349-4.349c-2.403,0-4.349,1.946-4.349,4.349c0,2.403,1.946,4.349,4.349,4.349
	C110.968,118.712,112.916,116.766,112.916,114.363z"/>
</svg>
