<?xml version="1.0" encoding="utf-8"?>
<!-- Generator: Adobe Illustrator 17.0.0, SVG Export Plug-In . SVG Version: 6.00 Build 0)  -->
<!DOCTYPE svg PUBLIC "-//W3C//DTD SVG 1.1//EN" "http://www.w3.org/Graphics/SVG/1.1/DTD/svg11.dtd">
<svg version="1.1" id="Layer_1" xmlns="http://www.w3.org/2000/svg" xmlns:xlink="http://www.w3.org/1999/xlink" x="0px" y="0px"
	 width="150px" height="150px" viewBox="0 0 150 150" enable-background="new 0 0 150 150" xml:space="preserve">
<path d="M80.009,116.815c-4.47,0.52-9.962,0.844-16.256,0.571c-9.12-0.397-20.53-2.438-24.727-2.802V60.147
	c4.958-1.868,17.093-6.067,23.394-12.886c5.937-6.428,9.329-15.174,9.238-26.455c0,0,0.369-9.269,9.049-6.175
	c1.509,1.51,10.75,16.62,1.371,40.865h16.24c0,0,5.947-0.302,8.463,7.467c0,0,2.517,4.956-2.516,10.902c0,0,2.439,3.089,2.266,7.125
	h-0.148c-4.378,0-7.94,3.564-7.94,7.942v0.026c-0.015,0.004-0.03,0.011-0.045,0.019l-0.414-0.416
	c-1.499-1.499-3.495-2.327-5.616-2.327c-2.123,0-4.119,0.828-5.616,2.327l-1.452,1.45c-3.092,3.096-3.092,8.137,0.002,11.232
	l0.335,0.334c-4.244,0.157-7.648,3.658-7.648,7.938v2.054C77.99,113.588,78.766,115.413,80.009,116.815z M17.005,55.795h17.482
	v65.987H17.005V55.795z M21.455,113.83c0,2.557,2.074,4.632,4.632,4.632c2.559,0,4.632-2.074,4.632-4.632
	c0-2.56-2.074-4.631-4.632-4.631C23.529,109.199,21.455,111.27,21.455,113.83z M132.995,111.571v-2.052
	c0-2.266-1.837-4.105-4.103-4.105h-2.676c-0.425-1.579-1.032-3.082-1.815-4.476l2.408-2.408c1.602-1.602,1.602-4.2,0-5.804
	l-1.451-1.45c-1.602-1.604-4.202-1.604-5.804,0l-2.36,2.36c-1.445-0.84-3.003-1.496-4.651-1.945v-2.757
	c0-2.266-1.838-4.103-4.103-4.103h-2.053c-2.266,0-4.103,1.837-4.103,4.103v2.757c-1.648,0.449-3.208,1.105-4.651,1.945l-2.36-2.36
	c-1.602-1.604-4.202-1.604-5.804,0l-1.451,1.45c-1.602,1.604-1.602,4.202,0,5.804l2.408,2.408c-0.784,1.394-1.391,2.896-1.815,4.476
	h-2.676c-2.266,0-4.103,1.838-4.103,4.105v2.052c0,2.266,1.837,4.103,4.103,4.103h2.709c0.441,1.594,1.073,3.104,1.881,4.507
	l-2.506,2.504c-1.602,1.602-1.602,4.202,0,5.804l1.451,1.451c1.602,1.602,4.202,1.602,5.804,0l2.519-2.521
	c1.399,0.795,2.904,1.415,4.492,1.848v2.629c0,2.266,1.837,4.103,4.103,4.103h2.053c2.265,0,4.103-1.837,4.103-4.103v-2.629
	c1.586-0.433,3.093-1.053,4.49-1.848l2.521,2.521c1.602,1.602,4.202,1.602,5.804,0l1.451-1.451c1.602-1.602,1.602-4.202,0-5.804
	l-2.506-2.504c0.809-1.402,1.44-2.913,1.881-4.507h2.709C131.158,115.674,132.995,113.837,132.995,111.571z M118.696,110.608
	c0,6.234-5.053,11.285-11.285,11.285s-11.285-5.051-11.285-11.285c0-6.232,5.053-11.285,11.285-11.285
	S118.696,104.376,118.696,110.608z M112.541,110.48c0-2.832-2.298-5.13-5.13-5.13c-2.832,0-5.13,2.298-5.13,5.13
	c0,2.832,2.298,5.13,5.13,5.13C110.244,115.61,112.541,113.312,112.541,110.48z"/>
</svg>
