<?xml version="1.0" encoding="utf-8"?>
<!-- Generator: Adobe Illustrator 17.0.0, SVG Export Plug-In . SVG Version: 6.00 Build 0)  -->
<!DOCTYPE svg PUBLIC "-//W3C//DTD SVG 1.1//EN" "http://www.w3.org/Graphics/SVG/1.1/DTD/svg11.dtd">
<svg version="1.1" id="Layer_1" xmlns="http://www.w3.org/2000/svg" xmlns:xlink="http://www.w3.org/1999/xlink" x="0px" y="0px"
	 width="150px" height="150px" viewBox="0 0 150 150" enable-background="new 0 0 150 150" xml:space="preserve">
<path d="M50.601,85.755v-12.89l-29.134,12.89V136h107.067V85.755H78.026l0.049-12.545L50.601,85.755z M55.796,110.614
	c0,1.736-1.42,3.157-3.157,3.157H37.119c-1.736,0-3.157-1.421-3.157-3.157v-9.339c0-1.736,1.42-3.157,3.157-3.157H52.64
	c1.736,0,3.157,1.421,3.157,3.157V110.614z M85.917,110.614c0,1.736-1.421,3.157-3.157,3.157H67.24
	c-1.736,0-3.157-1.421-3.157-3.157v-9.339c0-1.736,1.421-3.157,3.157-3.157H82.76c1.736,0,3.157,1.421,3.157,3.157V110.614z
	 M116.038,110.614c0,1.736-1.421,3.157-3.157,3.157H97.36c-1.736,0-3.157-1.421-3.157-3.157v-9.339c0-1.736,1.421-3.157,3.157-3.157
	h15.521c1.736,0,3.157,1.421,3.157,3.157V110.614z M84.207,50.899h10.128l3.157,30.778H81.05L84.207,50.899z M106.707,32.09h10.128
	l3.157,49.587H103.55L106.707,32.09z M93.316,43.27c0,1.798-2.208,3.255-4.932,3.255s-4.932-1.458-4.932-3.255
	c0-0.136,0.036-0.266,0.061-0.398c-0.021,0-0.04,0.004-0.061,0.004c-3.596,0-6.511-1.701-6.511-3.798
	c0-2.098,2.915-3.798,6.511-3.798c3.596,0,6.511,1.7,6.511,3.798c0,0.372-0.12,0.724-0.291,1.063
	C91.766,40.517,93.316,41.768,93.316,43.27z M116.383,21.991c0,1.798-2.208,3.255-4.932,3.255s-4.932-1.458-4.932-3.255
	c0-0.136,0.036-0.266,0.061-0.398c-0.021,0-0.04,0.004-0.061,0.004c-3.596,0-6.511-1.701-6.511-3.798
	c0-2.098,2.915-3.798,6.511-3.798s6.511,1.7,6.511,3.798c0,0.372-0.12,0.724-0.291,1.063
	C114.834,19.237,116.383,20.488,116.383,21.991z"/>
</svg>
