<?xml version="1.0" encoding="utf-8"?>
<!-- Generator: Adobe Illustrator 17.0.0, SVG Export Plug-In . SVG Version: 6.00 Build 0)  -->
<!DOCTYPE svg PUBLIC "-//W3C//DTD SVG 1.1//EN" "http://www.w3.org/Graphics/SVG/1.1/DTD/svg11.dtd">
<svg version="1.1" id="Layer_1" xmlns="http://www.w3.org/2000/svg" xmlns:xlink="http://www.w3.org/1999/xlink" x="0px" y="0px"
	 width="150px" height="150px" viewBox="0 0 150 150" enable-background="new 0 0 150 150" xml:space="preserve">
<path d="M85.201,58.781l35.374-29.96v48.149c-0.245,0.193-0.499,0.37-0.723,0.594l-0.419,0.419
	c-0.019-0.007-0.039-0.015-0.058-0.022v-0.034c0-4.372-3.557-7.925-7.929-7.925h-2.051c-4.372,0-7.929,3.554-7.929,7.925v0.034
	c-0.019,0.007-0.039,0.015-0.058,0.022l-0.42-0.419c-0.042-0.042-0.092-0.07-0.135-0.111L85.201,58.781z M120.31,25.016H14.404
	l52.954,44.539L120.31,25.016z M81.015,100.56v-2.051c0-4.282,3.413-7.783,7.664-7.925l-0.355-0.355
	c-1.498-1.498-2.322-3.49-2.322-5.609c0-2.115,0.824-4.107,2.322-5.605l1.45-1.45c1.414-1.414,3.27-2.202,5.254-2.29L82.877,60.787
	L67.345,73.913l-15.507-12.73l-33.743,39.839h62.967C81.052,100.866,81.015,100.718,81.015,100.56z M14,28.822v72.16l35.374-42.201
	L14,28.822z M136,100.56v-2.053c0-2.266-1.836-4.102-4.102-4.102h-2.676c-0.425-1.579-1.031-3.081-1.817-4.475l2.407-2.407
	c1.604-1.602,1.604-4.201,0-5.803l-1.449-1.449c-1.602-1.604-4.201-1.604-5.803,0L120.2,82.63c-1.445-0.84-3.002-1.495-4.65-1.945
	v-2.756c0-2.266-1.838-4.102-4.104-4.102h-2.051c-2.266,0-4.102,1.836-4.102,4.102v2.756c-1.648,0.449-3.207,1.105-4.65,1.945
	l-2.359-2.359c-1.604-1.604-4.201-1.604-5.803,0l-1.451,1.449c-1.602,1.602-1.602,4.201,0,5.803l2.407,2.407
	c-0.784,1.394-1.39,2.896-1.815,4.475h-2.676c-2.266,0-4.102,1.836-4.102,4.102v2.053c0,2.266,1.836,4.102,4.102,4.102h2.709
	c0.441,1.594,1.072,3.104,1.879,4.506l-2.504,2.504c-1.602,1.602-1.602,4.201,0,5.803l1.451,1.451c1.602,1.602,4.199,1.602,5.803,0
	l2.519-2.52c1.399,0.795,2.904,1.415,4.491,1.848v2.628c0,2.266,1.836,4.102,4.102,4.102h2.051c2.266,0,4.104-1.836,4.104-4.102
	v-2.628c1.586-0.433,3.092-1.053,4.489-1.848l2.52,2.52c1.602,1.602,4.201,1.602,5.803,0l1.449-1.451
	c1.604-1.602,1.604-4.201,0-5.803l-2.504-2.504c0.807-1.402,1.44-2.912,1.881-4.506h2.709C134.164,104.662,136,102.826,136,100.56z
	 M121.704,99.597c0,6.232-5.052,11.283-11.283,11.283c-6.232,0-11.283-5.05-11.283-11.283c0-6.231,5.05-11.283,11.283-11.283
	C116.652,88.315,121.704,93.366,121.704,99.597z M115.55,99.469c0-2.832-2.297-5.129-5.129-5.129c-2.833,0-5.129,2.297-5.129,5.129
	s2.296,5.129,5.129,5.129C113.253,104.598,115.55,102.301,115.55,99.469z"/>
</svg>
