<?xml version="1.0" encoding="utf-8"?>
<!-- Generator: Adobe Illustrator 17.0.0, SVG Export Plug-In . SVG Version: 6.00 Build 0)  -->
<!DOCTYPE svg PUBLIC "-//W3C//DTD SVG 1.1//EN" "http://www.w3.org/Graphics/SVG/1.1/DTD/svg11.dtd">
<svg version="1.1" id="Layer_1" xmlns="http://www.w3.org/2000/svg" xmlns:xlink="http://www.w3.org/1999/xlink" x="0px" y="0px"
	 width="150px" height="150px" viewBox="0 0 150 150" enable-background="new 0 0 150 150" xml:space="preserve">
<g>
	<g>
		<path fill="#7A7A7A" d="M113.594,66.814h4.063V22.126h-4.063H40.468v4.062h73.126V66.814z M121.719,22.126v44.688h4.063V22.126
			v-4.063V14h-4.063H48.593v4.063h73.126V22.126z M52.656,66.81v16.25h44.688V66.81h8.125h4.063V30.247h-4.063H40.468h-8.125V66.81
			h8.125H52.656z M56.718,119.607h36.563V99.315H56.718V119.607z M68.906,115.566h-4.063v-4.062h4.063V115.566z M89.219,115.566
			h-16.25v-4.062h16.25V115.566z M85.156,103.378h4.063v4.061h-4.063V103.378z M60.781,103.378h20.313v4.061H60.781V103.378z
			 M100.204,70.725c0.758,1.235,1.203,2.684,1.203,4.241v4.062c0,4.489-3.638,8.125-8.125,8.125H56.718
			c-4.487,0-8.125-3.636-8.125-8.125v-4.062c0-1.556,0.445-3.005,1.203-4.241H24.218v57.147c0,4.491,3.638,8.127,8.125,8.127h85.314
			c4.488,0,8.125-3.636,8.125-8.127V70.725H100.204z M97.344,99.315v20.293v4.064h-4.063H56.718h-4.063v-4.064V99.315v-4.061h4.063
			h40.626V99.315z"/>
	</g>
</g>
</svg>
