<?xml version="1.0" encoding="utf-8"?>
<!-- Generator: Adobe Illustrator 17.0.0, SVG Export Plug-In . SVG Version: 6.00 Build 0)  -->
<!DOCTYPE svg PUBLIC "-//W3C//DTD SVG 1.1//EN" "http://www.w3.org/Graphics/SVG/1.1/DTD/svg11.dtd">
<svg version="1.1" id="Layer_1" xmlns="http://www.w3.org/2000/svg" xmlns:xlink="http://www.w3.org/1999/xlink" x="0px" y="0px"
	 width="150px" height="150px" viewBox="0 0 150 150" enable-background="new 0 0 150 150" xml:space="preserve">
<path fill-rule="evenodd" clip-rule="evenodd" d="M123.8,133.967H26.2c-6.737,0-12.2-5.461-12.2-12.2V64.833
	c0-6.737,5.463-12.2,12.2-12.2h8.133l34.541-26.505c-0.158-0.632-0.264-1.281-0.264-1.962c0-4.492,3.641-8.133,8.133-8.133
	c4.49,0,8.132,3.641,8.132,8.133c0,1.464-0.417,2.816-1.091,4.002l31.883,24.464h8.133c6.739,0,12.2,5.463,12.2,12.2v56.933
	C136,128.505,130.539,133.967,123.8,133.967z M79.358,107.872h16.394v-3.082h-12.93V81.661h-3.463V107.872z M55.899,107.872
	l2.869-7.942h11.017l3.018,7.942h3.948L66.065,81.661h-3.757l-10.073,26.211H55.899z M31.658,84.736
	c-0.749,1.152-1.123,2.391-1.123,3.718c0,1.206,0.307,2.296,0.918,3.269s1.542,1.788,2.789,2.445
	c0.964,0.513,2.643,1.059,5.043,1.637c2.398,0.578,3.946,1.003,4.648,1.279c1.093,0.417,1.881,0.93,2.364,1.544
	c0.486,0.612,0.727,1.327,0.727,2.147c0,0.808-0.246,1.557-0.739,2.245c-0.493,0.688-1.244,1.228-2.255,1.623
	c-1.008,0.396-2.174,0.593-3.492,0.593c-1.484,0-2.821-0.259-4.009-0.781c-1.188-0.52-2.064-1.203-2.628-2.047
	s-0.923-1.923-1.078-3.24l-3.272,0.286c0.047,1.75,0.525,3.319,1.435,4.709c0.91,1.388,2.164,2.426,3.763,3.118
	c1.598,0.691,3.58,1.037,5.946,1.037c1.866,0,3.546-0.342,5.038-1.027c1.493-0.685,2.637-1.642,3.433-2.872
	c0.796-1.232,1.195-2.543,1.195-3.935c0-1.405-0.364-2.645-1.093-3.721s-1.857-1.966-3.384-2.669
	c-1.051-0.474-2.981-1.032-5.788-1.669s-4.544-1.261-5.209-1.869c-0.678-0.608-1.015-1.383-1.015-2.325
	c0-1.084,0.478-2.011,1.433-2.781c0.956-0.768,2.477-1.152,4.567-1.152c2.006,0,3.524,0.42,4.551,1.261
	c1.027,0.84,1.628,2.082,1.808,3.726l3.335-0.254c-0.059-1.533-0.488-2.908-1.284-4.121c-0.796-1.213-1.935-2.133-3.414-2.757
	c-1.481-0.625-3.191-0.937-5.129-0.937c-1.759,0-3.358,0.298-4.797,0.896C33.501,82.71,32.407,83.584,31.658,84.736z M81.825,30.47
	c-1.396,1.128-3.148,1.83-5.082,1.83c-2.692,0-5.061-1.323-6.541-3.338L38.4,52.633h73.2L81.825,30.47z M119.474,104.79h-16.075
	v-8.926h14.488v-3.082h-14.488v-8.038h15.472v-3.082H99.935v26.211h19.539V104.79z M64.081,84.394
	c0.419,1.432,1.039,3.253,1.859,5.461l2.759,7.247h-8.945l2.909-7.672C63.261,87.771,63.735,86.094,64.081,84.394z"/>
</svg>
