<?xml version="1.0" encoding="utf-8"?>
<!-- Generator: Adobe Illustrator 17.0.0, SVG Export Plug-In . SVG Version: 6.00 Build 0)  -->
<!DOCTYPE svg PUBLIC "-//W3C//DTD SVG 1.1//EN" "http://www.w3.org/Graphics/SVG/1.1/DTD/svg11.dtd">
<svg version="1.1" id="Layer_1" xmlns="http://www.w3.org/2000/svg" xmlns:xlink="http://www.w3.org/1999/xlink" x="0px" y="0px"
	 width="150px" height="150px" viewBox="0 0 150 150" enable-background="new 0 0 150 150" xml:space="preserve">
<path d="M83.386,104.978c-9.079,6.882-16.282,11.285-16.282,11.285S14,83.705,14,57.469c0-15.805,9.799-31.61,28.449-31.61
	c17.068,0,24.656,16.165,24.656,16.165s6.638-16.165,24.654-16.165c18.019,0,28.134,15.489,28.134,31.61
	c0,4.738-1.702,9.657-4.464,14.542c-1.342-0.193-2.703-0.326-4.098-0.326c-15.685,0-28.448,12.612-28.448,28.116
	C82.882,101.572,83.068,103.298,83.386,104.978z M136,99.801c0,13.441-11.046,24.339-24.672,24.339
	c-13.625,0-24.67-10.898-24.67-24.339c0-13.443,11.045-24.339,24.67-24.339C124.954,75.462,136,86.359,136,99.801z M120.59,105.391
	c0-1.13-0.177-2.111-0.528-2.943c-0.352-0.833-0.816-1.556-1.388-2.172c-0.573-0.615-1.226-1.144-1.96-1.584
	c-0.734-0.442-1.482-0.837-2.246-1.183c-0.763-0.348-1.511-0.677-2.246-0.988c-0.734-0.311-1.391-0.645-1.97-0.999
	c-0.58-0.355-1.043-0.761-1.388-1.217s-0.517-0.994-0.517-1.618c0-0.418,0.078-0.814,0.232-1.189s0.389-0.695,0.705-0.964
	c0.316-0.267,0.708-0.476,1.177-0.627c0.47-0.151,1.02-0.227,1.652-0.227c0.808,0,1.548,0.097,2.223,0.291
	c0.676,0.194,1.27,0.409,1.784,0.647c0.514,0.236,0.947,0.456,1.298,0.657c0.354,0.201,0.61,0.302,0.772,0.302
	s0.29-0.043,0.384-0.131c0.096-0.087,0.169-0.224,0.221-0.413s0.088-0.427,0.11-0.718c0.021-0.29,0.034-0.647,0.034-1.068
	c0-0.377-0.008-0.692-0.023-0.946c-0.014-0.255-0.04-0.465-0.076-0.631c-0.037-0.168-0.081-0.302-0.133-0.403
	c-0.052-0.102-0.149-0.224-0.297-0.369c-0.146-0.143-0.447-0.323-0.903-0.538c-0.454-0.215-0.976-0.41-1.563-0.583
	c-0.587-0.172-1.218-0.308-1.893-0.409c-0.139-0.021-0.276-0.015-0.415-0.03v-3.594h-3.466v3.594
	c-0.636,0.084-1.255,0.207-1.855,0.38c-1.166,0.332-2.179,0.836-3.038,1.508c-0.859,0.673-1.542,1.52-2.048,2.541
	c-0.506,1.02-0.76,2.204-0.76,3.55c0,1.173,0.177,2.179,0.528,3.019c0.352,0.839,0.811,1.566,1.377,2.181
	c0.564,0.616,1.206,1.144,1.926,1.586c0.718,0.442,1.459,0.837,2.223,1.183c0.763,0.348,1.504,0.677,2.222,0.988
	c0.72,0.311,1.362,0.644,1.926,0.999c0.566,0.355,1.025,0.759,1.377,1.215c0.351,0.456,0.528,1.004,0.528,1.64
	c0,0.552-0.102,1.052-0.308,1.502c-0.206,0.452-0.503,0.828-0.892,1.133c-0.389,0.303-0.862,0.54-1.42,0.706
	c-0.558,0.168-1.189,0.25-1.894,0.25c-1.072,0-2.015-0.119-2.829-0.357c-0.816-0.238-1.516-0.503-2.103-0.792
	c-0.587-0.288-1.068-0.552-1.443-0.792c-0.373-0.238-0.663-0.358-0.869-0.358c-0.146,0-0.276,0.041-0.386,0.12
	c-0.11,0.081-0.198,0.215-0.264,0.403c-0.065,0.189-0.114,0.436-0.143,0.74c-0.029,0.305-0.044,0.683-0.044,1.133
	c0,0.666,0.041,1.179,0.122,1.534c0.081,0.355,0.216,0.627,0.407,0.813c0.191,0.186,0.502,0.403,0.936,0.645
	c0.432,0.244,0.971,0.477,1.618,0.7c0.645,0.223,1.391,0.413,2.236,0.57c0.843,0.157,1.757,0.236,2.741,0.236
	c0.044,0,0.084-0.008,0.128-0.008v3.349h3.466v-3.799c0.165-0.041,0.34-0.059,0.502-0.107c1.278-0.377,2.393-0.938,3.347-1.684
	c0.953-0.744,1.709-1.674,2.268-2.791C120.311,108.162,120.59,106.867,120.59,105.391z"/>
</svg>
