<?xml version="1.0" encoding="utf-8"?>
<!-- Generator: Adobe Illustrator 17.0.0, SVG Export Plug-In . SVG Version: 6.00 Build 0)  -->
<!DOCTYPE svg PUBLIC "-//W3C//DTD SVG 1.1//EN" "http://www.w3.org/Graphics/SVG/1.1/DTD/svg11.dtd">
<svg version="1.1" id="Layer_1" xmlns="http://www.w3.org/2000/svg" xmlns:xlink="http://www.w3.org/1999/xlink" x="0px" y="0px"
	 width="150px" height="150px" viewBox="0 0 150 150" enable-background="new 0 0 150 150" xml:space="preserve">
<g>
	<g>
		<path fill="#7A7A7A" d="M38.4,87.145h32.533V66.92H38.4V87.145z M38.4,115.612h32.533V95.389H38.4V115.612z M38.4,58.761h32.533
			V38.401H38.4V58.761z M79.067,87.145H111.6V66.92H79.067V87.145z M127.867,14.001H22.133c-4.492,0-8.133,3.641-8.133,8.133
			v105.733c0,4.492,3.641,8.133,8.133,8.133h105.734c4.492,0,8.133-3.641,8.133-8.133V22.133
			C136,17.642,132.359,14.001,127.867,14.001z M127.867,123.8c0,2.246-1.821,4.066-4.067,4.066H26.2
			c-2.246,0-4.067-1.82-4.067-4.066V26.2c0-2.246,1.821-4.066,4.067-4.066h97.6c2.246,0,4.067,1.82,4.067,4.066V123.8z
			 M79.067,58.761H111.6V38.401H79.067V58.761z M79.067,115.612H111.6V95.389H79.067V115.612z"/>
	</g>
</g>
</svg>
