<?xml version="1.0" encoding="utf-8"?>
<!-- Generator: Adobe Illustrator 17.0.0, SVG Export Plug-In . SVG Version: 6.00 Build 0)  -->
<!DOCTYPE svg PUBLIC "-//W3C//DTD SVG 1.1//EN" "http://www.w3.org/Graphics/SVG/1.1/DTD/svg11.dtd">
<svg version="1.1" id="Layer_1" xmlns="http://www.w3.org/2000/svg" xmlns:xlink="http://www.w3.org/1999/xlink" x="0px" y="0px"
	 width="150px" height="150px" viewBox="0 0 150 150" enable-background="new 0 0 150 150" xml:space="preserve">
<path fill-rule="evenodd" clip-rule="evenodd" d="M122.137,106.16h-4.775l-5.391,22.831L84.246,106.16h-18.1l7.762-8.305
	l33.828-0.064c0,0,12.09-1.531,12.09-10.193l-0.08-46.793h2.39c7.656,0,13.863,6.213,13.863,13.863v36.974
	C136,99.295,129.792,106.16,122.137,106.16z M98.494,90.105H71.152l-27.725,33.161l-5.391-33.161l-8.857-0.219
	C21.522,89.886,14,85.431,14,77.776V36.188c0-7.654,7.522-15.179,15.179-15.179h69.315c7.656,0,13.206,7.525,13.206,15.179v41.588
	C111.699,85.431,106.149,90.105,98.494,90.105z"/>
</svg>
