<?xml version="1.0" encoding="utf-8"?>
<!-- Generator: Adobe Illustrator 18.1.0, SVG Export Plug-In . SVG Version: 6.00 Build 0)  -->
<!DOCTYPE svg PUBLIC "-//W3C//DTD SVG 1.1//EN" "http://www.w3.org/Graphics/SVG/1.1/DTD/svg11.dtd">
<svg version="1.1" id="Layer_1" xmlns="http://www.w3.org/2000/svg" xmlns:xlink="http://www.w3.org/1999/xlink" x="0px" y="0px"
	 viewBox="0 0 150 150" enable-background="new 0 0 150 150" xml:space="preserve">
<g>
	<g>
		<path fill="#414042" d="M98.8,128.7h-48c-1.8,0-3.4-1.1-4-2.7l-6.9-16.6l-14.1,0c-1.6,0-3.1-0.9-3.8-2.3
			C17.4,98.8,15,89.3,15,79.8c0-32.2,26.9-58.4,60-58.4s60,26.2,60,58.4c0,9.5-2.4,19-7,27.4c-0.8,1.4-2.2,2.3-3.8,2.3h-13.6
			l-7.7,16.6C102.1,127.7,100.6,128.7,98.8,128.7z M53.8,119.9H96l7.7-16.6c0.7-1.5,2.3-2.5,4-2.5h13.7c3.1-6.5,4.8-13.7,4.8-20.9
			c0-27.4-23-49.6-51.3-49.6S23.7,52.5,23.7,79.8c0,7.2,1.6,14.3,4.7,20.8l14.3,0c1.8,0,3.4,1.1,4,2.7L53.8,119.9z"/>
	</g>
	<g>
		<path fill="#414042" d="M85.3,67.7L73.4,86.9c-0.8,0-1.6,0.1-2.4,0.3c-5.3,1.2-9.2,5.9-9.2,11.6c0,6.6,5.3,11.9,11.9,11.9
			s11.9-5.3,11.9-11.9c0-3.3-1.3-6.2-3.4-8.3l5.4-21.8C87.9,67.2,86,66.4,85.3,67.7z"/>
	</g>
	<g>
		<line fill="#414042" x1="36.6" y1="64.6" x2="44.5" y2="72.2"/>
		<path fill="#414042" d="M44.5,75.4c-0.8,0-1.6-0.3-2.2-0.9l-7.8-7.5c-1.3-1.2-1.3-3.2-0.1-4.5c1.2-1.3,3.2-1.3,4.5-0.1l7.8,7.5
			c1.3,1.2,1.3,3.2,0.1,4.5C46.1,75,45.3,75.4,44.5,75.4z"/>
	</g>
	<g>
		<line fill="#414042" x1="52.2" y1="46.7" x2="56.2" y2="56.8"/>
		<path fill="#414042" d="M56.2,60c-1.3,0-2.5-0.8-3-2l-4-10.1c-0.6-1.6,0.1-3.5,1.8-4.1c1.6-0.7,3.5,0.1,4.1,1.8l4,10.1
			c0.6,1.6-0.1,3.5-1.8,4.1C57,59.9,56.6,60,56.2,60z"/>
	</g>
	<g>
		<line fill="#414042" x1="74.7" y1="40.6" x2="74.7" y2="51.4"/>
		<path fill="#414042" d="M74.7,54.6c-1.8,0-3.2-1.4-3.2-3.2V40.6c0-1.8,1.4-3.2,3.2-3.2c1.8,0,3.2,1.4,3.2,3.2v10.9
			C77.9,53.2,76.5,54.6,74.7,54.6z"/>
	</g>
	<g>
		<line fill="#414042" x1="98" y1="48.1" x2="93.1" y2="57.8"/>
		<path fill="#414042" d="M93.1,60.9c-0.5,0-1-0.1-1.4-0.4c-1.6-0.8-2.2-2.7-1.4-4.3l5-9.7c0.8-1.6,2.7-2.2,4.3-1.4
			c1.6,0.8,2.2,2.7,1.4,4.3l-5,9.7C95.3,60.3,94.2,60.9,93.1,60.9z"/>
	</g>
	<g>
		<line fill="#414042" x1="113.6" y1="66.8" x2="105.1" y2="73.6"/>
		<path fill="#414042" d="M105.1,76.8c-0.9,0-1.9-0.4-2.5-1.2c-1.1-1.4-0.9-3.4,0.5-4.5l8.5-6.7c1.4-1.1,3.4-0.9,4.5,0.5
			c1.1,1.4,0.9,3.4-0.5,4.5l-8.5,6.7C106.4,76.5,105.7,76.8,105.1,76.8z"/>
	</g>
</g>
</svg>
