<?xml version="1.0" encoding="utf-8"?>
<!-- Generator: Adobe Illustrator 17.0.0, SVG Export Plug-In . SVG Version: 6.00 Build 0)  -->
<!DOCTYPE svg PUBLIC "-//W3C//DTD SVG 1.1//EN" "http://www.w3.org/Graphics/SVG/1.1/DTD/svg11.dtd">
<svg version="1.1" id="Layer_1" xmlns="http://www.w3.org/2000/svg" xmlns:xlink="http://www.w3.org/1999/xlink" x="0px" y="0px"
	 width="150px" height="150px" viewBox="0 0 150 150" enable-background="new 0 0 150 150" xml:space="preserve">
<path fill-rule="evenodd" clip-rule="evenodd" d="M127.286,136H22.714c-4.813,0-8.714-3.901-8.714-8.714v-91.5
	c0-4.813,3.901-8.714,8.714-8.714h8.714v4.357c0,7.218,5.853,13.071,13.071,13.071s13.071-5.853,13.071-13.071v-4.357h34.857v4.357
	c0,7.218,5.851,13.071,13.071,13.071c7.218,0,13.071-5.853,13.071-13.071v-4.357h8.714c4.813,0,8.714,3.901,8.714,8.714v91.5
	C136,132.099,132.099,136,127.286,136z M127.286,57.571H22.714v69.714h104.571V57.571z M62.23,91.684
	c0.861-1.371,1.289-2.812,1.289-4.328c0-3.37-1.812-5.054-5.437-5.054c-3.148,0-6.162,1.251-9.037,3.753v-7.097
	c3.183-2.061,6.774-3.09,10.773-3.09c3.745,0,6.668,0.94,8.771,2.821c2.102,1.881,3.153,4.421,3.153,7.621
	c0,4.272-2.562,8.687-7.685,13.249l-7.532,6.688v0.154h14.86v6.688h-24.1v-6.28l10.492-10.034
	C59.886,94.752,61.371,93.053,62.23,91.684z M91.719,106.223c1.147-0.884,1.723-2.119,1.723-3.702c0-1.634-0.712-2.894-2.133-3.778
	c-1.42-0.886-3.373-1.327-5.859-1.327h-3.293v-6.178h3.039c4.766,0,7.148-1.583,7.148-4.749c0-2.979-1.83-4.468-5.49-4.468
	c-2.449,0-4.833,0.792-7.148,2.375v-6.587c2.571-1.294,5.566-1.941,8.987-1.941c3.745,0,6.659,0.842,8.743,2.527
	c2.086,1.685,3.128,3.872,3.128,6.561c0,4.784-2.425,7.779-7.276,8.987v0.127c2.587,0.325,4.629,1.265,6.127,2.821
	c1.498,1.558,2.248,3.469,2.248,5.733c0,3.42-1.251,6.127-3.753,8.117c-2.504,1.992-5.958,2.988-10.366,2.988
	c-3.778,0-6.85-0.614-9.215-1.839v-7.02c2.451,1.786,5.31,2.681,8.578,2.681C88.965,107.551,90.57,107.109,91.719,106.223z
	 M105.364,40.143c-4.738,0-8.578-3.842-8.578-8.578v-8.987c0-4.738,3.84-8.578,8.578-8.578c4.737,0,8.578,3.84,8.578,8.578v8.987
	C113.942,36.301,110.1,40.143,105.364,40.143z M44.364,40.143c-4.738,0-8.578-3.842-8.578-8.578v-8.987
	c0-4.738,3.84-8.578,8.578-8.578c4.737,0,8.578,3.84,8.578,8.578v8.987C52.942,36.301,49.1,40.143,44.364,40.143z"/>
</svg>
