<?xml version="1.0" encoding="utf-8"?>
<!-- Generator: Adobe Illustrator 17.0.0, SVG Export Plug-In . SVG Version: 6.00 Build 0)  -->
<!DOCTYPE svg PUBLIC "-//W3C//DTD SVG 1.1//EN" "http://www.w3.org/Graphics/SVG/1.1/DTD/svg11.dtd">
<svg version="1.1" id="Layer_1" xmlns="http://www.w3.org/2000/svg" xmlns:xlink="http://www.w3.org/1999/xlink" x="0px" y="0px"
	 width="150px" height="150px" viewBox="0 0 150 150" enable-background="new 0 0 150 150" xml:space="preserve">
<g>
	<g>
		<g>
			<path fill-rule="evenodd" clip-rule="evenodd" d="M50.666,25.434h21.999v21.787H50.666V25.434z"/>
			<path fill-rule="evenodd" clip-rule="evenodd" d="M57.999,47.221h7.334v36.318h-7.334V47.221z"/>
			<path fill-rule="evenodd" clip-rule="evenodd" d="M50.666,83.539h21.999v18.157H50.666V83.539z"/>
			<path fill-rule="evenodd" clip-rule="evenodd" d="M21.333,58.116h80.665v7.267H21.333V58.116z"/>
			<path fill-rule="evenodd" clip-rule="evenodd" d="M94.665,65.382h7.333v18.156h-7.333V65.382z"/>
			<path fill-rule="evenodd" clip-rule="evenodd" d="M21.333,65.382h7.334v18.156h-7.334V65.382z"/>
			<path fill-rule="evenodd" clip-rule="evenodd" d="M14,83.539h21.999v18.157H14V83.539z"/>
		</g>
		<path fill-rule="evenodd" clip-rule="evenodd" d="M133.098,110.189h-1.916c-0.312,1.128-0.76,2.196-1.331,3.188l1.771,1.771
			c1.134,1.133,1.134,2.972,0,4.105l-1.025,1.027c-1.133,1.133-2.972,1.133-4.105,0l-1.783-1.783
			c-0.988,0.563-2.054,1.001-3.176,1.307v1.859c0,1.603-1.3,2.902-2.902,2.902h-1.452c-1.603,0-2.902-1.299-2.902-2.902v-1.859
			c-1.123-0.306-2.188-0.745-3.177-1.307l-1.782,1.783c-1.134,1.133-2.972,1.133-4.105,0l-1.027-1.027
			c-1.133-1.133-1.133-2.972,0-4.105l1.771-1.771c-0.571-0.992-1.017-2.06-1.329-3.188h-1.916c-1.603,0-2.902-1.299-2.902-2.902
			v-1.452c0-1.603,1.299-2.902,2.902-2.902h1.893c0.3-1.117,0.73-2.18,1.284-3.166l-1.703-1.703c-1.133-1.133-1.133-2.972,0-4.105
			l1.027-1.025c1.133-1.134,2.971-1.134,4.105,0l1.669,1.669c1.021-0.594,2.124-1.058,3.29-1.376v-1.95
			c0-1.603,1.299-2.902,2.902-2.902h1.452c1.602,0,2.902,1.299,2.902,2.902v1.95c1.166,0.318,2.268,0.782,3.29,1.376l1.669-1.669
			c1.133-1.134,2.972-1.134,4.105,0l1.025,1.025c1.134,1.133,1.134,2.972,0,4.105l-1.702,1.703c0.554,0.986,0.984,2.049,1.284,3.166
			h1.893c1.603,0,2.902,1.299,2.902,2.902v1.452C136,108.89,134.701,110.189,133.098,110.189z M117.904,98.624
			c-4.409,0-7.982,3.574-7.982,7.982c0,4.409,3.573,7.982,7.982,7.982c4.408,0,7.982-3.573,7.982-7.982
			C125.886,102.198,122.312,98.624,117.904,98.624z M117.904,110.144c-2.004,0-3.628-1.625-3.628-3.628
			c0-2.003,1.624-3.628,3.628-3.628c2.003,0,3.628,1.625,3.628,3.628C121.532,108.519,119.907,110.144,117.904,110.144z"/>
		<path fill-rule="evenodd" clip-rule="evenodd" d="M102.343,100.16l-0.126-0.128c-1.074-1.073-1.667-2.5-1.666-4.022
			c0-1.52,0.591-2.948,1.667-4.022l1.027-1.025c1.07-1.073,2.499-1.666,4.019-1.666c0.72,0,1.417,0.142,2.068,0.397v-6.156h-22
			v18.157h11.515C99.779,100.824,100.99,100.246,102.343,100.16z"/>
	</g>
</g>
</svg>
