<?xml version="1.0" encoding="utf-8"?>
<!-- Generator: Adobe Illustrator 18.1.0, SVG Export Plug-In . SVG Version: 6.00 Build 0)  -->
<!DOCTYPE svg PUBLIC "-//W3C//DTD SVG 1.1//EN" "http://www.w3.org/Graphics/SVG/1.1/DTD/svg11.dtd">
<svg version="1.1" id="Layer_1" xmlns="http://www.w3.org/2000/svg" xmlns:xlink="http://www.w3.org/1999/xlink" x="0px" y="0px"
	 viewBox="0 0 150 150" enable-background="new 0 0 150 150" xml:space="preserve">
<g>
	<path fill="#414042" d="M23.6,98.8l3.8,33.5h101.1l3.8-33.5H23.6z M96.9,113.1H58.9v-5.8h38.1V113.1z"/>
	<g>
		<polygon fill="#414042" points="118.6,90.2 128.1,90.2 120.2,19.2 33.2,19.2 25.3,90.3 34.8,90.3 41.7,28.7 111.7,28.7 		"/>
	</g>
	<path fill="none" stroke="#414042" stroke-width="8.4932" stroke-miterlimit="10" d="M50.3,41.8c0.6,0,52.8,0,52.8,0"/>
	<path fill="none" stroke="#414042" stroke-width="8.4932" stroke-miterlimit="10" d="M49.4,56c0.6,0,54.6,0,54.6,0"/>
	<path fill="none" stroke="#414042" stroke-width="8.4932" stroke-miterlimit="10" d="M48.2,70.2c0.7,0,57,0,57,0"/>
	<path fill="none" stroke="#414042" stroke-width="8.4932" stroke-miterlimit="10" d="M47.1,84.4c0.7,0,59.1,0,59.1,0"/>
</g>
</svg>
