<?xml version="1.0" encoding="utf-8"?>
<!-- Generator: Adobe Illustrator 17.0.0, SVG Export Plug-In . SVG Version: 6.00 Build 0)  -->
<!DOCTYPE svg PUBLIC "-//W3C//DTD SVG 1.1//EN" "http://www.w3.org/Graphics/SVG/1.1/DTD/svg11.dtd">
<svg version="1.1" id="Layer_1" xmlns="http://www.w3.org/2000/svg" xmlns:xlink="http://www.w3.org/1999/xlink" x="0px" y="0px"
	 width="150px" height="150px" viewBox="0 0 150 150" enable-background="new 0 0 150 150" xml:space="preserve">
<g>
	<g>
		<g>
			<g>
				<path fill-rule="evenodd" clip-rule="evenodd" d="M132.253,106.841h-2.474c-0.403,1.456-0.979,2.835-1.718,4.115l2.287,2.287
					c1.465,1.463,1.465,3.837,0,5.3l-1.324,1.325c-1.463,1.463-3.837,1.463-5.3,0l-2.302-2.302c-1.276,0.726-2.652,1.292-4.1,1.688
					v2.4c0,2.07-1.679,3.747-3.747,3.747h-1.875c-2.07,0-3.747-1.677-3.747-3.747v-2.4c-1.45-0.395-2.824-0.961-4.102-1.688
					l-2.3,2.302c-1.465,1.463-3.837,1.463-5.3,0l-1.325-1.325c-1.463-1.463-1.463-3.837,0-5.3l2.287-2.287
					c-0.737-1.28-1.313-2.66-1.716-4.115h-2.474c-2.07,0-3.747-1.679-3.747-3.747v-1.875c0-2.068,1.677-3.747,3.747-3.747h2.444
					c0.388-1.442,0.942-2.814,1.658-4.087l-2.198-2.198c-1.463-1.463-1.463-3.837,0-5.3l1.325-1.324c1.463-1.465,3.835-1.465,5.3,0
					l2.155,2.155c1.318-0.767,2.742-1.366,4.247-1.776v-2.517c0-2.07,1.677-3.747,3.747-3.747h1.875
					c2.068,0,3.747,1.677,3.747,3.747v2.517c1.505,0.41,2.928,1.009,4.247,1.776l2.155-2.155c1.463-1.465,3.837-1.465,5.3,0
					l1.324,1.324c1.465,1.463,1.465,3.837,0,5.3l-2.197,2.198c0.716,1.273,1.27,2.645,1.658,4.087h2.444
					c2.07,0,3.747,1.679,3.747,3.747v1.875C136,105.163,134.323,106.841,132.253,106.841z M112.639,91.911
					c-5.692,0-10.304,4.614-10.304,10.304s4.612,10.304,10.304,10.304c5.69,0,10.304-4.614,10.304-10.304
					S118.33,91.911,112.639,91.911z M112.639,106.783c-2.588,0-4.684-2.098-4.684-4.684s2.096-4.684,4.684-4.684
					c2.586,0,4.684,2.098,4.684,4.684S115.225,106.783,112.639,106.783z"/>
			</g>
		</g>
		<g>
			<g>
				<path d="M34.643,24.599v55.075h20.643V96.88h10.322V79.674h20.643V24.599H34.643z M75.929,69.327H44.965v-6.882h30.964V69.327z
					 M75.929,55.562H44.965v-6.88h30.964V55.562z M75.929,41.8H44.965v-6.88h30.964V41.8z"/>
			</g>
		</g>
		<g>
			<path fill-rule="evenodd" clip-rule="evenodd" d="M85.837,103.096v-1.876c0-1.638,0.572-3.131,1.497-4.341H14v10.321h73.14
				C86.324,106.035,85.837,104.624,85.837,103.096z"/>
		</g>
	</g>
</g>
</svg>
