<?xml version="1.0" encoding="utf-8"?>
<!-- Generator: Adobe Illustrator 17.0.0, SVG Export Plug-In . SVG Version: 6.00 Build 0)  -->
<!DOCTYPE svg PUBLIC "-//W3C//DTD SVG 1.1//EN" "http://www.w3.org/Graphics/SVG/1.1/DTD/svg11.dtd">
<svg version="1.1" id="Layer_1" xmlns="http://www.w3.org/2000/svg" xmlns:xlink="http://www.w3.org/1999/xlink" x="0px" y="0px"
	 width="150px" height="150px" viewBox="0 0 150 150" enable-background="new 0 0 150 150" xml:space="preserve">
<path fill-rule="evenodd" clip-rule="evenodd" d="M115.88,124.218c-11.111,0-20.119-9.006-20.119-20.12
	c0-11.11,9.008-20.118,20.119-20.118c11.112,0,20.12,9.008,20.12,20.118C136,115.212,126.992,124.218,115.88,124.218z
	 M123.56,119.776c3.03-1.543,5.546-3.948,7.226-6.894l-5.404-4.241c-1.023,2.135-2.745,3.874-4.869,4.915L123.56,119.776z
	 M107.963,119.85l3.681-6.107c-2.342-1.033-4.238-2.89-5.316-5.207l-5.801,4.243C102.235,115.818,104.83,118.294,107.963,119.85z
	 M108.32,88.543c-3.531,1.656-6.414,4.465-8.162,7.942l5.819,4.03c0.96-2.651,2.954-4.809,5.495-5.981L108.32,88.543z
	 M108.178,104.098c0,4.255,3.447,7.703,7.701,7.703s7.701-3.447,7.701-7.703c0-4.252-3.447-7.701-7.701-7.701
	S108.178,99.846,108.178,104.098z M123.165,88.596l-2.943,5.907c2.582,1.17,4.609,3.35,5.573,6.038l5.373-4.153
	C129.432,92.992,126.612,90.242,123.165,88.596z M109.441,97.38c-0.678,0.65-1.232,1.411-1.69,2.239
	C108.39,98.861,108.954,98.112,109.441,97.38z M91.527,104.098c0-12.136,8.89-22.171,20.508-24.019
	c-3.088-14.692-14.517-12.197-14.517-12.197l-0.525-4.538c10.51-0.534,12.349-6.939,12.349-6.939
	c-5.387-1.199-6.437-6.805-6.437-6.805c0.918-26.548-15.109-23.479-15.109-23.479c-12.349,1.467-12.742,19.879-12.742,19.879
	c-0.623,4.193-2.293,6.726-3.993,8.253c0.014,2.073-1.509,3.82-2.232,4.537c6.596,6.071,8.852,4.69,8.852,4.69v4.003
	c-3.397,0.087-9.262,0.773-11.276,1.798c2.246,1.89,2.269,3.785,4.453,5.346c3.03,2.164,9.409,4.797,9.409,4.797
	c5.959,1.929,8.72,10.832,9.504,15.258h-7.701c-0.535-4.984-0.701-9.416-3.812-10.418c0,0-18.723-7.064-19.883-14.466
	c0,0,1.656-4.205,1.821-7.398c0,0,5.631-4.71,1.822-9.252c0,0-0.827-4.371,0-6.387c0,0,4.47-12.445-15.234-18.163
	c0,0-10.1-8.574-12.751,4.205c0,0-0.661,10.762-1.987,12.61c0,0-1.821,6.559,3.643,16.988c0,0,2.981,8.239,0.663,9.25
	c0,0-2.993,7.398-7.795,7.567c0,0-17.577-1.299-14.1,19.217c0,0,13.873,15.91,46.224,15.91c13.893,0,24.055-1.872,31.53-4.606
	C91.779,107.924,91.527,106.042,91.527,104.098z"/>
</svg>
