<?xml version="1.0" encoding="utf-8"?>
<!-- Generator: Adobe Illustrator 17.0.0, SVG Export Plug-In . SVG Version: 6.00 Build 0)  -->
<!DOCTYPE svg PUBLIC "-//W3C//DTD SVG 1.1//EN" "http://www.w3.org/Graphics/SVG/1.1/DTD/svg11.dtd">
<svg version="1.1" id="Layer_1" xmlns="http://www.w3.org/2000/svg" xmlns:xlink="http://www.w3.org/1999/xlink" x="0px" y="0px"
	 width="150px" height="150px" viewBox="0 0 150 150" enable-background="new 0 0 150 150" xml:space="preserve">
<path fill="#050505" d="M121.276,136H28.724c-4.647,0-8.414-3.767-8.414-8.414V35.034c0-4.647,3.767-8.414,8.414-8.414h8.414v4.209
	c0,6.969,5.65,12.619,12.621,12.619c6.969,0,12.621-5.65,12.621-12.619V26.62h25.241v4.209c0,6.969,5.651,12.619,12.621,12.619
	c6.969,0,12.621-5.65,12.621-12.619V26.62h8.414c4.647,0,8.414,3.767,8.414,8.414v92.552C129.69,132.233,125.923,136,121.276,136z
	 M121.276,56.069H28.724v71.517h92.552V56.069z M49.759,77.103H37.138v-12.62h12.621C49.759,64.483,49.759,77.103,49.759,77.103z
	 M49.759,98.138H37.138V85.517h12.621C49.759,85.517,49.759,98.138,49.759,98.138z M49.759,119.172H37.138v-12.621h12.621
	C49.759,106.551,49.759,119.172,49.759,119.172z M70.793,77.103H58.172v-12.62h12.621V77.103z M70.793,98.138H58.172V85.517h12.621
	V98.138z M70.793,119.172H58.172v-12.621h12.621V119.172z M91.828,77.103H79.207v-12.62h12.621V77.103z M91.828,98.138H79.207
	V85.517h12.621V98.138z M91.828,119.172H79.207v-12.621h12.621V119.172z M112.862,77.103h-12.621v-12.62h12.621V77.103z
	 M112.862,98.138h-12.621V85.517h12.621V98.138z M112.862,119.172h-12.621v-12.621h12.621V119.172z M100.11,39.243
	c-4.575,0-8.282-3.709-8.282-8.284v-8.677c0-4.573,3.707-8.282,8.282-8.282c4.573,0,8.282,3.709,8.282,8.282v8.677
	C108.392,35.534,104.683,39.243,100.11,39.243z M49.627,39.243c-4.575,0-8.282-3.709-8.282-8.284v-8.677
	c0-4.573,3.707-8.282,8.282-8.282s8.282,3.709,8.282,8.282v8.677C57.909,35.534,54.202,39.243,49.627,39.243z"/>
</svg>
