<?xml version="1.0" encoding="utf-8"?>
<!-- Generator: Adobe Illustrator 17.0.0, SVG Export Plug-In . SVG Version: 6.00 Build 0)  -->
<!DOCTYPE svg PUBLIC "-//W3C//DTD SVG 1.1//EN" "http://www.w3.org/Graphics/SVG/1.1/DTD/svg11.dtd">
<svg version="1.1" id="Layer_1" xmlns="http://www.w3.org/2000/svg" xmlns:xlink="http://www.w3.org/1999/xlink" x="0px" y="0px"
	 width="150px" height="150px" viewBox="0 0 150 150" enable-background="new 0 0 150 150" xml:space="preserve">
<path d="M120.72,94.095c-10.929,2.362-33.395,28.92-40.68,41.905c-10.322-12.395-22.464-21.838-30.965-24.788l20.036-11.805
	l9.715,18.296c0,0,15.786-37.181,40.678-49.576C118.899,76.98,116.47,84.652,120.72,94.095z M104.931,36.625
	c0-2.083-1.688-3.771-3.771-3.771H86.077v-7.541h18.618c4.165,0,7.777,3.375,7.777,7.541v35.922
	c-4.285,1.72-7.541,5.313-7.541,5.313S104.931,36.625,104.931,36.625z M93.618,36.625c2.083,0,3.771,1.687,3.771,3.77
	s0,7.542,0,7.542H44.363c0,0,0-5.46,0-7.542c0-2.083,1.687-3.77,3.77-3.77h11.313c0,0,0.046-4.813,0.046-10.94
	C59.491,19.322,64.395,14,70.757,14s11.676,5.594,11.676,11.722c0,6.599-0.128,10.903-0.128,10.903H93.618z M70.757,25.313
	c-2.083,0-3.771,1.688-3.771,3.771c0,2.081,1.688,3.77,3.771,3.77s3.771-1.688,3.771-3.77C74.529,27.002,72.84,25.313,70.757,25.313
	z M36.821,36.625v86.963c0,2.083,1.688,3.771,3.771,3.771H62.98c4.088,2.177,6.724,5.053,8.2,7.541H36.821
	c-4.165,0-7.541-3.375-7.541-7.541V32.854c0-4.165,3.375-7.541,7.541-7.541h19.09v7.541H40.592
	C38.509,32.854,36.821,34.542,36.821,36.625z M101.16,127.359c2.083,0,3.771-1.688,3.771-3.771v-12.496
	c2.513-2.551,5.043-4.872,7.541-6.923v23.19c0,4.165-3.612,7.541-7.777,7.541h-19.2c1.647-2.47,3.435-4.999,5.338-7.541
	C90.833,127.359,101.16,127.359,101.16,127.359z"/>
</svg>
