<?xml version="1.0" encoding="utf-8"?>
<!-- Generator: Adobe Illustrator 17.0.0, SVG Export Plug-In . SVG Version: 6.00 Build 0)  -->
<!DOCTYPE svg PUBLIC "-//W3C//DTD SVG 1.1//EN" "http://www.w3.org/Graphics/SVG/1.1/DTD/svg11.dtd">
<svg version="1.1" id="Layer_1" xmlns="http://www.w3.org/2000/svg" xmlns:xlink="http://www.w3.org/1999/xlink" x="0px" y="0px"
	 width="150px" height="150px" viewBox="0 0 150 150" enable-background="new 0 0 150 150" xml:space="preserve">
<path d="M123.971,14H55.317v14.714H40.622v14.523H26.029V136h68.654v-14.523h14.592v-14.714h14.695V14z M89.785,131.102H30.928
	V48.136h58.857V131.102z M104.377,116.579h-9.694V43.237H45.52v-9.625h58.857V116.579z M119.072,101.864h-9.797v-73.15h-49.06
	v-9.816h58.857V101.864z M79.782,62.757H40.083v-4.898h39.699V62.757z M79.782,77.471H40.083v-4.898h39.699V77.471z M79.708,92.259
	H40.009v-4.898h39.699V92.259z M79.708,106.973H40.009v-4.898h39.699V106.973z M40.083,116.716h39.699v4.898H40.083V116.716z"/>
</svg>
