<?xml version="1.0" encoding="utf-8"?>
<!-- Generator: Adobe Illustrator 17.0.0, SVG Export Plug-In . SVG Version: 6.00 Build 0)  -->
<!DOCTYPE svg PUBLIC "-//W3C//DTD SVG 1.1//EN" "http://www.w3.org/Graphics/SVG/1.1/DTD/svg11.dtd">
<svg version="1.1" id="Layer_1" xmlns="http://www.w3.org/2000/svg" xmlns:xlink="http://www.w3.org/1999/xlink" x="0px" y="0px"
	 width="150px" height="150px" viewBox="0 0 150 150" enable-background="new 0 0 150 150" xml:space="preserve">
<path fill-rule="evenodd" clip-rule="evenodd" d="M84.82,84.278c0-2.182,0.849-4.229,2.391-5.772l1.484-1.482
	c1.538-1.536,3.586-2.387,5.767-2.387c1.42,0,2.769,0.394,3.974,1.072l6.197-5.77c2.488-0.365,1.802-45.167,1.802-45.167
	s-41.265-1.379-44.157,1.515l-45.82,41.455c-5.073,3.302-1.342,8.744,2.67,13.348l28.654,31.839c2.948,2.947,7.729,2.947,10.677,0
	l27.126-25.256C85.097,86.62,84.82,85.474,84.82,84.278z M84.887,34.178c3.079-3.077,8.07-3.077,11.149,0
	c3.079,3.079,3.079,8.068,0,11.147c-3.079,3.079-8.07,3.079-11.149,0C81.809,42.246,81.809,37.257,84.887,34.178z M131.805,104.772
	h-2.77c-0.451,1.63-1.097,3.174-1.923,4.608l2.561,2.561c1.64,1.638,1.64,4.296,0,5.934l-1.482,1.484
	c-1.638,1.638-4.296,1.638-5.934,0l-2.577-2.577c-1.429,0.813-2.97,1.447-4.591,1.89v2.688c0,2.317-1.88,4.195-4.195,4.195h-2.099
	c-2.317,0-4.195-1.878-4.195-4.195v-2.688c-1.623-0.443-3.163-1.077-4.593-1.89l-2.576,2.577c-1.64,1.638-4.296,1.638-5.934,0
	l-1.484-1.484c-1.638-1.638-1.638-4.296,0-5.934l2.561-2.561c-0.825-1.434-1.471-2.978-1.922-4.608h-2.77
	c-2.317,0-4.195-1.878-4.195-4.195v-2.099c0-2.317,1.878-4.195,4.195-4.195h2.737c0.434-1.615,1.055-3.151,1.856-4.576l-2.462-2.462
	c-1.638-1.638-1.638-4.296,0-5.934l1.484-1.482c1.638-1.64,4.294-1.64,5.934,0l2.413,2.413c1.476-0.859,3.07-1.529,4.756-1.989
	v-2.819c0-2.317,1.878-4.195,4.195-4.195h2.099c2.316,0,4.195,1.878,4.195,4.195v2.819c1.685,0.459,3.278,1.13,4.756,1.989
	l2.413-2.413c1.638-1.64,4.296-1.64,5.934,0l1.482,1.482c1.64,1.638,1.64,4.296,0,5.934l-2.46,2.462
	c0.802,1.425,1.422,2.961,1.856,4.576h2.737c2.317,0,4.195,1.878,4.195,4.195v2.099C136,102.894,134.122,104.772,131.805,104.772z
	 M109.841,88.054c-6.374,0-11.538,5.166-11.538,11.538c0,6.374,5.165,11.538,11.538,11.538c6.372,0,11.538-5.165,11.538-11.538
	C121.38,93.22,116.213,88.054,109.841,88.054z M109.841,104.707c-2.898,0-5.245-2.349-5.245-5.245s2.348-5.245,5.245-5.245
	c2.896,0,5.245,2.349,5.245,5.245S112.737,104.707,109.841,104.707z"/>
</svg>
