<?xml version="1.0" encoding="utf-8"?>
<!-- Generator: Adobe Illustrator 17.0.0, SVG Export Plug-In . SVG Version: 6.00 Build 0)  -->
<!DOCTYPE svg PUBLIC "-//W3C//DTD SVG 1.1//EN" "http://www.w3.org/Graphics/SVG/1.1/DTD/svg11.dtd">
<svg version="1.1" id="Layer_1" xmlns="http://www.w3.org/2000/svg" xmlns:xlink="http://www.w3.org/1999/xlink" x="0px" y="0px"
	 width="150px" height="150px" viewBox="0 0 150 150" enable-background="new 0 0 150 150" xml:space="preserve">
<path d="M65.032,74.661L14.387,32.064h101.289L65.032,74.661z M95.552,80.409h3.135V65.972l17.242,15.231V35.704L82.097,64.358
	L95.552,80.409z M14,35.704v69.015l33.832-40.361L14,35.704z M98.687,97.194H85.583V80.409h6.144L79.874,66.275L65.02,78.829
	L50.189,66.655l-32.272,38.102h80.771V97.194z M89.195,93.583h13.102v9.084l15.408-15.077l-15.408-13.61v10.039H89.195V93.583z
	 M136,108.851h-13.102v9.085l-15.276-15.077l15.276-13.61v10.042H136V108.851z"/>
</svg>
