<?xml version="1.0" encoding="utf-8"?>
<!-- Generator: Adobe Illustrator 17.0.0, SVG Export Plug-In . SVG Version: 6.00 Build 0)  -->
<!DOCTYPE svg PUBLIC "-//W3C//DTD SVG 1.1//EN" "http://www.w3.org/Graphics/SVG/1.1/DTD/svg11.dtd">
<svg version="1.1" id="Layer_1" xmlns="http://www.w3.org/2000/svg" xmlns:xlink="http://www.w3.org/1999/xlink" x="0px" y="0px"
	 width="150px" height="150px" viewBox="0 0 150 150" enable-background="new 0 0 150 150" xml:space="preserve">
<path d="M70.083,62.325h31.067v3.453H70.083V62.325z M70.083,72.681h31.067v-3.452H70.083V72.681z M70.083,58.873h31.067v-3.452
	H70.083V58.873z M70.083,89.942H89.57l0.54-0.528c1.155-1.128,2.427-2.094,3.775-2.924H70.083V89.942z M70.083,83.036h31.067v-3.452
	H70.083V83.036z M70.083,41.612h31.067v-3.451H70.083V41.612z M70.083,34.71h31.067v-3.453H70.083V34.71z M70.083,93.392v3.452
	h14.38c0.562-1.207,1.24-2.361,2.034-3.452H70.083z M70.083,48.519h31.067v-3.453H70.083V48.519z M101.15,96.692
	c-0.101,0.044-0.193,0.105-0.292,0.152h0.292V96.692z M63.179,38.162H32.112v3.451h31.067V38.162z M63.179,55.421H32.112v3.452
	h31.067V55.421z M63.179,69.229H32.112v3.452h31.067V69.229z M63.179,62.325H32.112v3.453h31.067V62.325z M63.179,45.066H32.112
	v3.453h31.067V45.066z M63.179,31.257H32.112v3.453h31.067V31.257z M83.163,110.652H25.208c-1.906,0-3.452-1.545-3.452-3.452V24.354
	c0-1.907,1.546-3.452,3.452-3.452h82.846c1.906,0,3.452,1.545,3.452,3.452v59.809c2.494,0.737,4.822,1.934,6.904,3.518v-66.78
	c0-3.813-3.091-6.902-6.904-6.902H21.756c-3.813,0-6.904,3.089-6.904,6.902v89.749c0,3.813,3.091,6.902,6.904,6.902H86.33
	C84.845,115.455,83.784,113.122,83.163,110.652z M63.179,79.585H32.112v3.452h31.067V79.585z M63.179,86.49H32.112v3.452h31.067
	V86.49z M32.112,96.844h31.067v-3.452H32.112V96.844z M95.712,96.237c-5.284,5.161-5.284,13.528,0,18.689s13.851,5.161,19.135,0
	s5.284-13.528,0-18.689C109.562,91.078,100.996,91.078,95.712,96.237z M134.62,132.991l-2.552,2.492
	c-0.704,0.689-1.847,0.689-2.552,0l-14.289-13.956c-7.004,4.531-16.533,3.786-22.705-2.24l-1.275-1.245
	c-7.046-6.881-7.046-18.038,0-24.918l1.275-1.247c7.046-6.88,18.469-6.88,25.513,0l1.276,1.247
	c6.609,6.453,6.936,16.625,1.147,23.546l14.162,13.83C135.324,131.187,135.324,132.303,134.62,132.991z"/>
</svg>
