<?xml version="1.0" encoding="utf-8"?>
<!-- Generator: Adobe Illustrator 17.0.0, SVG Export Plug-In . SVG Version: 6.00 Build 0)  -->
<!DOCTYPE svg PUBLIC "-//W3C//DTD SVG 1.1//EN" "http://www.w3.org/Graphics/SVG/1.1/DTD/svg11.dtd">
<svg version="1.1" id="Layer_1" xmlns="http://www.w3.org/2000/svg" xmlns:xlink="http://www.w3.org/1999/xlink" x="0px" y="0px"
	 width="150px" height="150px" viewBox="0 0 150 150" enable-background="new 0 0 150 150" xml:space="preserve">
<g>
	<g>
		<g>
			<path d="M112.309,37.222L89.756,14.67c-0.003-0.003-0.007-0.005-0.01-0.008c-0.19-0.188-0.41-0.325-0.643-0.434
				c-0.073-0.034-0.148-0.053-0.225-0.08c-0.191-0.066-0.385-0.105-0.587-0.118C88.238,14.027,88.194,14,88.142,14H33.417
				c-1.26,0-2.28,1.021-2.28,2.28v104.889c0,1.26,1.02,2.28,2.28,2.28h32.167c-1.813-1.364-3.498-2.887-5.028-4.56H35.697V18.56
				h50.164v20.522c0,1.259,1.02,2.28,2.28,2.28h20.522v23.77c1.639,1.272,3.16,2.685,4.56,4.214V39.303
				c0.008-0.076,0.045-0.142,0.045-0.221C113.268,38.314,112.89,37.635,112.309,37.222z M90.422,36.802V21.785l15.017,15.017H90.422
				z"/>
		</g>
		<g>
			<g>
				<path d="M105.227,119.006l-7.837-5.972l-8.378-6.379l-0.004,0.009c-0.213-0.156-0.474-0.241-0.756-0.241
					c-0.747,0-1.349,0.613-1.349,1.373v5.082c0,1.518-1.208,2.748-2.708,2.748c-0.09,0-0.186-0.004-0.277-0.013
					c-0.045-0.005-0.09-0.013-0.132-0.018c-10.32-1.529-18.244-10.559-18.244-21.468c0-4.362,1.268-8.421,3.448-11.818
					c0.023-0.04,0.052-0.083,0.078-0.121c1.552-2.482,0.854-5.774-1.572-7.393c-2.453-1.626-5.74-0.926-7.341,1.565l-0.005-0.005
					c-3.294,5.109-5.21,11.216-5.21,17.774c0,17.036,12.915,31.005,29.342,32.36c0.087,0,0.17,0.009,0.251,0.022
					c1.339,0.166,2.37,1.321,2.37,2.724v5.389c0,0.76,0.602,1.377,1.349,1.377c0.237,0,0.456-0.063,0.644-0.168
					c0.009-0.004,0.013-0.004,0.018-0.007l0.271-0.212l15.88-12.09l0.322-0.251c0.57-0.503,0.924-1.243,0.924-2.064
					c0-0.398-0.078-0.771-0.228-1.107C105.895,119.661,105.598,119.288,105.227,119.006z M89.525,61.771
					c-0.087,0-0.172-0.009-0.251-0.022c-1.337-0.166-2.37-1.321-2.37-2.724v-5.391c0-0.758-0.606-1.375-1.353-1.375
					c-0.232,0-0.45,0.063-0.644,0.168c-0.004,0.004-0.013,0.004-0.013,0.007l-0.277,0.21L68.739,64.739l-0.324,0.248
					c-0.564,0.503-0.924,1.241-0.924,2.068c0,0.394,0.083,0.767,0.228,1.107c0.188,0.436,0.487,0.814,0.863,1.094l7.835,5.972
					l8.374,6.379l0.004-0.009c0.215,0.152,0.476,0.241,0.756,0.241c0.747,0,1.353-0.617,1.353-1.377V75.38
					c0-1.514,1.21-2.748,2.704-2.748c0.09,0,0.186,0.004,0.277,0.013c0.045,0.009,0.09,0.013,0.136,0.022
					c10.319,1.53,18.24,10.554,18.24,21.462c0,4.362-1.266,8.421-3.446,11.824c-0.025,0.042-0.051,0.08-0.08,0.121
					c-1.549,2.482-0.85,5.774,1.577,7.388c2.448,1.628,5.738,0.932,7.337-1.559h0.004c3.294-5.103,5.21-11.211,5.21-17.774
					C118.863,77.095,105.949,63.126,89.525,61.771z"/>
			</g>
		</g>
	</g>
</g>
</svg>
