<?xml version="1.0" encoding="utf-8"?>
<!-- Generator: Adobe Illustrator 18.1.0, SVG Export Plug-In . SVG Version: 6.00 Build 0)  -->
<!DOCTYPE svg PUBLIC "-//W3C//DTD SVG 1.1//EN" "http://www.w3.org/Graphics/SVG/1.1/DTD/svg11.dtd">
<svg version="1.1" id="Layer_1" xmlns="http://www.w3.org/2000/svg" xmlns:xlink="http://www.w3.org/1999/xlink" x="0px" y="0px"
	 viewBox="0 0 150 150" enable-background="new 0 0 150 150" xml:space="preserve">
<g>
	<circle fill="#414042" cx="75" cy="75" r="13.8"/>
	<path fill="#414042" d="M133.4,84.3V66c0-1.3-1.1-2.4-2.4-2.4h-7.7c-1.1,0-2-0.7-2.3-1.8c-1-3.4-2.3-6.6-4-9.6
		c-0.5-1-0.4-2.1,0.4-2.9l5.5-5.5c0.9-0.9,0.9-2.5,0-3.4l-12.9-12.9c-0.9-0.9-2.5-0.9-3.4,0l-5.5,5.5c-0.8,0.8-2,0.9-2.9,0.4
		c-3-1.7-6.2-3-9.6-4c-1.1-0.3-1.8-1.2-1.8-2.3V19c0-1.3-1.1-2.4-2.4-2.4H66c-1.3,0-2.4,1.1-2.4,2.4v7.7c0,1.1-0.7,2-1.8,2.3
		c-3.4,1-6.6,2.3-9.6,4c-1,0.5-2.1,0.4-2.9-0.4l-5.5-5.5c-0.9-0.9-2.5-0.9-3.4,0L27.3,40.1c-0.9,0.9-0.9,2.5,0,3.4l5.5,5.5
		c0.8,0.8,0.9,2,0.4,2.9c-1.7,3-3,6.2-4,9.6c-0.3,1.1-1.2,1.8-2.3,1.8H19c-1.3,0-2.4,1.1-2.4,2.4V84c0,1.3,1.1,2.4,2.4,2.4h7.7
		c1.1,0,2,0.7,2.3,1.8c1,3.4,2.3,6.6,4,9.6c0.5,1,0.4,2.1-0.4,2.9l-5.5,5.5c-0.9,0.9-0.9,2.5,0,3.4l12.9,12.9c0.9,0.9,2.5,0.9,3.4,0
		l5.5-5.5c0.8-0.8,2-0.9,2.9-0.4c3,1.7,6.2,3,9.6,4c1.1,0.3,1.8,1.2,1.8,2.3v7.8c0,1.3,1.1,2.4,2.4,2.4H84c1.3,0,2.4-1.1,2.4-2.4
		v-7.7c0-1.1,0.7-2,1.8-2.3c3.4-1,6.6-2.3,9.6-4c1-0.5,2.1-0.4,2.9,0.4l5.5,5.5c0.9,0.9,2.5,0.9,3.4,0l12.9-12.9
		c0.9-0.9,0.9-2.5,0-3.4l-5.5-5.5c-0.8-0.8-0.9-2-0.4-2.9c1.7-3,3-6.2,4-9.6c0.3-1.1,1.2-1.8,2.3-1.8h7.8
		C132.3,86.7,133.4,85.6,133.4,84.3z M102.5,75c0,15.2-12.3,27.5-27.5,27.5S47.5,90.2,47.5,75S59.8,47.5,75,47.5
		S102.5,59.8,102.5,75z"/>
</g>
</svg>
