<?xml version="1.0" encoding="utf-8"?>
<!-- Generator: Adobe Illustrator 17.0.0, SVG Export Plug-In . SVG Version: 6.00 Build 0)  -->
<!DOCTYPE svg PUBLIC "-//W3C//DTD SVG 1.1//EN" "http://www.w3.org/Graphics/SVG/1.1/DTD/svg11.dtd">
<svg version="1.1" id="Layer_1" xmlns="http://www.w3.org/2000/svg" xmlns:xlink="http://www.w3.org/1999/xlink" x="0px" y="0px"
	 width="150px" height="150px" viewBox="0 0 150 150" enable-background="new 0 0 150 150" xml:space="preserve">
<g>
	<g>
		<path fill="#7A7A7A" d="M115.861,61.573c0.286-1.969,0.441-3.98,0.441-6.028c0-22.944-18.6-41.546-41.544-41.546
			c-22.944,0-41.544,18.602-41.544,41.546c0,2.268,0.188,4.491,0.538,6.66c-2.857,2.914-5.093,6.423-5.084,9.18
			c0,15.69,0,31.385,0,47.077c-0.001,4.583,5.707,11.227,10.421,12.522c24.535,6.687,48.598,6.687,72.189,0
			c4.531-1.295,10.054-7.937,10.055-12.522c0-15.692,0-31.387,0-47.077C121.324,68.348,118.833,64.518,115.861,61.573z
			 M87.682,115.405H63.789l8.008-23.728c-4.666-1.629-8.02-6.053-8.02-11.276c0-6.602,5.352-11.953,11.953-11.953
			c6.601,0,11.953,5.351,11.953,11.953c0,5.217-3.349,9.643-8.01,11.273L87.682,115.405z M106.579,55.706
			c-7.294-4.483-18.613-7.367-31.332-7.367c-12.598,0-23.822,2.828-31.122,7.237c-0.011-0.343-0.026-0.685-0.026-1.03
			c0-17.259,13.993-31.255,31.255-31.255c17.261,0,31.255,13.996,31.255,31.255C106.609,54.935,106.594,55.32,106.579,55.706z"/>
	</g>
</g>
</svg>
