<?xml version="1.0" encoding="utf-8"?>
<!-- Generator: Adobe Illustrator 17.0.0, SVG Export Plug-In . SVG Version: 6.00 Build 0)  -->
<!DOCTYPE svg PUBLIC "-//W3C//DTD SVG 1.1//EN" "http://www.w3.org/Graphics/SVG/1.1/DTD/svg11.dtd">
<svg version="1.1" id="Layer_1" xmlns="http://www.w3.org/2000/svg" xmlns:xlink="http://www.w3.org/1999/xlink" x="0px" y="0px"
	 width="150px" height="150px" viewBox="0 0 150 150" enable-background="new 0 0 150 150" xml:space="preserve">
<path fill-rule="evenodd" clip-rule="evenodd" d="M100.215,104.487c0,0-0.071-29.428,0.044-29.428
	c16.22,0,29.365,13.157,29.365,29.384L100.215,104.487z M123.145,108.706c0,15.075-12.21,27.294-27.278,27.294
	c-15.066,0-27.28-12.219-27.28-27.294c0-15.022,12.129-27.211,27.124-27.292c0.053,0,0.156,0,0.156,0l-0.03,27.283
	C95.836,108.698,116.205,108.706,123.145,108.706z M66.349,119.096H24.944V18.569h50.263v20.562c0,1.263,1.023,2.285,2.285,2.285
	h20.562v30.123l0.526-0.528h1.679c0.798,0,1.58,0.064,2.364,0.12V39.358c0.008-0.078,0.046-0.146,0.046-0.226
	c0-0.77-0.38-1.45-0.964-1.865L79.109,14.671c-0.003-0.003-0.008-0.005-0.012-0.009c-0.191-0.188-0.412-0.327-0.647-0.436
	c-0.068-0.032-0.139-0.05-0.211-0.075c-0.2-0.07-0.404-0.111-0.615-0.124C77.578,14.024,77.539,14,77.492,14H22.66
	c-1.262,0-2.285,1.022-2.285,2.285V121.38c0,1.263,1.023,2.285,2.285,2.285h45.688C67.556,122.212,66.906,120.675,66.349,119.096z
	 M79.777,21.8l15.047,15.047H79.777V21.8z"/>
</svg>
