<?xml version="1.0" encoding="utf-8"?>
<!-- Generator: Adobe Illustrator 17.0.0, SVG Export Plug-In . SVG Version: 6.00 Build 0)  -->
<!DOCTYPE svg PUBLIC "-//W3C//DTD SVG 1.1//EN" "http://www.w3.org/Graphics/SVG/1.1/DTD/svg11.dtd">
<svg version="1.1" id="Layer_1" xmlns="http://www.w3.org/2000/svg" xmlns:xlink="http://www.w3.org/1999/xlink" x="0px" y="0px"
	 width="150px" height="150px" viewBox="0 0 150 150" enable-background="new 0 0 150 150" xml:space="preserve">
<g>
	<g>
		<g>
			<g>
				<path d="M103.241,25.871C95.37,17.958,85.94,14,74.962,14c-10.932,0-20.331,3.958-28.202,11.871S34.952,43.267,34.952,54.314
					c0,9.997,4.406,19.999,13.228,30.004l2.921,3.297c6.763,7.746,11.795,14.945,15.096,21.595c3.297,6.646,6.22,15.577,8.766,26.79
					c2.597-11.214,5.545-20.145,8.847-26.79c3.297-6.65,8.328-13.849,15.091-21.595l2.923-3.297
					c8.815-10.005,13.226-20.007,13.226-30.004C115.048,43.267,111.112,33.784,103.241,25.871z M75.384,85.007
					c-16.797,0-30.413-13.855-30.413-30.952c0-17.095,13.617-30.95,30.413-30.95c16.797,0,30.412,13.855,30.412,30.95
					C105.796,71.151,92.181,85.007,75.384,85.007z"/>
			</g>
		</g>
		<g>
			<g>
				<path fill-rule="evenodd" clip-rule="evenodd" d="M79.326,62.364c-0.215-0.329-0.385-0.732-0.513-1.212
					c-0.126-0.479-0.189-0.95-0.189-1.413c0-0.673,0.087-1.274,0.264-1.803c0.175-0.528,0.434-1.028,0.775-1.499
					c0.343-0.471,0.772-0.947,1.29-1.429c0.518-0.481,1.119-0.999,1.803-1.557c1.015-0.826,1.913-1.63,2.695-2.409
					c0.782-0.777,1.437-1.59,1.963-2.436c0.528-0.848,0.929-1.747,1.203-2.698c0.274-0.952,0.41-2.015,0.41-3.187
					c0-1.847-0.327-3.428-0.981-4.746c-0.656-1.316-1.564-2.397-2.726-3.246c-1.162-0.845-2.525-1.467-4.089-1.86
					c-1.564-0.395-3.254-0.592-5.07-0.592c-1.896,0-3.733,0.223-5.51,0.664c-1.777,0.444-3.419,1.106-4.924,1.991v8.684
					c1.467-1.271,3.019-2.218,4.66-2.842c1.641-0.625,3.224-0.937,4.748-0.937c0.704,0,1.344,0.105,1.92,0.316
					c0.576,0.212,1.065,0.502,1.465,0.868c0.401,0.364,0.709,0.803,0.924,1.311c0.214,0.51,0.322,1.063,0.322,1.659
					c0,0.693-0.099,1.324-0.293,1.889c-0.196,0.568-0.489,1.117-0.879,1.645c-0.392,0.529-0.864,1.059-1.421,1.588
					c-0.557,0.528-1.208,1.099-1.951,1.716c-0.703,0.576-1.318,1.157-1.845,1.745c-0.528,0.586-0.968,1.203-1.319,1.845
					c-0.351,0.644-0.615,1.332-0.792,2.064c-0.175,0.73-0.264,1.538-0.264,2.422c0,0.56,0.053,1.151,0.162,1.774
					c0.107,0.626,0.259,1.19,0.455,1.688H79.326z M79.766,73.645c0.996-0.905,1.494-2.049,1.494-3.435
					c0-1.365-0.508-2.49-1.523-3.375c-1.017-0.903-2.297-1.355-3.84-1.355c-1.564,0-2.863,0.452-3.898,1.355
					c-1.036,0.905-1.554,2.03-1.554,3.375c0,1.31,0.518,2.443,1.554,3.404C73.034,74.539,74.334,75,75.898,75
					C77.46,75,78.75,74.547,79.766,73.645L79.766,73.645z"/>
			</g>
		</g>
	</g>
</g>
</svg>
