<?xml version="1.0" encoding="utf-8"?>
<!-- Generator: Adobe Illustrator 17.0.0, SVG Export Plug-In . SVG Version: 6.00 Build 0)  -->
<!DOCTYPE svg PUBLIC "-//W3C//DTD SVG 1.1//EN" "http://www.w3.org/Graphics/SVG/1.1/DTD/svg11.dtd">
<svg version="1.1" id="Layer_1" xmlns="http://www.w3.org/2000/svg" xmlns:xlink="http://www.w3.org/1999/xlink" x="0px" y="0px"
	 width="150px" height="150px" viewBox="0 0 150 150" enable-background="new 0 0 150 150" xml:space="preserve">
<path d="M83.812,93.363l7.615-15.232c0-1.403,2.539-2.537,2.539-2.537h2.538c2.354,0,2.538,1.135,2.538,2.537l-7.616,15.232
	c-0.396,1.64-2.088,2.46-2.538,2.537H86.35C83.838,95.9,83.812,94.765,83.812,93.363z M111.534,95.9h2.538
	c2.513,0,2.538-1.136,2.538-2.537l-7.615-15.232c0-1.403-2.539-2.537-2.539-2.537h-2.538c-2.354,0-2.538,1.135-2.538,2.537
	l7.616,15.232C109.392,95.003,111.084,95.823,111.534,95.9z M135.982,97.881v-4.332c0-2.617-2.618-2.537-2.618-2.537h-14.135v2.537
	c0,0,0.078,4.332-4.839,4.332l-2.804-0.001c-5.553-0.239-7.032-7.613-7.032-7.613h-4.342h-4.342c0,0-1.479,7.374-7.032,7.613
	l-2.804,0.001c-4.918,0-4.839-4.332-4.839-4.332v-2.537H67.058c0,0-2.618-0.079-2.618,2.537v4.332c0,0-0.396,2.537,2.539,2.537
	h33.232h33.232C136.378,100.418,135.982,97.881,135.982,97.881z M133.345,105.198l0.321,0l-0.321,3.578v1.284h-0.115l-2.137,23.84
	c0,0-0.555,2.384-2.618,2.384l-13.361-0.019h-14.903H85.308l-13.361,0.019c-2.063,0-2.618-2.384-2.618-2.384l-2.137-23.84h-0.115
	v-1.284l-0.321-3.578l0.321,0v-0.053h33.134h33.134V105.198z M74.224,110.059h-2.382v19.059h2.382V110.059z M78.989,110.059h-2.383
	v19.059h2.383V110.059z M83.754,110.059h-2.382v19.059h2.382V110.059z M88.519,110.059h-2.382v19.059h2.382V110.059z
	 M93.284,110.059h-2.382v19.059h2.382V110.059z M98.049,110.059h-2.382v19.059h2.382V110.059z M104.756,110.059h-2.382v19.059h2.382
	V110.059z M109.521,110.059h-2.382v19.059h2.382V110.059z M114.286,110.059h-2.382v19.059h2.382V110.059z M119.051,110.059h-2.382
	v19.059h2.382V110.059z M123.816,110.059h-2.383v19.059h2.383V110.059z M128.581,110.059h-2.382v19.059h2.382V110.059z
	 M78.062,31.482l1.512-6.424l6.424-1.512l-6.424-1.512l-1.512-6.424l-1.512,6.424l-6.424,1.512l6.424,1.512L78.062,31.482z
	 M52.541,41.221l3.471,14.746l3.471-14.746L74.23,37.75l-14.746-3.471l-3.471-14.746l-3.471,14.746L37.795,37.75L52.541,41.221z
	 M33.422,33.376l1.873-7.957l7.957-1.873l-7.957-1.873l-1.873-7.957l-1.873,7.957l-7.957,1.873l7.957,1.873L33.422,33.376z
	 M60.112,97.661v-4.113c0-4.46,3.566-6.865,6.92-6.865h5.72l49.946-49.757c1.687-1.68,1.692-4.435,0.011-6.122l-12.219-12.264
	c-1.68-1.686-4.435-1.692-6.122-0.011l-89.1,88.764c-1.687,1.68-1.692,4.435-0.011,6.122l12.219,12.264
	c1.68,1.687,4.435,1.692,6.122,0.011l26.596-26.496C60.115,98.654,60.076,98.129,60.112,97.661z M107.816,27.314l6.113,6.13
	L92.606,54.686l-6.113-6.13L107.816,27.314z"/>
</svg>
