<?xml version="1.0" encoding="utf-8"?>
<!-- Generator: Adobe Illustrator 17.0.0, SVG Export Plug-In . SVG Version: 6.00 Build 0)  -->
<!DOCTYPE svg PUBLIC "-//W3C//DTD SVG 1.1//EN" "http://www.w3.org/Graphics/SVG/1.1/DTD/svg11.dtd">
<svg version="1.1" id="Layer_1" xmlns="http://www.w3.org/2000/svg" xmlns:xlink="http://www.w3.org/1999/xlink" x="0px" y="0px"
	 width="150px" height="150px" viewBox="0 0 150 150" enable-background="new 0 0 150 150" xml:space="preserve">
<path fill-rule="evenodd" clip-rule="evenodd" d="M93.951,107.427c-7.474,3.573-18.477,6.213-34.737,6.213
	c-31.336,0-44.773-15.41-44.773-15.41c-3.368-19.872,13.657-18.614,13.657-18.614c4.652-0.164,7.551-7.329,7.551-7.329
	c2.246-0.979-0.642-8.959-0.642-8.959c-5.292-10.102-3.528-16.455-3.528-16.455c1.284-1.79,1.924-12.214,1.924-12.214
	c2.566-12.378,12.35-4.073,12.35-4.073c19.086,5.538,14.756,17.593,14.756,17.593c-0.801,1.953,0,6.187,0,6.187
	c3.689,4.4-1.765,8.962-1.765,8.962c-0.159,3.093-1.764,7.166-1.764,7.166c1.123,7.17,19.259,14.012,19.259,14.012
	c3.013,0.97,3.174,5.263,3.692,10.091h7.46c-0.759-4.287-3.434-12.911-9.205-14.779c0,0-6.179-2.55-9.113-4.646
	c-2.116-1.512-2.137-3.347-4.313-5.178c1.951-0.992,7.631-1.658,10.922-1.742v-3.878c0,0-2.186,1.338-8.575-4.543
	c0.701-0.694,2.176-2.386,2.162-4.394c1.647-1.479,3.264-3.933,3.868-7.994c0,0,0.381-17.833,12.342-19.255
	c0,0,15.524-2.973,14.635,22.742c0,0,1.017,5.43,6.235,6.591c0,0-1.781,6.205-11.961,6.721l0.509,4.397
	c0,0,11.294-2.493,14.157,12.193c-0.587,0.951-0.956,2.05-0.982,3.241l-0.216-0.218c-1.226-1.228-2.856-1.902-4.591-1.902
	c-1.733,0-3.363,0.674-4.588,1.902l-1.17,1.169c-1.225,1.228-1.899,2.856-1.899,4.588c0,1.734,0.674,3.363,1.899,4.585l0.131,0.134
	c-3.374,0.227-6.049,3.043-6.049,6.474v1.654C91.589,104.462,92.519,106.236,93.951,107.427z M136,102.458v-1.653
	c0-1.826-1.48-3.307-3.306-3.307h-2.157c-0.342-1.273-0.831-2.483-1.463-3.606l1.94-1.94c1.291-1.291,1.291-3.384,0-4.676
	l-1.169-1.168c-1.291-1.292-3.385-1.292-4.676,0l-1.901,1.902c-1.164-0.677-2.419-1.205-3.748-1.567V84.22
	c0-1.826-1.481-3.306-3.306-3.306h-1.654c-1.826,0-3.306,1.48-3.306,3.306v2.221c-1.328,0.362-2.585,0.891-3.748,1.567l-1.901-1.902
	c-1.292-1.292-3.385-1.292-4.676,0l-1.169,1.168c-1.291,1.292-1.291,3.385,0,4.676l1.94,1.94c-0.632,1.123-1.121,2.334-1.463,3.606
	h-2.157c-1.826,0-3.306,1.481-3.306,3.307v1.653c0,1.826,1.48,3.306,3.306,3.306h2.183c0.355,1.284,0.864,2.501,1.516,3.631
	l-2.019,2.018c-1.291,1.291-1.291,3.385,0,4.676l1.169,1.169c1.291,1.291,3.384,1.291,4.676,0l2.03-2.031
	c1.127,0.641,2.34,1.14,3.619,1.489v2.118c0,1.826,1.48,3.306,3.306,3.306h1.654c1.825,0,3.306-1.48,3.306-3.306v-2.118
	c1.278-0.349,2.492-0.848,3.618-1.489l2.031,2.031c1.291,1.291,3.385,1.291,4.676,0l1.169-1.169c1.291-1.291,1.291-3.385,0-4.676
	l-2.019-2.018c0.651-1.13,1.16-2.347,1.516-3.631h2.183C134.52,105.764,136,104.284,136,102.458z M124.479,101.682
	c0,5.023-4.071,9.093-9.093,9.093c-5.023,0-9.093-4.07-9.093-9.093c0-5.021,4.07-9.093,9.093-9.093
	C120.407,92.589,124.479,96.661,124.479,101.682z M119.519,101.579c0-2.282-1.851-4.133-4.133-4.133
	c-2.283,0-4.133,1.851-4.133,4.133s1.85,4.133,4.133,4.133C117.668,105.712,119.519,103.861,119.519,101.579z"/>
</svg>
