<?xml version="1.0" encoding="utf-8"?>
<!-- Generator: Adobe Illustrator 17.0.0, SVG Export Plug-In . SVG Version: 6.00 Build 0)  -->
<!DOCTYPE svg PUBLIC "-//W3C//DTD SVG 1.1//EN" "http://www.w3.org/Graphics/SVG/1.1/DTD/svg11.dtd">
<svg version="1.1" id="Layer_1" xmlns="http://www.w3.org/2000/svg" xmlns:xlink="http://www.w3.org/1999/xlink" x="0px" y="0px"
	 width="150px" height="150px" viewBox="0 0 150 150" enable-background="new 0 0 150 150" xml:space="preserve">
<g>
	<g>
		<path fill="#7A7A7A" d="M51.879,136h46.267v-4.204H51.879V136z M60.291,119.174v8.411h29.443v-8.411H60.291z M128.671,14H21.329
			c-3.976,0-7.198,3.234-7.198,7.219v86.293c0,3.987,3.222,7.223,7.198,7.223h107.343c3.975,0,7.198-3.236,7.198-7.223V21.219
			C135.869,17.234,132.647,14,128.671,14z M75.013,106.557c-3.484,0-6.309-2.824-6.309-6.309c0-3.484,2.825-6.307,6.309-6.307
			c3.485,0,6.309,2.824,6.309,6.307C81.322,103.733,78.497,106.557,75.013,106.557z M127.589,89.731H22.436V22.436h105.153V89.731z"
			/>
	</g>
</g>
</svg>
