<?xml version="1.0" encoding="utf-8"?>
<!-- Generator: Adobe Illustrator 17.0.0, SVG Export Plug-In . SVG Version: 6.00 Build 0)  -->
<!DOCTYPE svg PUBLIC "-//W3C//DTD SVG 1.1//EN" "http://www.w3.org/Graphics/SVG/1.1/DTD/svg11.dtd">
<svg version="1.1" id="Layer_1" xmlns="http://www.w3.org/2000/svg" xmlns:xlink="http://www.w3.org/1999/xlink" x="0px" y="0px"
	 width="150px" height="150px" viewBox="0 0 150 150" enable-background="new 0 0 150 150" xml:space="preserve">
<g>
	<g>
		<path fill="#7A7A7A" d="M51.273,57.937h4.315c0.765-0.132,3.641-1.527,4.316-4.315L72.849,27.73c0-2.384-0.313-4.313-4.315-4.313
			h-4.315c0,0-4.315,1.929-4.315,4.313L46.958,53.622C46.958,56.006,47.002,57.937,51.273,57.937z M94.426,57.937h4.315
			c4.271,0,4.315-1.931,4.315-4.315L90.111,27.73c0-2.384-4.316-4.313-4.316-4.313H81.48c-4,0-4.315,1.929-4.315,4.313
			l12.946,25.892C90.785,56.41,93.661,57.805,94.426,57.937z M131.934,49.441h-24.563v4.181c0,9.252-8.57,7.678-8.57,7.678
			l-4.375,0.003c-9.836,0-12.137-12.943-12.137-12.943H67.456c0,0-2.515,12.534-11.955,12.941l-4.766,0.003
			c-8.361,0-8.226-7.365-8.226-7.365v-4.313H18.481c0,0-4.45-0.135-4.45,4.313v7.365c0,0-0.674,4.313,4.315,4.313h113.32
			c0,0,4.315,0,4.315-4.313v-3.366C135.98,57.937,136.52,49.441,131.934,49.441z M18.512,73.74l-0.544-0.001l0.544,6.072v2.191
			h0.196l3.633,40.527c0,0,0.944,4.053,4.45,4.053l22.61-0.032h70.359v-0.1l0.288,0c0,0,3.371,0.666,4.585-4.19l3.745-40.38
			l0.873-8.232H18.512V73.74z M115.709,82.003h4.05v32.398h-4.05V82.003z M107.61,82.003h4.05v32.398h-4.05V82.003z M99.51,82.003
			h4.05v32.398h-4.05V82.003z M91.41,82.003h4.05v32.398h-4.05V82.003z M83.31,82.003h4.05v32.398h-4.05V82.003z M75.21,82.003h4.05
			v32.398h-4.05V82.003z M67.111,82.003h4.05v32.398h-4.05V82.003z M59.011,82.003h4.05v32.398h-4.05V82.003z M50.911,82.003h4.05
			v32.398h-4.05V82.003z M42.811,82.003h4.05v32.398h-4.05V82.003z M34.711,82.003h4.05v32.398h-4.05V82.003z M26.612,82.003h4.05
			v32.398h-4.05V82.003z"/>
	</g>
</g>
</svg>
