<?xml version="1.0" encoding="utf-8"?>
<!-- Generator: Adobe Illustrator 17.0.0, SVG Export Plug-In . SVG Version: 6.00 Build 0)  -->
<!DOCTYPE svg PUBLIC "-//W3C//DTD SVG 1.1//EN" "http://www.w3.org/Graphics/SVG/1.1/DTD/svg11.dtd">
<svg version="1.1" id="Layer_1" xmlns="http://www.w3.org/2000/svg" xmlns:xlink="http://www.w3.org/1999/xlink" x="0px" y="0px"
	 width="150px" height="150px" viewBox="0 0 150 150" enable-background="new 0 0 150 150" xml:space="preserve">
<path d="M81.138,48.876l-11.42-22.839c0-2.103,0.278-3.805,3.806-3.805h3.808c0,0,3.806,1.701,3.806,3.805l11.42,22.839
	c0,2.102-0.039,3.805-3.806,3.805h-3.806C84.27,52.565,81.733,51.335,81.138,48.876z M46.88,52.681h3.806
	c0.676-0.116,3.212-1.346,3.806-3.805l11.42-22.839c0-2.103-0.277-3.805-3.806-3.805H58.3c0,0-3.808,1.701-3.808,3.805
	L43.074,48.876C43.074,50.978,43.112,52.681,46.88,52.681z M117.792,59.455c0,0,3.808,0,3.808-3.805v-2.969
	c0,0,0.476-7.493-3.569-7.493H96.364v3.688c0,8.16-7.56,6.773-7.56,6.773l-3.858,0.001c-8.678,0-10.707-11.417-10.707-11.417H61.153
	c0,0-2.218,11.057-10.545,11.415l-4.205,0.001c-7.374,0-7.257-6.496-7.257-6.496V45.35H17.952c0,0-3.925-0.119-3.925,3.805v6.496
	c0,0-0.594,3.805,3.808,3.805H117.792z M82.657,113.207h-37.34l-20.034,0.028c-3.093,0-3.925-3.575-3.925-3.575l-3.205-35.748H17.98
	v-1.926L17.5,66.621l0.481,0.001v-0.08h97.683l-0.77,7.265l-1.459,15.727h-4.819v11.545h-1.324V73.912h-3.572v27.167h-3.572V73.912
	h-3.573v27.167h-0.936v9.243h-12.98V113.207z M28.698,73.912h-3.572v28.578h3.572V73.912z M35.843,73.912H32.27v28.578h3.573V73.912
	z M42.987,73.912h-3.572v28.578h3.572V73.912z M89.429,102.49h3.572V73.912h-3.572V102.49z M82.284,102.49h3.572V73.912h-3.572
	V102.49z M50.132,73.912H46.56v28.578h3.573V73.912z M57.277,73.912h-3.572v28.578h3.572V73.912z M64.422,73.912h-3.572v28.578
	h3.572V73.912z M71.567,73.912h-3.572v28.578h3.572V73.912z M78.711,73.912h-3.572v28.578h3.572V73.912z M86.246,127.768h10.816
	v-13.859H86.246V127.768z M99.225,127.768h10.816v-23.1H99.225V127.768z M112.204,127.768h10.817V93.12h-10.817V127.768z
	 M125.184,127.768H136V81.57h-10.816V127.768z"/>
</svg>
