<?xml version="1.0" encoding="utf-8"?>
<!-- Generator: Adobe Illustrator 17.0.0, SVG Export Plug-In . SVG Version: 6.00 Build 0)  -->
<!DOCTYPE svg PUBLIC "-//W3C//DTD SVG 1.1//EN" "http://www.w3.org/Graphics/SVG/1.1/DTD/svg11.dtd">
<svg version="1.1" id="Layer_1" xmlns="http://www.w3.org/2000/svg" xmlns:xlink="http://www.w3.org/1999/xlink" x="0px" y="0px"
	 width="150px" height="150px" viewBox="0 0 150 150" enable-background="new 0 0 150 150" xml:space="preserve">
<path d="M14,114.139h4.133c0.115,0.009,0.225,0.034,0.342,0.034h8.706c0.117,0,0.227-0.025,0.342-0.034h77.667
	c0.115,0.009,0.225,0.034,0.342,0.034h8.706c0.117,0,0.227-0.025,0.342-0.034h4.12V53.096H14V114.139z M57.65,92.413v-4.355h13.058
	v-4.351H57.65v-4.355V75v-4.355h4.353v-4.351h4.353v4.351h8.706V75h-13.06v4.353H75.06v4.355v4.351v4.355h-4.353v4.351h-4.353
	v-4.351L57.65,92.413L57.65,92.413z M22.827,70.511h4.353c2.403,0,4.353-1.948,4.353-4.351v-4.356h69.645v4.356
	c0,2.403,1.948,4.351,4.353,4.351h4.353v26.253h-4.353c-2.405,0-4.353,1.95-4.353,4.355v4.351h-30.47
	c9.616,0,17.411-7.795,17.411-17.411v-8.706c0-9.614-7.795-17.413-17.411-17.413h-8.706c-9.616,0-17.411,7.799-17.411,17.413v8.706
	c0,9.616,7.795,17.411,17.411,17.411h-30.47v-4.351c0-2.405-1.95-4.355-4.353-4.355h-4.353V70.511H22.827z M22.827,44.532v4.351
	h100.114v56.586h4.353V44.532h-4.353H22.827z M131.647,35.827H27.18v4.351h104.467v60.941H136V35.827H131.647z"/>
</svg>
