<?xml version="1.0" encoding="utf-8"?>
<!-- Generator: Adobe Illustrator 17.0.0, SVG Export Plug-In . SVG Version: 6.00 Build 0)  -->
<!DOCTYPE svg PUBLIC "-//W3C//DTD SVG 1.1//EN" "http://www.w3.org/Graphics/SVG/1.1/DTD/svg11.dtd">
<svg version="1.1" id="Layer_1" xmlns="http://www.w3.org/2000/svg" xmlns:xlink="http://www.w3.org/1999/xlink" x="0px" y="0px"
	 width="150px" height="150px" viewBox="0 0 150 150" enable-background="new 0 0 150 150" xml:space="preserve">
<g>
	<g>
		<path d="M124.49,71.557c-9.207-11.478-18.331-25.251-20.717-25.251c-4.863,0-13.575,0-20.717,0v-9.182
			c0-5.072-4.123-9.182-9.208-9.182H23.207c-5.085,0-9.207,4.11-9.207,9.182v57.388c0,5.07,4.122,9.18,9.207,9.18h4.604
			c0-10.141,8.245-18.362,18.415-18.362c10.171,0,18.416,8.222,18.416,18.362h6.905h2.302c2.02,0,5.257,0,9.208,0
			c0-10.141,8.244-18.362,18.415-18.362s18.415,8.222,18.415,18.362c3.49,0,6.644,0,9.208,0c4.604,0,6.906-2.295,6.906-6.886
			c0-4.948,0-8.26,0-16.275C136,76.147,129.094,73.852,124.49,71.557z M42.563,69.127l-14.38-13.911l3.921-3.884l9.333,7.767
			c0,0,11.101-13.548,23.502-21.767c0.654,0.842,1.416,1.685,2.07,2.845C54.301,49.27,42.563,69.127,42.563,69.127z M115.283,71.557
			H87.66c-1.272,0-2.302-1.028-2.302-2.295V53.193c0-1.268,1.03-2.295,2.302-2.295h13.811c4.478,5.573,16.113,18.364,16.113,18.364
			C117.584,70.529,116.554,71.557,115.283,71.557z M46.225,89.921c-7.628,0-13.811,6.165-13.811,13.771s6.183,13.773,13.811,13.773
			c7.628,0,13.812-6.167,13.812-13.773S53.853,89.921,46.225,89.921z M46.225,110.58c-3.814,0-6.905-3.083-6.905-6.887
			s3.091-6.886,6.905-6.886c3.814,0,6.906,3.082,6.906,6.886S50.039,110.58,46.225,110.58z M101.471,89.921
			c-7.628,0-13.811,6.165-13.811,13.771s6.183,13.773,13.811,13.773c7.628,0,13.812-6.167,13.812-13.773
			S109.099,89.921,101.471,89.921z M101.471,110.58c-3.814,0-6.906-3.083-6.906-6.887s3.092-6.886,6.906-6.886
			c3.814,0,6.906,3.082,6.906,6.886S105.285,110.58,101.471,110.58z"/>
	</g>
</g>
</svg>
