<?xml version="1.0" encoding="utf-8"?>
<!-- Generator: Adobe Illustrator 18.1.0, SVG Export Plug-In . SVG Version: 6.00 Build 0)  -->
<svg version="1.1" id="Layer_1" xmlns="http://www.w3.org/2000/svg" xmlns:xlink="http://www.w3.org/1999/xlink" x="0px" y="0px"
	 viewBox="-367 334 150 150" enable-background="new -367 334 150 150" xml:space="preserve">
<rect x="-288.3" y="401.2" fill="#FFFFFF" width="4" height="1"/>
<path d="M-227.7,439.1v-63.8h-25.1v-15.3h-12.7v15.3H-355v63.8h89.5v13.3h-6.2v6.4h25.2v-6.4h-6.2v-13.3H-227.7z M-234,381.7v51
	h-18.7v-51C-252.8,381.7-234,381.7-234,381.7z M-348.7,432.7v-51h83.1v51H-348.7z"/>
<path fill="#FFFFFF" d="M-290.3,412.1h-3v-5.9h1v1h2V412.1z M-292.3,411.1h1v-2.9h-1V411.1z"/>
<polygon fill="#FFFFFF" points="-298.3,407.1 -298.3,408.1 -297.3,408.1 -297.3,409.1 -296.3,409.1 -296.3,411.1 -297.3,411.1 
	-297.3,409.1 -298.3,409.1 -298.3,411.1 -298.3,412.1 -297.3,412.1 -296.3,412.1 -295.3,412.1 -295.3,412.1 -295.3,411.1 
	-295.3,411.1 -295.3,409.1 -295.3,409.1 -295.3,408.1 -295.3,407.1 "/>
</svg>
