<?xml version="1.0" encoding="utf-8"?>
<!-- Generator: Adobe Illustrator 18.1.0, SVG Export Plug-In . SVG Version: 6.00 Build 0)  -->
<svg version="1.1" id="Layer_1" xmlns="http://www.w3.org/2000/svg" xmlns:xlink="http://www.w3.org/1999/xlink" x="0px" y="0px"
	 viewBox="-365 342 150 150" enable-background="new -365 342 150 150" xml:space="preserve">
<g>
	<path d="M-289.9,367.8v-14.2l-22.4,21.8l22.4,21.8V383c18.3,0,33.2,14.9,33.2,33.2c0,7.7-2.7,15.1-7.5,21l11.8,9.7
		c7.1-8.6,11-19.5,11-30.7C-241.5,389.5-263.2,367.8-289.9,367.8z"/>
	<path d="M-290.1,466.8V481l22.4-21.8l-22.4-21.8v14.1c-18.3,0-33.2-14.9-33.2-33.2c0-7.7,2.7-15.1,7.5-21l-11.8-9.7
		c-7.1,8.6-11,19.5-11,30.7C-338.5,445-316.8,466.8-290.1,466.8z"/>
</g>
</svg>
