<?xml version="1.0" encoding="utf-8"?>
<!-- Generator: Adobe Illustrator 17.0.0, SVG Export Plug-In . SVG Version: 6.00 Build 0)  -->
<!DOCTYPE svg PUBLIC "-//W3C//DTD SVG 1.1//EN" "http://www.w3.org/Graphics/SVG/1.1/DTD/svg11.dtd">
<svg version="1.1" id="Layer_1" xmlns="http://www.w3.org/2000/svg" xmlns:xlink="http://www.w3.org/1999/xlink" x="0px" y="0px"
	 width="150px" height="150px" viewBox="0 0 150 150" enable-background="new 0 0 150 150" xml:space="preserve">
<path fill-rule="evenodd" clip-rule="evenodd" d="M14,103.07h18.923V80.208H14V103.07z M59.417,103.07h18.926V45.913H59.417V103.07z
	 M36.709,103.07h18.923V64.962H36.709V103.07z M82.129,92.86V26.858h18.923v48.947l-0.014-0.014
	c-1.496-1.496-3.483-2.321-5.599-2.321c-2.116,0-4.103,0.825-5.597,2.317l-1.45,1.448c-1.496,1.496-2.321,3.485-2.321,5.601
	c0,2.116,0.823,4.104,2.319,5.601l0.351,0.351C85.89,88.883,83.444,90.513,82.129,92.86z M82.385,103.07h-0.257v-0.478
	C82.217,102.75,82.286,102.919,82.385,103.07z M131.903,102.849h-2.705c-0.44,1.591-1.071,3.099-1.878,4.499l2.5,2.5
	c1.601,1.6,1.601,4.195,0,5.794l-1.447,1.449c-1.6,1.6-4.195,1.6-5.794,0l-2.517-2.517c-1.395,0.794-2.9,1.413-4.483,1.845v2.625
	c0,2.263-1.835,4.097-4.097,4.097h-2.05c-2.263,0-4.097-1.834-4.097-4.097v-2.625c-1.585-0.432-3.088-1.051-4.485-1.845
	l-2.515,2.517c-1.601,1.6-4.195,1.6-5.794,0l-1.449-1.449c-1.6-1.6-1.6-4.195,0-5.794l2.5-2.5c-0.806-1.4-1.436-2.908-1.876-4.499
	h-2.705c-2.263,0-4.097-1.834-4.097-4.097v-2.05c0-2.261,1.834-4.097,4.097-4.097h2.672c0.424-1.577,1.03-3.077,1.813-4.468
	l-2.404-2.404c-1.6-1.6-1.6-4.195,0-5.794l1.449-1.447c1.6-1.601,4.193-1.601,5.794,0l2.356,2.356
	c1.441-0.838,2.998-1.493,4.643-1.942v-2.752c0-2.263,1.834-4.097,4.097-4.097h2.05c2.261,0,4.097,1.834,4.097,4.097v2.752
	c1.646,0.449,3.201,1.104,4.643,1.942l2.356-2.356c1.6-1.601,4.195-1.601,5.794,0l1.447,1.447c1.601,1.6,1.601,4.195,0,5.794
	l-2.402,2.404c0.783,1.392,1.388,2.892,1.813,4.468h2.672c2.263,0,4.097,1.835,4.097,4.097v2.05
	C136,101.015,134.166,102.849,131.903,102.849z M110.458,86.525c-6.223,0-11.266,5.045-11.266,11.266
	c0,6.223,5.043,11.266,11.266,11.266c6.222,0,11.266-5.043,11.266-11.266C121.724,91.569,116.68,86.525,110.458,86.525z
	 M110.458,102.785c-2.829,0-5.122-2.294-5.122-5.122s2.292-5.122,5.122-5.122c2.828,0,5.122,2.294,5.122,5.122
	S113.285,102.785,110.458,102.785z"/>
</svg>
