<?xml version="1.0" encoding="utf-8"?>
<!-- Generator: Adobe Illustrator 17.0.0, SVG Export Plug-In . SVG Version: 6.00 Build 0)  -->
<!DOCTYPE svg PUBLIC "-//W3C//DTD SVG 1.1//EN" "http://www.w3.org/Graphics/SVG/1.1/DTD/svg11.dtd">
<svg version="1.1" id="Layer_1" xmlns="http://www.w3.org/2000/svg" xmlns:xlink="http://www.w3.org/1999/xlink" x="0px" y="0px"
	 width="150px" height="150px" viewBox="0 0 150 150" enable-background="new 0 0 150 150" xml:space="preserve">
<g>
	<g>
		<g>
			<g>
				<path fill-rule="evenodd" clip-rule="evenodd" d="M108.484,88.13c0,0-0.067-27.533,0.041-27.533
					c15.176,0,27.475,12.31,27.475,27.492L108.484,88.13z M129.938,92.078c0,14.104-11.424,25.536-25.522,25.536
					c-14.096,0-25.524-11.432-25.524-25.536c0-14.055,11.348-25.459,25.378-25.535c0.049,0,0.146,0,0.146,0l-0.029,25.527
					C104.387,92.071,123.444,92.078,129.938,92.078z"/>
			</g>
		</g>
		<g>
			<g>
				<path d="M69.075,53.398c0.098,0.054,0.199,0.114,0.291,0.177c0.043,0.036,0.09,0.067,0.134,0.103
					c7.085,5.361,10.801,13.922,10.284,22.588c2.958-4.591,7.158-8.295,12.122-10.658c-2.188-9.591-7.877-18.29-16.508-23.98
					c-0.094-0.051-0.18-0.111-0.258-0.172c-1.344-0.969-1.778-2.824-0.949-4.339l3.182-5.817c0.447-0.818,0.158-1.841-0.649-2.282
					c-0.25-0.137-0.523-0.198-0.794-0.199c-0.006,0.002-0.016-0.004-0.018,0l-0.423,0.063l-24.274,3.679l-0.496,0.076
					c-0.906,0.21-1.73,0.794-2.218,1.686c-0.233,0.426-0.363,0.877-0.408,1.329c-0.054,0.581,0.045,1.166,0.285,1.69l4.93,11.069
					l5.271,11.826l0.009-0.008c0.143,0.291,0.371,0.54,0.674,0.706c0.806,0.441,1.824,0.133,2.273-0.687l3-5.484
					C65.428,53.133,67.463,52.516,69.075,53.398z"/>
			</g>
			<g>
				<path d="M75.108,92.079c0-0.839,0.056-1.665,0.126-2.486c-2.481,3.728-5.708,6.71-9.418,8.739
					c-0.052,0.03-0.102,0.056-0.157,0.084c-3.136,1.764-4.326,5.729-2.659,8.904c1.68,3.202,5.642,4.393,8.838,2.649l0.004,0.002
					c2.314-1.255,4.46-2.827,6.512-4.541C76.293,101.42,75.108,96.889,75.108,92.079z"/>
			</g>
		</g>
		<g>
			<g>
				<path d="M58.555,112.662l-4.932-11.07l-5.275-11.829l-0.009,0.008c-0.139-0.294-0.369-0.539-0.674-0.706
					c-0.806-0.441-1.818-0.135-2.267,0.685l-3,5.484c-0.896,1.638-2.926,2.252-4.544,1.367c-0.098-0.053-0.199-0.114-0.291-0.177
					c-0.046-0.033-0.09-0.067-0.132-0.097c-10.235-7.742-13.454-22.164-7.015-33.936c2.575-4.707,6.339-8.339,10.697-10.718
					c0.049-0.029,0.106-0.059,0.156-0.085c3.14-1.762,4.33-5.727,2.668-8.906c-1.687-3.203-5.647-4.388-8.846-2.645l-0.003-0.009
					c-6.571,3.568-12.243,9.028-16.114,16.104c-10.056,18.383-4.366,41.081,12.562,52.241c0.094,0.051,0.178,0.11,0.259,0.172
					c1.346,0.97,1.778,2.824,0.949,4.339l-3.181,5.815c-0.448,0.82-0.163,1.841,0.644,2.282c0.256,0.14,0.529,0.201,0.794,0.199
					c0.012,0.001,0.016,0.004,0.024,0.003l0.418-0.068l24.273-3.672l0.496-0.081c0.912-0.206,1.731-0.795,2.216-1.682
					c0.235-0.429,0.371-0.878,0.408-1.329C58.889,113.762,58.789,113.185,58.555,112.662z"/>
			</g>
		</g>
	</g>
</g>
</svg>
