<?xml version="1.0" encoding="utf-8"?>
<!-- Generator: Adobe Illustrator 17.0.0, SVG Export Plug-In . SVG Version: 6.00 Build 0)  -->
<!DOCTYPE svg PUBLIC "-//W3C//DTD SVG 1.1//EN" "http://www.w3.org/Graphics/SVG/1.1/DTD/svg11.dtd">
<svg version="1.1" id="Layer_1" xmlns="http://www.w3.org/2000/svg" xmlns:xlink="http://www.w3.org/1999/xlink" x="0px" y="0px"
	 width="150px" height="150px" viewBox="0 0 150 150" enable-background="new 0 0 150 150" xml:space="preserve">
<path fill-rule="evenodd" clip-rule="evenodd" d="M117.197,42.836c-1.032,1.222-2.504,1.849-3.987,1.849
	c-0.843,0-1.662-0.28-2.433-0.695c1.069,3.116,1.676,6.446,1.676,9.925c0,7.316-2.574,14.027-6.855,19.294L58.792,33.788
	c5.613-6.419,13.842-10.494,23.039-10.494c1.673,0,3.303,0.17,4.903,0.429c-1.363-1.894-1.339-4.531,0.234-6.397
	c1.856-2.199,5.146-2.477,7.345-0.621l22.26,18.785C118.774,37.346,119.053,40.634,117.197,42.836z M81.37,74.041
	c2.002-2.07,1.949-5.368-0.119-7.37c-2.065-1.999-5.363-1.955-7.37,0.115L62.848,78.176l-8.085-6.81l11.917-12.3
	c2.004-2.067,1.951-5.368-0.115-7.37c-2.065-1.999-5.367-1.951-7.37,0.115L46.77,64.635l-10.919-9.196
	c-4.281,5.267-6.855,11.977-6.855,19.294c0,3.479,0.608,6.809,1.676,9.925c-0.771-0.415-1.59-0.695-2.433-0.695
	c-1.483,0-2.956,0.628-3.987,1.849c-1.856,2.202-1.578,5.49,0.623,7.347l6.374,5.379c-6.175,4.919-11.577,5.04-11.955,5.04
	c-2.82-0.064-5.214,2.212-5.294,5.07c-0.078,2.878,2.19,5.273,5.068,5.351c0.027,0.003,0.081,0.003,0.163,0.003
	c1.396,0,10.682-0.333,20.095-8.647l7.808,6.589c2.199,1.856,5.489,1.578,7.345-0.621c1.573-1.866,1.597-4.504,0.234-6.397
	c1.6,0.258,3.23,0.429,4.903,0.429c9.197,0,17.426-4.075,23.039-10.494l-11.815-9.951L81.37,74.041z M132.274,116.069h-2.46
	c-0.401,1.447-0.975,2.819-1.708,4.092l2.274,2.274c1.456,1.455,1.456,3.815,0,5.27l-1.316,1.318c-1.455,1.455-3.815,1.455-5.27,0
	l-2.289-2.289c-1.269,0.722-2.637,1.285-4.077,1.678v2.387c0,2.058-1.669,3.726-3.727,3.726h-1.863
	c-2.058,0-3.726-1.668-3.726-3.726v-2.387c-1.441-0.393-2.808-0.956-4.078-1.678l-2.287,2.289c-1.456,1.455-3.815,1.455-5.27,0
	l-1.318-1.318c-1.455-1.455-1.455-3.815,0-5.27l2.274-2.274c-0.733-1.273-1.306-2.645-1.706-4.092h-2.46
	c-2.058,0-3.726-1.668-3.726-3.726v-1.864c0-2.058,1.668-3.726,3.726-3.726h2.43c0.386-1.434,0.937-2.798,1.648-4.064l-2.186-2.186
	c-1.455-1.455-1.455-3.815,0-5.27l1.318-1.316c1.455-1.456,3.813-1.456,5.27,0l2.143,2.143c1.31-0.762,2.726-1.358,4.223-1.766
	v-2.503c0-2.058,1.668-3.726,3.726-3.726h1.863c2.058,0,3.727,1.668,3.727,3.726v2.503c1.496,0.408,2.911,1.004,4.223,1.766
	l2.143-2.143c1.455-1.456,3.815-1.456,5.27,0l1.316,1.316c1.456,1.455,1.456,3.815,0,5.27l-2.186,2.186
	c0.713,1.266,1.264,2.63,1.65,4.064h2.43c2.058,0,3.726,1.668,3.726,3.726v1.864C136,114.402,134.332,116.069,132.274,116.069z
	 M112.771,101.224c-5.66,0-10.246,4.588-10.246,10.246c0,5.66,4.586,10.246,10.246,10.246c5.658,0,10.246-4.586,10.246-10.246
	C123.017,105.812,118.429,101.224,112.771,101.224z M112.771,116.011c-2.573,0-4.658-2.086-4.658-4.658
	c0-2.572,2.085-4.658,4.658-4.658c2.572,0,4.658,2.086,4.658,4.658C117.429,113.925,115.343,116.011,112.771,116.011z"/>
</svg>
