<?xml version="1.0" encoding="utf-8"?>
<!-- Generator: Adobe Illustrator 18.1.0, SVG Export Plug-In . SVG Version: 6.00 Build 0)  -->
<!DOCTYPE svg PUBLIC "-//W3C//DTD SVG 1.1//EN" "http://www.w3.org/Graphics/SVG/1.1/DTD/svg11.dtd">
<svg version="1.1" id="Layer_1" xmlns="http://www.w3.org/2000/svg" xmlns:xlink="http://www.w3.org/1999/xlink" x="0px" y="0px"
	 viewBox="0 0 150 150" enable-background="new 0 0 150 150" xml:space="preserve">
<path fill="#414042" d="M126.8,128.6c-0.5-5.8-1-11.7-1.5-17.5c-0.4-4.8-2.7-8.4-6.6-11.1c-4.6-3.2-9.8-4.6-15.2-5.6
	c-4.4-0.8-8.9-1.1-12.6-4.1l-3.1-6.9l-0.4,0.4c0.2-2,0.2-4,0.4-6c0.1-0.6,0.3-1.4,0.7-1.8c4.3-4.3,7.1-9.4,8.2-15.4
	c0.1-0.3,0.4-0.8,0.7-0.9c4.7-1.5,5.8-10.4,1.4-14c-0.5-0.4-0.8-1.1-0.9-1.7c-0.3-5.1-0.3-10.2-0.7-15.3c-0.2-2.9-1-5.8-4.2-6.6
	c-2.3-0.6-4.7-0.5-7.1-0.8c-0.5-0.1-1.1-0.2-1.4-0.6c-1.7-2.1-3.8-3.7-6.5-4.1c-5.3-0.7-10.7-0.8-15.9,0.8
	c-6.4,2-10.2,6.7-10.4,12.9c-0.2,4.6-0.4,9.1-0.6,13.7c0,0.4-0.2,0.9-0.5,1c-3.2,1.5-4.2,6.3-3.3,9.8c0.5,2,1.4,3.8,3.4,4.5
	c1.1,0.4,1.3,1,1.5,2c0.9,6,4,10.5,8.8,14c0.5,0.4,0.9,1.1,1,1.7c0,2.3-0.1,4.6-0.1,6.9c0,0.2,0,0.4,0,0.6l-0.4-0.4l-2.2,6
	c-2.6,1.9-5.7,3-9,3.6c-2.6,0.5-5.1,0.9-7.7,1.4c-4.8,1-9.4,2.5-13.4,5.5c-2.9,2.2-5,4.7-5.2,8.5c-0.2,4-0.8,8.1-1,12.1
	c-0.2,2.7,0,5.5,0,8.3c0.6,0,1.7,0,1.7,0s17.8,4.2,50.8,4.2s51.1-4.3,51.1-4.3S126.8,128.9,126.8,128.6z"/>
</svg>
