<?xml version="1.0" encoding="utf-8"?>
<!-- Generator: Adobe Illustrator 17.0.0, SVG Export Plug-In . SVG Version: 6.00 Build 0)  -->
<!DOCTYPE svg PUBLIC "-//W3C//DTD SVG 1.1//EN" "http://www.w3.org/Graphics/SVG/1.1/DTD/svg11.dtd">
<svg version="1.1" id="Layer_1" xmlns="http://www.w3.org/2000/svg" xmlns:xlink="http://www.w3.org/1999/xlink" x="0px" y="0px"
	 width="150px" height="150px" viewBox="0 0 150 150" enable-background="new 0 0 150 150" xml:space="preserve">
<path fill-rule="evenodd" clip-rule="evenodd" d="M79.279,127.13c-4.804,0.769-9.784,1.253-14.759,1.253
	c-25.177,0-50.104-12.706-50.104-12.706c-4.653-26.555,20.17-31.97,20.17-31.97c6.427-0.221,14.848-9.871,14.848-9.871
	c3.103-1.318-0.886-12.067-0.886-12.067c-7.314-13.602-4.875-22.158-4.875-22.158c1.772-2.415,2.658-16.454,2.658-16.454
	c3.546-16.673,17.065-5.482,17.065-5.482c26.374,7.457,20.39,23.692,20.39,23.692c-1.108,2.633,0,8.334,0,8.334
	c5.098,5.925-2.438,12.067-2.438,12.067c-0.221,4.167-2.438,9.652-2.438,9.652c1.552,9.655,31.027,18.867,31.027,18.867
	c2.33,0.734,3.884,2.583,4.926,4.947h-7.887v12.32H93.128v9.863H79.279V127.13z M83.075,136h11.541v-14.788H83.075V136z
	 M124.624,136h11.541V86.705h-11.541V136z M110.773,136h11.542V99.03h-11.542V136z M96.924,136h11.541v-24.649H96.924V136z"/>
</svg>
