<?xml version="1.0" encoding="utf-8"?>
<!-- Generator: Adobe Illustrator 18.1.0, SVG Export Plug-In . SVG Version: 6.00 Build 0)  -->
<svg version="1.1" id="Layer_1" xmlns="http://www.w3.org/2000/svg" xmlns:xlink="http://www.w3.org/1999/xlink" x="0px" y="0px"
	 viewBox="0 0 150 150" enable-background="new 0 0 150 150" xml:space="preserve">
<path fill="#010101" d="M18.3,82.1c0-17.6,8.9-32.9,22.2-42.9c3.2-2.4,9.5-3.4,12-0.4c1.6,1.9,2.1,4.1,2.2,6.2
	c0.1,3.9-4,8.7-6.8,11.5C41.3,63.1,37,72,37,82.1c0,21.1,17.1,37.2,38.3,37.2c21.1,0,38.3-16,38.3-37.2c0-10.8-4.1-20.2-10.9-26.9
	c-2.8-2.8-6.6-7.6-6-11.5c0.4-2.2,1.3-4.5,3.4-6.1c3.1-2.4,9.4-0.7,12.5,1.7c12.8,10,21.2,25.2,21.2,42.7c0,31-27.5,55-58.4,55
	C44.3,137,18.3,113.1,18.3,82.1z"/>
<path fill="#010101" d="M76.4,87.9c-3.9,0-9.2-4.5-9.2-8.4V25.6c0-0.5,0.1-8.7,9-8.7c3.9,0,9,2,9,8.7v53.9
	C85.1,83.3,80.3,87.9,76.4,87.9z"/>
</svg>
