<?xml version="1.0" encoding="utf-8"?>
<!-- Generator: Adobe Illustrator 17.0.0, SVG Export Plug-In . SVG Version: 6.00 Build 0)  -->
<!DOCTYPE svg PUBLIC "-//W3C//DTD SVG 1.1//EN" "http://www.w3.org/Graphics/SVG/1.1/DTD/svg11.dtd">
<svg version="1.1" id="Layer_1" xmlns="http://www.w3.org/2000/svg" xmlns:xlink="http://www.w3.org/1999/xlink" x="0px" y="0px"
	 width="150px" height="150px" viewBox="0 0 150 150" enable-background="new 0 0 150 150" xml:space="preserve">
<path d="M74.577,52.988L59.979,22.56L92.623,14l-5.744,12.405c12.942,7.351,21.871,19.44,25.496,32.997
	c3.155,11.749,2.364,24.686-3.128,36.588h-0.002c-1.368,2.971-3.035,5.702-4.845,8.297l-5.25,5.328l-9.951-10.096
	c2.567-2.853,4.79-6.098,6.484-9.774c3.987-8.662,4.546-17.941,2.267-26.478c-2.546-9.472-8.57-17.888-17.364-23.26L74.577,52.988z
	 M39.96,106.884c-8.926-5.362-15.038-13.852-17.609-23.412c-2.279-8.535-1.718-17.822,2.265-26.474
	c5.076-11.009,14.565-18.507,25.432-21.431c1.8-0.479,3.634-0.824,5.487-1.044l-6.718-14.006c-0.884,0.191-1.763,0.394-2.635,0.627
	c-14.957,4.001-28.143,14.437-35.131,29.61C5.567,62.649,4.774,75.591,7.929,87.338l0.01,0.037
	c3.656,13.65,12.689,25.804,25.776,33.127l-5.432,11.842l32.613-8.677l-14.7-30.373L39.96,106.884z M142.853,87.965l-5.141-5.218
	c-1.419-1.44-3.722-1.44-5.141,0l-33.419,33.911L81.156,98.4c-1.419-1.442-3.72-1.442-5.141,0l-5.141,5.217
	c-1.419,1.44-1.419,3.776,0,5.215l20.565,20.869l0,0l5.141,5.217c1.421,1.44,3.722,1.44,5.143,0l41.13-41.737
	C144.272,91.743,144.272,89.407,142.853,87.965z"/>
</svg>
