<?xml version="1.0" encoding="utf-8"?>
<!-- Generator: Adobe Illustrator 18.1.0, SVG Export Plug-In . SVG Version: 6.00 Build 0)  -->
<!DOCTYPE svg PUBLIC "-//W3C//DTD SVG 1.1//EN" "http://www.w3.org/Graphics/SVG/1.1/DTD/svg11.dtd">
<svg version="1.1" id="Layer_1" xmlns="http://www.w3.org/2000/svg" xmlns:xlink="http://www.w3.org/1999/xlink" x="0px" y="0px"
	 viewBox="0 0 150 150" enable-background="new 0 0 150 150" xml:space="preserve">
<g>
	<path fill="#414042" d="M41.1,26.6h44.3v23.5h21.5v20.2h7.1V43.9L90.6,19.5H34v113.3h26v-7.1h-19V26.6z M92.4,31.6L103.3,43H92.4
		V31.6z"/>
	<path fill="#414042" d="M90.4,71.7v-9.2L75.6,77.2l14.8,14.7v-9.1c10.6,0.8,19,9.6,19,20.4c0,4.5-1.4,8.8-4.2,12.4l8.9,6.7
		c4.2-5.5,6.4-12.1,6.4-19.1C120.5,86.3,107.1,72.4,90.4,71.7z"/>
	<path fill="#414042" d="M90.5,123.8c-4.9-0.2-9.5-2.1-13.2-5.4c-4-3.7-6.3-8.8-6.5-14.3c-0.2-4.5,1.1-8.8,3.7-12.5l-9.1-6.4
		c-4,5.7-6,12.4-5.7,19.3c0.3,8.4,3.9,16.2,10.1,22c5.8,5.4,13.3,8.4,21.2,8.4l0.3,9.2l14.2-15.3l-15.3-14.2L90.5,123.8z"/>
</g>
</svg>
