<?xml version="1.0" encoding="utf-8"?>
<!-- Generator: Adobe Illustrator 17.0.0, SVG Export Plug-In . SVG Version: 6.00 Build 0)  -->
<!DOCTYPE svg PUBLIC "-//W3C//DTD SVG 1.1//EN" "http://www.w3.org/Graphics/SVG/1.1/DTD/svg11.dtd">
<svg version="1.1" id="Layer_1" xmlns="http://www.w3.org/2000/svg" xmlns:xlink="http://www.w3.org/1999/xlink" x="0px" y="0px"
	 width="150px" height="150px" viewBox="0 0 150 150" enable-background="new 0 0 150 150" xml:space="preserve">
<g>
	<g>
		<g>
			<g>
				<path fill-rule="evenodd" clip-rule="evenodd" d="M120.613,42.065c-1.058,1.253-2.569,1.897-4.09,1.897
					c-0.865,0-1.705-0.288-2.496-0.713c1.096,3.197,1.719,6.612,1.719,10.18c0,7.504-2.64,14.388-7.031,19.79l-48.01-40.435
					c5.757-6.584,14.198-10.764,23.632-10.764c1.716,0,3.388,0.175,5.03,0.44c-1.398-1.942-1.373-4.648,0.24-6.562
					c1.904-2.255,5.278-2.541,7.534-0.637l22.833,19.269C122.231,36.433,122.517,39.806,120.613,42.065z M83.864,74.073
					c2.054-2.123,2-5.506-0.122-7.56c-2.118-2.05-5.501-2.005-7.56,0.118L64.866,78.313l-8.293-6.985l12.224-12.616
					c2.055-2.12,2.001-5.506-0.118-7.56c-2.118-2.05-5.505-2.001-7.56,0.118L48.375,64.424l-11.2-9.433
					c-4.391,5.402-7.031,12.286-7.031,19.79c0,3.568,0.623,6.984,1.719,10.18c-0.791-0.425-1.63-0.713-2.496-0.713
					c-1.521,0-3.032,0.644-4.09,1.897c-1.904,2.259-1.618,5.632,0.639,7.536l6.538,5.518c-6.334,5.046-11.875,5.169-12.262,5.169
					c-2.892-0.066-5.348,2.269-5.43,5.2c-0.08,2.952,2.247,5.409,5.198,5.489c0.028,0.003,0.084,0.003,0.167,0.003
					c1.432,0,10.957-0.341,20.612-8.87l8.009,6.759c2.255,1.904,5.63,1.618,7.534-0.637c1.613-1.914,1.638-4.62,0.24-6.562
					c1.642,0.265,3.313,0.44,5.03,0.44c9.434,0,17.874-4.18,23.632-10.764L73.067,85.22L83.864,74.073z"/>
			</g>
		</g>
		<polygon fill-rule="evenodd" clip-rule="evenodd" points="135.239,111.385 117.975,111.385 117.975,94.121 110.624,94.121 
			110.624,111.385 93.36,111.385 93.36,118.736 110.624,118.736 110.624,136 117.975,136 117.975,118.736 135.239,118.736 		"/>
	</g>
</g>
</svg>
