<?xml version="1.0" encoding="utf-8"?>
<!-- Generator: Adobe Illustrator 17.0.0, SVG Export Plug-In . SVG Version: 6.00 Build 0)  -->
<!DOCTYPE svg PUBLIC "-//W3C//DTD SVG 1.1//EN" "http://www.w3.org/Graphics/SVG/1.1/DTD/svg11.dtd">
<svg version="1.1" id="Layer_1" xmlns="http://www.w3.org/2000/svg" xmlns:xlink="http://www.w3.org/1999/xlink" x="0px" y="0px"
	 width="150px" height="150px" viewBox="0 0 150 150" enable-background="new 0 0 150 150" xml:space="preserve">
<path d="M132.784,75.569L70.792,14H14.296l-0.137,56.422l61.252,62.52c4.029,4.029,10.503,4.082,14.465,0.123l43.03-43.03
	C136.867,86.075,136.812,79.599,132.784,75.569z M29.273,39.524c0-5.601,4.541-10.142,10.142-10.142s10.142,4.541,10.142,10.142
	s-4.541,10.142-10.142,10.142S29.273,45.126,29.273,39.524z M84.448,110.254L45.006,70.811l3.586-3.586l39.445,39.443
	L84.448,110.254z M95.208,99.497L55.763,60.054l3.586-3.586l39.445,39.443L95.208,99.497z M105.965,88.739L66.52,49.295l3.586-3.586
	l39.445,39.445L105.965,88.739z"/>
</svg>
