<?xml version="1.0" encoding="utf-8"?>
<!-- Generator: Adobe Illustrator 17.0.0, SVG Export Plug-In . SVG Version: 6.00 Build 0)  -->
<!DOCTYPE svg PUBLIC "-//W3C//DTD SVG 1.1//EN" "http://www.w3.org/Graphics/SVG/1.1/DTD/svg11.dtd">
<svg version="1.1" id="Layer_1" xmlns="http://www.w3.org/2000/svg" xmlns:xlink="http://www.w3.org/1999/xlink" x="0px" y="0px"
	 width="150px" height="150px" viewBox="0 0 150 150" enable-background="new 0 0 150 150" xml:space="preserve">
<path d="M46.475,119.106h39.804v3.617H46.475V119.106z M101.019,104.43H20.192c-3.421,0-6.192-2.785-6.192-6.213V23.978
	c0-3.429,2.771-6.21,6.192-6.21h92.346c3.419,0,6.192,2.782,6.192,6.21v50.865c-0.806,1.477-1.303,3.122-1.303,4.888
	c0,1.9,0.468,3.603,1.303,5.042v1.47c-5.257,1.174-9.482,3.953-12.346,6.457c-0.959,0.883-5.654,6.562-5.654,10.186
	C100.731,103.426,100.846,103.941,101.019,104.43z M21.145,82.918h90.463V25.025H21.145V82.918z M71.805,91.966
	c0-2.996-2.431-5.426-5.428-5.426c-2.997,0-5.428,2.43-5.428,5.426c0,2.999,2.431,5.428,5.428,5.428
	C69.374,97.394,71.805,94.965,71.805,91.966z M79.042,115.485v-7.236h-25.33v7.236H79.042z M123.696,89.226
	c4.267,0,8.832,2.372,5.258,11.231l-7.144,17.804c-0.594,1.369-1.684,3.655-1.684,5.113c0,0.639,0.394,1.278,1.189,1.278
	c2.976,0,8.434-7.762,9.823-7.762c0.495,0,1.189,0.548,1.189,1.371c0,2.649-11.606,13.971-21.627,13.971
	c-3.573,0-6.053-3.715-6.053-7.185c0-4.382,3.373-9.708,4.07-11.26l6.943-16.071c0.696-1.64-0.196-2.464-0.992-2.464
	c-3.671,0-7.22,8.898-9.033,8.898c-0.708,0-1.314-0.682-1.314-1.265c0-1.746,3.203-6.352,4.495-7.542
	C112.783,91.874,117.942,89.226,123.696,89.226z M136,78.636c0,4.199-3.77,7.303-8.234,7.303c-4.07,0-6.749-2.466-6.749-6.21
	c0-4.018,3.77-7.305,8.136-7.305C133.122,72.425,136,74.89,136,78.636z"/>
</svg>
