<?xml version="1.0" encoding="utf-8"?>
<!-- Generator: Adobe Illustrator 18.1.0, SVG Export Plug-In . SVG Version: 6.00 Build 0)  -->
<svg version="1.1" id="Icons" xmlns="http://www.w3.org/2000/svg" xmlns:xlink="http://www.w3.org/1999/xlink" x="0px" y="0px"
	 viewBox="-330 372 150 150" enable-background="new -330 372 150 150" xml:space="preserve">
<path id="LinkedIn" d="M-192.2,460.6V507h-26.9v-43.3c0-10.9-3.9-18.3-13.6-18.3c-7.4,0-11.9,5-13.8,9.8c-0.7,1.7-0.9,4.1-0.9,6.6
	V507h-26.9c0,0,0.4-73.4,0-81h26.9v11.5c-0.1,0.1-0.1,0.2-0.2,0.3h0.2v-0.3c3.6-5.5,10-13.4,24.3-13.4
	C-205.5,424.1-192.2,435.7-192.2,460.6z M-302.6,387c-9.2,0-15.2,6-15.2,14c0,7.8,5.9,14,14.9,14h0.2c9.4,0,15.2-6.2,15.2-14
	C-287.7,393-293.3,387-302.6,387z M-316.2,507h26.9v-81h-26.9V507z"/>
</svg>
