<?xml version="1.0" encoding="utf-8"?>
<!-- Generator: Adobe Illustrator 18.1.0, SVG Export Plug-In . SVG Version: 6.00 Build 0)  -->
<!DOCTYPE svg PUBLIC "-//W3C//DTD SVG 1.1//EN" "http://www.w3.org/Graphics/SVG/1.1/DTD/svg11.dtd">
<svg version="1.1" id="Layer_1" xmlns="http://www.w3.org/2000/svg" xmlns:xlink="http://www.w3.org/1999/xlink" x="0px" y="0px"
	 viewBox="0 0 150 150" enable-background="new 0 0 150 150" xml:space="preserve">
<path fill="#414042" d="M112.7,37.4C92,16.6,58.2,16.6,37.4,37.3C16.6,58,16.6,91.8,37.3,112.6s54.5,20.8,75.3,0.1
	C133.4,92,133.4,58.2,112.7,37.4z M92.6,31.5l0.1,0c11.5,4.7,20.6,13.6,25.5,25.1l-18.8,8c-2.8-6.5-7.9-11.5-14.4-14.2L92.6,31.5z
	 M31.5,57.3c4.7-11.6,13.7-20.6,25.2-25.5l8,18.8c-6.5,2.7-11.5,7.9-14.2,14.4L31.5,57.3L31.5,57.3z M57.3,118.5L57.3,118.5
	c-11.6-4.7-20.7-13.7-25.5-25.2l18.9-8c2.7,6.5,7.9,11.6,14.4,14.2L57.3,118.5z M61.2,88.8c-7.6-7.6-7.6-20,0-27.7
	c7.6-7.6,20-7.6,27.7,0c7.6,7.6,7.6,20,0,27.7C81.2,96.5,68.8,96.4,61.2,88.8z M93.2,118.3l-7.9-18.9c6.5-2.7,11.6-7.9,14.2-14.4
	l0.1-0.1l18.9,7.8C113.7,104.3,104.8,113.4,93.2,118.3z"/>
</svg>
