<?xml version="1.0" encoding="utf-8"?>
<!-- Generator: Adobe Illustrator 18.1.0, SVG Export Plug-In . SVG Version: 6.00 Build 0)  -->
<svg version="1.1" id="Layer_1" xmlns="http://www.w3.org/2000/svg" xmlns:xlink="http://www.w3.org/1999/xlink" x="0px" y="0px"
	 viewBox="0 0 150 150" enable-background="new 0 0 150 150" xml:space="preserve">
<path fill="#231F20" d="M139.3,35.7c-4.7,2.1-9.7,3.5-14.9,4.1c5.4-3.2,9.5-8.3,11.4-14.4c-5,3-10.6,5.1-16.5,6.3
	c-4.7-5-11.5-8.2-19-8.2c-14.3,0-26,11.6-26,26c0,2,0.2,4,0.7,5.9C53.5,54.4,34.3,44,21.5,28.3c-2.2,3.8-3.5,8.3-3.5,13.1
	c0,9,4.6,17,11.6,21.6c-4.3-0.1-8.3-1.3-11.8-3.2c0,0.1,0,0.2,0,0.3c0,12.6,9,23.1,20.8,25.5c-2.2,0.6-4.5,0.9-6.8,0.9
	c-1.7,0-3.3-0.2-4.9-0.5c3.3,10.3,12.9,17.8,24.3,18c-8.9,7-20.1,11.1-32.2,11.1c-2.1,0-4.2-0.1-6.2-0.4
	c11.5,7.4,25.1,11.7,39.8,11.7c47.8,0,73.9-39.6,73.9-73.9c0-1.1,0-2.2-0.1-3.4C131.4,45.5,135.8,41,139.3,35.7z"/>
</svg>
