<?xml version="1.0" encoding="utf-8"?>
<!-- Generator: Adobe Illustrator 18.1.0, SVG Export Plug-In . SVG Version: 6.00 Build 0)  -->
<svg version="1.1" id="Layer_1" xmlns="http://www.w3.org/2000/svg" xmlns:xlink="http://www.w3.org/1999/xlink" x="0px" y="0px"
	 viewBox="-371 332 150 150" enable-background="new -371 332 150 150" xml:space="preserve">
<path d="M-234.5,456.6l-31.8-31.8c14.3-20.2,12.6-48.4-5.5-66.4c-20.2-20.2-53-20.2-73.2,0c-20.2,20.2-20.2,53,0,73.2
	c18.1,18.1,46.2,19.8,66.4,5.5l31.8,31.8c3.4,3.4,8.9,3.4,12.3,0S-231.1,460-234.5,456.6z M-338.9,425.4
	c-16.8-16.8-16.8-44.1,0-60.9s44.1-16.8,60.9,0c16.8,16.8,16.8,44.1,0,60.9C-294.8,442.2-322.1,442.2-338.9,425.4z"/>
</svg>
