<?xml version="1.0" encoding="utf-8"?>
<!-- Generator: Adobe Illustrator 18.1.0, SVG Export Plug-In . SVG Version: 6.00 Build 0)  -->
<svg version="1.1" id="Icons" xmlns="http://www.w3.org/2000/svg" xmlns:xlink="http://www.w3.org/1999/xlink" x="0px" y="0px"
	 viewBox="-330 372 150 150" enable-background="new -330 372 150 150" xml:space="preserve">
<path id="Facebook" d="M-271.9,408c0,3.2,0,17.5,0,17.5h-12.9V447h12.9v63.8h26.4V447h17.7c0,0,1.7-10.3,2.5-21.5
	c-2.3,0-20.1,0-20.1,0s0-12.5,0-14.7c0-2.2,2.9-5.1,5.7-5.1c2.8,0,8.8,0,14.4,0c0-2.9,0-13,0-22.3c-7.4,0-15.8,0-19.6,0
	C-272.5,383.3-271.9,404.8-271.9,408z"/>
</svg>
