<?xml version="1.0" encoding="utf-8"?>
<!-- Generator: Adobe Illustrator 18.1.0, SVG Export Plug-In . SVG Version: 6.00 Build 0)  -->
<svg version="1.1" id="Layer_1" xmlns="http://www.w3.org/2000/svg" xmlns:xlink="http://www.w3.org/1999/xlink" x="0px" y="0px"
	 viewBox="-367 333 150 150" enable-background="new -367 333 150 150" xml:space="preserve">
<path d="M-231.2,377.5l-8.3-8.5c-2.3-2.3-6.1-2.4-8.4-0.1l-54.3,52.7l-31.8-32.8c-2.3-2.3-6.1-2.4-8.4-0.1l-8.5,8.3
	c-2.3,2.3-2.4,6.1-0.1,8.4l35.5,36.6c0.1,0.2,0.2,0.4,0.4,0.6l8.3,8.5c1.2,1.2,2.7,1.8,4.3,1.8c1.6,0,3.1-0.5,4.3-1.7l8.5-8.3
	c0.2-0.2,0.2-0.4,0.4-0.6l58.1-56.4C-229,383.6-228.9,379.9-231.2,377.5z"/>
</svg>
