<?xml version="1.0" encoding="utf-8"?>
<!-- Generator: Adobe Illustrator 17.0.0, SVG Export Plug-In . SVG Version: 6.00 Build 0)  -->
<!DOCTYPE svg PUBLIC "-//W3C//DTD SVG 1.1//EN" "http://www.w3.org/Graphics/SVG/1.1/DTD/svg11.dtd">
<svg version="1.1" id="Layer_1" xmlns="http://www.w3.org/2000/svg" xmlns:xlink="http://www.w3.org/1999/xlink" x="0px" y="0px"
	 width="150px" height="150px" viewBox="0 0 150 150" enable-background="new 0 0 150 150" xml:space="preserve">
<g>
	<g>
		<path fill="#7A7A7A" d="M59.48,40.171v11.893c0,0,26.944-0.312,28.861,29.081h12.001C100.342,81.145,101.519,42.017,59.48,40.171z
			 M121.343,81.145c-3.321-62.11-61.863-62.279-61.863-62.279v12.139c50.522,2.735,49.822,50.139,49.822,50.139H121.343z
			 M28.968,63.339c0,7.948,1.951,15.436,5.382,22.031v12.385l-17.673,23.759v10.552H62.06v-9.902L45.344,99.887v-0.541
			c8.406,7.345,19.398,11.806,31.438,11.806c5.5,0,10.779-0.941,15.697-2.65l-60.86-60.86C29.909,52.56,28.968,57.838,28.968,63.339
			z M58.296,128.437H20.478v-3.786h37.818V128.437z M50.733,120.873H28.042v-3.783h22.691V120.873z M46.951,109.529v3.779H31.824
			v-3.779H46.951z M35.605,101.963h7.564v3.78h-7.564V101.963z"/>
	</g>
</g>
</svg>
