<?xml version="1.0" encoding="utf-8"?>
<!-- Generator: Adobe Illustrator 17.0.0, SVG Export Plug-In . SVG Version: 6.00 Build 0)  -->
<!DOCTYPE svg PUBLIC "-//W3C//DTD SVG 1.1//EN" "http://www.w3.org/Graphics/SVG/1.1/DTD/svg11.dtd">
<svg version="1.1" id="Layer_1" xmlns="http://www.w3.org/2000/svg" xmlns:xlink="http://www.w3.org/1999/xlink" x="0px" y="0px"
	 width="150px" height="150px" viewBox="0 0 150 150" enable-background="new 0 0 150 150" xml:space="preserve">
<g>
	<g>
		<g>
			<path d="M131.643,14H18.357C15.951,14,14,15.95,14,18.357v113.287V136h4.357h113.287H136v-4.357V18.357
				C136,15.95,134.049,14,131.643,14z M57.572,22.713c2.406,0,4.357,1.951,4.357,4.358c0,2.406-1.951,4.357-4.357,4.357
				c-2.407,0-4.357-1.951-4.357-4.357C53.215,24.665,55.165,22.713,57.572,22.713z M44.5,22.713c2.406,0,4.357,1.951,4.357,4.358
				c0,2.406-1.951,4.357-4.357,4.357s-4.357-1.951-4.357-4.357C40.143,24.665,42.094,22.713,44.5,22.713z M31.428,22.713
				c2.407,0,4.357,1.951,4.357,4.358c0,2.406-1.95,4.357-4.357,4.357c-2.406,0-4.357-1.951-4.357-4.357
				C27.072,24.665,29.023,22.713,31.428,22.713z M127.285,127.285H22.713V40.142h104.572V127.285z"/>
		</g>
	</g>
	<path d="M111.277,104.285V68.083H96.803v-7.143h3.59v-3.59h-3.59h-7.181h-3.59v3.59h3.59v7.143H39.32v36.203h50.302v7.143h-3.59
		v3.59h3.59h7.181h3.59v-3.59h-3.59v-7.143H111.277z M107.687,71.673v29.022H96.803V71.673H107.687z M42.911,100.695V71.673h46.712
		v29.022H42.911z M57.422,79.003h3.59v3.59v3.59v3.59v3.59v3.59h-3.59h-3.59h-3.59v-3.59v-3.59v-3.59h3.59v3.59v3.59h3.59v-3.59
		v-3.59h-3.59v-3.59h-3.59v-3.59h3.59H57.422z M75.374,79.003h-3.59v-3.59h-3.59v3.59v3.59v3.59v3.59v3.59v3.59h3.59h3.59h3.59
		v-3.59v-3.59v-3.59v-3.59v-3.59H75.374z M75.374,86.184v3.59v3.59h-3.59v-3.59v-3.59v-3.59h3.59V86.184z"/>
</g>
</svg>
