<?xml version="1.0" encoding="utf-8"?>
<!-- Generator: Adobe Illustrator 17.0.0, SVG Export Plug-In . SVG Version: 6.00 Build 0)  -->
<!DOCTYPE svg PUBLIC "-//W3C//DTD SVG 1.1//EN" "http://www.w3.org/Graphics/SVG/1.1/DTD/svg11.dtd">
<svg version="1.1" id="Layer_1" xmlns="http://www.w3.org/2000/svg" xmlns:xlink="http://www.w3.org/1999/xlink" x="0px" y="0px"
	 width="150px" height="150px" viewBox="0 0 150 150" enable-background="new 0 0 150 150" xml:space="preserve">
<path d="M44.789,119.602h37.738v3.429H44.789V119.602z M75.665,116.168v-6.86H51.65v6.86H75.665z M87.397,105.687H19.871
	c-3.243,0-5.871-2.64-5.871-5.891V29.411c0-3.251,2.627-5.888,5.871-5.888h87.553c3.242,0,5.871,2.637,5.871,5.888v48.076
	l-1.989,0.513l-0.831-1.707l-2.652,0.557c-0.422,0.088-0.843,0.187-1.279,0.299c0,0,0,0,0,0V30.403H20.774v54.888h72.691
	c-1.56,1.794-2.908,3.785-3.938,5.985C87.416,95.786,86.702,100.799,87.397,105.687z M68.804,93.87c0-2.84-2.304-5.145-5.146-5.145
	c-2.842,0-5.146,2.304-5.146,5.145c0,2.843,2.304,5.146,5.146,5.146C66.5,99.016,68.804,96.713,68.804,93.87z M119.159,123.686
	c-0.267,0.07-0.534,0.134-0.802,0.195l-2.83-5.758c0.679-0.092,1.349-0.224,2.008-0.398c4.564-1.209,8.549-4.308,10.681-8.858
	c1.673-3.581,1.908-7.416,0.951-10.946c-1.069-3.915-3.599-7.394-7.292-9.615l-2.524,5.367l-6.13-12.579l13.709-3.539l-2.412,5.129
	c5.435,3.038,9.184,8.035,10.706,13.64c1.325,4.855,0.993,10.205-1.314,15.124l0,0C130.976,117.722,125.441,122.037,119.159,123.686
	z M107.434,110.336l6.174,12.554l-13.696,3.587l2.281-4.895c-5.496-3.026-9.289-8.051-10.825-13.693l-0.004-0.016
	c-1.324-4.857-0.99-10.206,1.312-15.123c2.935-6.273,8.472-10.586,14.753-12.241c0.367-0.096,0.735-0.179,1.107-0.259l2.821,5.79
	c-0.778,0.09-1.548,0.233-2.304,0.431c-4.564,1.209-8.549,4.308-10.679,8.859c-1.673,3.577-1.909,7.416-0.951,10.945
	c1.079,3.951,3.645,7.461,7.394,9.678L107.434,110.336z"/>
</svg>
