<?xml version="1.0" encoding="utf-8"?>
<!-- Generator: Adobe Illustrator 17.0.0, SVG Export Plug-In . SVG Version: 6.00 Build 0)  -->
<!DOCTYPE svg PUBLIC "-//W3C//DTD SVG 1.1//EN" "http://www.w3.org/Graphics/SVG/1.1/DTD/svg11.dtd">
<svg version="1.1" id="Layer_1" xmlns="http://www.w3.org/2000/svg" xmlns:xlink="http://www.w3.org/1999/xlink" x="0px" y="0px"
	 width="150px" height="150px" viewBox="0 0 150 150" enable-background="new 0 0 150 150" xml:space="preserve">
<path fill-rule="evenodd" clip-rule="evenodd" d="M123.8,133.968H26.2c-6.737,0-12.2-5.463-12.2-12.2V64.834
	c0-6.739,5.463-12.2,12.2-12.2h97.6c6.739,0,12.2,5.461,12.2,12.2v56.933C136,128.505,130.539,133.968,123.8,133.968z M42.467,81.27
	c-6.737,0-12.2,6.371-12.2,14.232c0,7.862,5.463,14.233,12.2,14.233c6.739,0,12.2-6.371,12.2-14.233
	C54.667,87.641,49.205,81.27,42.467,81.27z M74.109,84.754c-0.471-0.964-1.093-1.713-1.864-2.249
	c-0.773-0.534-1.73-0.896-2.874-1.088c-0.815-0.147-1.994-0.222-3.538-0.222h-7.252v28.118h4.097v-8.198h3.424
	c3.291,0,5.565-1.449,6.824-2.82c1.261-1.371,1.889-7.367,1.889-9.348C74.815,87.792,74.58,85.718,74.109,84.754z M95.433,105.277
	H83.001v-8.164h12.02v-3.782h-12.02v-8.355h12.402v-3.78H79.156v28.118h16.277V105.277z M119.549,81.196h-3.718v21.592
	l-12.247-21.592h-4.178v28.118h3.972V88.736l12.247,20.577h3.924V81.196z M66.15,97.081h-3.472V84.976h3.408
	c1.396,0,2.354,0.069,2.872,0.205c0.803,0.222,1.45,0.678,1.944,1.369c0.491,0.691,0.737,1.522,0.737,2.493
	c0,1.34-0.419,6.191-1.254,6.93C69.549,96.712,68.137,97.081,66.15,97.081z M42.467,106.007c-4.49,0-8.133-4.551-8.133-10.165
	c0-5.615,3.643-10.167,8.133-10.167c4.492,0,8.133,4.551,8.133,10.167C50.6,101.456,46.959,106.007,42.467,106.007z M111.6,52.632
	L81.825,30.471c-1.396,1.127-3.148,1.828-5.083,1.828c-2.691,0-5.06-1.323-6.539-3.338L38.4,52.632h-4.067l34.541-26.504
	c-0.158-0.63-0.264-1.281-0.264-1.96c0-4.492,3.641-8.135,8.132-8.135c4.492,0,8.135,3.643,8.135,8.135
	c0,1.462-0.419,2.814-1.093,4.001l31.883,24.464H111.6z"/>
</svg>
