<?xml version="1.0" encoding="utf-8"?>
<!-- Generator: Adobe Illustrator 19.2.1, SVG Export Plug-In . SVG Version: 6.00 Build 0)  -->
<svg version="1.1" id="Layer_1" xmlns="http://www.w3.org/2000/svg" xmlns:xlink="http://www.w3.org/1999/xlink" x="0px" y="0px"
	 viewBox="0 0 150 150" style="enable-background:new 0 0 150 150;" xml:space="preserve">
<style type="text/css">
	.st0{stroke:#FFFFFF;stroke-miterlimit:10;}
</style>
<g>
	<g>
		<path d="M129.9,31.5H8.7l60.6,51L129.9,31.5z M89.7,70.1l40.5,48.3V35.9L89.7,70.1z M69.3,87.5L51.5,72.9l-38.6,45.6h112.8
			L87,72.4L69.3,87.5z M8.2,35.9v82.6l40.5-48.3L8.2,35.9z"/>
	</g>
</g>
<path class="st0" d="M111.6,125.2l7.2,7.2L101.2,150l-7.2-7.2L111.6,125.2z M140.6,127.7c-6.9,6.9-18,6.9-24.9,0s-6.9-18,0-24.9
	s18-6.9,24.9,0S147.5,120.8,140.6,127.7z M135.7,107.8c-4.1-4.1-10.8-4.1-14.9,0s-4.1,10.8,0,14.9s10.8,4.1,14.9,0
	C139.8,118.6,139.8,111.9,135.7,107.8z"/>
</svg>
