<?xml version="1.0" encoding="utf-8"?>
<!-- Generator: Adobe Illustrator 19.2.1, SVG Export Plug-In . SVG Version: 6.00 Build 0)  -->
<svg version="1.1" id="Layer_1" xmlns="http://www.w3.org/2000/svg" xmlns:xlink="http://www.w3.org/1999/xlink" x="0px" y="0px"
	 viewBox="0 0 150 150" style="enable-background:new 0 0 150 150;" xml:space="preserve">
<style type="text/css">
	.st0{fill:#414042;}
</style>
<path class="st0" d="M128,129.4H21.5V22.9H128V129.4z M115.1,112.7c-1-20.1-9.5-38.9-23.7-53.1C77.2,45.3,58.3,36.8,38.3,35.8
	c-0.1,0-0.1,0-0.2,0c-0.9,0-1.8,0.3-2.5,1c-0.7,0.7-1.1,1.6-1.1,2.6v8.2c0,1.9,1.5,3.5,3.4,3.6c33.3,1.9,59.8,28.5,61.7,61.8
	c0.1,1.9,1.7,3.4,3.7,3.4h8.2c1,0,1.9-0.4,2.6-1.1C114.8,114.6,115.2,113.6,115.1,112.7z M85.8,112.5c-1-12.2-6.3-23.7-15-32.4
	c-8.7-8.7-20.2-14-32.4-15c-0.1,0-0.2,0-0.3,0c-0.9,0-1.8,0.3-2.5,1c-0.8,0.7-1.2,1.7-1.2,2.7v7.7c0,1.9,1.4,3.4,3.3,3.6
	c17.5,1.7,31.3,15.5,33,33c0.2,1.9,1.7,3.3,3.6,3.3h7.7c1,0,2-0.4,2.7-1.2C85.5,114.5,85.8,113.6,85.8,112.5z M56.4,105.5
	c0-6.1-4.9-11-11-11s-11,4.9-11,11s4.9,11,11,11S56.4,111.6,56.4,105.5z"/>
</svg>
