<?xml version="1.0" encoding="utf-8"?>
<!-- Generator: Adobe Illustrator 19.2.1, SVG Export Plug-In . SVG Version: 6.00 Build 0)  -->
<svg version="1.1" id="Layer_1" xmlns="http://www.w3.org/2000/svg" xmlns:xlink="http://www.w3.org/1999/xlink" x="0px" y="0px"
	 viewBox="0 0 150 150" style="enable-background:new 0 0 150 150;" xml:space="preserve">
<style type="text/css">
	.st0{fill:#414042;}
</style>
<path class="st0" d="M120,132H31c-6.6,0-12-5.4-12-12V31c0-6.6,5.4-12,12-12h89c6.6,0,12,5.4,12,12v89C132,126.6,126.6,132,120,132z
	 M49.5,31C39.8,31,32,38.8,32,48.5S39.8,66,49.5,66S67,58.2,67,48.5S59.2,31,49.5,31z M101.5,31C91.8,31,84,38.8,84,48.5
	S91.8,66,101.5,66S119,58.2,119,48.5S111.2,31,101.5,31z M49.5,86C39.8,86,32,93.8,32,103.5S39.8,121,49.5,121S67,113.2,67,103.5
	S59.2,86,49.5,86z M101.5,86C91.8,86,84,93.8,84,103.5s7.8,17.5,17.5,17.5s17.5-7.8,17.5-17.5S111.2,86,101.5,86z"/>
<g>
	<path class="st0" d="M61.6,50c0,0.9-0.8,1.7-1.7,1.7h-7.3V59c0,0.9-0.8,1.7-1.7,1.7h-3.4c-0.9,0-1.7-0.8-1.7-1.7v-7.3h-7.3
		c-0.9,0-1.7-0.8-1.7-1.7v-3.4c0-0.9,0.8-1.7,1.7-1.7h7.3v-7.3c0-0.9,0.8-1.7,1.7-1.7h3.4c0.9,0,1.7,0.8,1.7,1.7v7.3h7.3
		c0.9,0,1.7,0.8,1.7,1.7V50z"/>
</g>
<g>
	<path class="st0" d="M113.6,50c0,0.9-0.8,1.7-1.7,1.7H90.5c-0.9,0-1.7-0.8-1.7-1.7v-3.4c0-0.9,0.8-1.7,1.7-1.7h21.4
		c0.9,0,1.7,0.8,1.7,1.7V50z"/>
</g>
<g>
	<path class="st0" d="M59.2,112.1l-2.4,2.4c-0.3,0.3-0.8,0.5-1.2,0.5s-0.9-0.2-1.2-0.5l-5.2-5.2l-5.2,5.2c-0.3,0.3-0.8,0.5-1.2,0.5
		s-0.9-0.2-1.2-0.5l-2.4-2.4c-0.3-0.3-0.5-0.8-0.5-1.2s0.2-0.9,0.5-1.2l5.2-5.2l-5.2-5.2c-0.3-0.3-0.5-0.8-0.5-1.2s0.2-0.9,0.5-1.2
		l2.4-2.4c0.3-0.3,0.8-0.5,1.2-0.5s0.9,0.2,1.2,0.5l5.2,5.2l5.2-5.2c0.3-0.3,0.8-0.5,1.2-0.5s0.9,0.2,1.2,0.5l2.4,2.4
		c0.3,0.3,0.5,0.8,0.5,1.2s-0.2,0.9-0.5,1.2l-5.2,5.2l5.2,5.2c0.3,0.3,0.5,0.8,0.5,1.2S59.5,111.8,59.2,112.1z"/>
</g>
<g>
	<path class="st0" d="M114.1,105c0,0.9-0.8,1.7-1.7,1.7H91c-0.9,0-1.7-0.8-1.7-1.7v-3.4c0-0.9,0.8-1.7,1.7-1.7h21.4
		c0.9,0,1.7,0.8,1.7,1.7V105z"/>
</g>
<circle class="st0" cx="101.7" cy="94.4" r="2.9"/>
<circle class="st0" cx="101.7" cy="111.4" r="2.9"/>
</svg>
