<?xml version="1.0" encoding="utf-8"?>
<!-- Generator: Adobe Illustrator 17.0.0, SVG Export Plug-In . SVG Version: 6.00 Build 0)  -->
<!DOCTYPE svg PUBLIC "-//W3C//DTD SVG 1.1//EN" "http://www.w3.org/Graphics/SVG/1.1/DTD/svg11.dtd">
<svg version="1.1" id="Layer_1" xmlns="http://www.w3.org/2000/svg" xmlns:xlink="http://www.w3.org/1999/xlink" x="0px" y="0px"
	 width="150px" height="150px" viewBox="0 0 150 150" enable-background="new 0 0 150 150" xml:space="preserve">
<g>
	<g>
		<path fill="#7A7A7A" d="M75,14c-33.689,0-61,27.311-61,61.002C14,108.691,41.311,136,75,136s61-27.309,61-60.998
			C136,41.311,108.689,14,75,14z M23.859,74.879c0-6.51,1.251-12.725,3.503-18.435l3.891,7.589l-2.218,9.86l8.133,9.612l6.902,8.622
			l7.886,8.38c0,0,3.698,7.152,4.19,8.135c0.493,0.986,0.247,8.874,0.247,8.874l4.076,5.742
			C39.345,117.302,23.859,97.906,23.859,74.879z M74.137,125.154c-3.778,0-7.453-0.43-10.992-1.22l7.542-6.912l7.394-13.806
			l-4.683-8.375l-8.626-5.177l-13.309-1.727l-7.394-6.158l8.38-4.44L66.99,61.569l-7.394-7.891l-0.739,5.67l-3.697,2.466
			l-4.683-4.685l4.929-12.323L42.59,44.314l-2.227-6.681c8.925-8.099,20.773-13.035,33.774-13.035
			c11.902,0,22.83,4.145,31.441,11.057l-2.358,4.715l-18.239-1.48l-2.71,12.572l-6.408,9.862l23.414,1.72l9.119,7.148l9.365,0.987
			l6.491-0.188c0.098,1.284,0.164,2.577,0.164,3.886C124.416,102.646,101.905,125.154,74.137,125.154z M106.178,75.86
			c-0.986-0.243-12.816-2.706-12.816-2.706l-15.281-2.224l0.74,11.097l9.859,5.172l3.943,6.901l0.493,8.871l1.479,6.656l11.584-2.71
			l2.218-11.831l3.204-12.321C111.6,82.766,107.164,76.109,106.178,75.86z"/>
	</g>
</g>
</svg>
