<?xml version="1.0" encoding="utf-8"?>
<!-- Generator: Adobe Illustrator 19.2.1, SVG Export Plug-In . SVG Version: 6.00 Build 0)  -->
<svg version="1.1" id="Layer_1" xmlns="http://www.w3.org/2000/svg" xmlns:xlink="http://www.w3.org/1999/xlink" x="0px" y="0px"
	 viewBox="0 0 150 92" style="enable-background:new 0 0 150 92;" xml:space="preserve">
<style type="text/css">
	.st0{fill:#414042;}
	.st1{enable-background:new    ;}
	.st2{fill:#414042;stroke:#FFFFFF;stroke-width:2;stroke-miterlimit:10;}
</style>
<g>
	<g>
		<path class="st0" d="M144.1,21.6L85.4,4.4l-5.6,19.2H58.4v62.3h61.2v-6.5l6.9,2L144.1,21.6z M113.9,29.3v37H64.1v-37
			C64.1,29.3,113.9,29.3,113.9,29.3z M119.6,73.4V23.6H85.7l3.6-12.1l47.8,14l-14.4,48.8L119.6,73.4z"/>
		<polygon class="st0" points="108.3,61.4 98.7,42.9 90.6,54.7 85.3,49.2 79.6,56.3 75.4,54.7 70.6,62.2 108.3,62.2 		"/>
		<circle class="st0" cx="76.5" cy="41.6" r="5.2"/>
	</g>
	<g>
		<g>
			<g class="st1">
				<path class="st0" d="M6.5,29.7c0-3.3,2.7-6,6-6h46.3v62.7H12.5c-3.3,0-6-2.7-6-6V29.7z M11.3,35.7c0,1.3,1.1,2.4,2.4,2.4h4.8
					c1.3,0,2.4-1.1,2.4-2.4v-4.8c0-1.3-1.1-2.4-2.4-2.4h-4.8c-1.3,0-2.4,1.1-2.4,2.4C11.3,30.9,11.3,35.7,11.3,35.7z M11.3,50.2
					c0,1.3,1.1,2.4,2.4,2.4h4.8c1.3,0,2.4-1.1,2.4-2.4v-4.8c0-1.3-1.1-2.4-2.4-2.4h-4.8c-1.3,0-2.4,1.1-2.4,2.4
					C11.3,45.4,11.3,50.2,11.3,50.2z M11.3,64.6c0,1.3,1.1,2.4,2.4,2.4h4.8c1.3,0,2.4-1.1,2.4-2.4v-4.8c0-1.3-1.1-2.4-2.4-2.4h-4.8
					c-1.3,0-2.4,1.1-2.4,2.4C11.3,59.8,11.3,64.6,11.3,64.6z M11.3,79.1c0,1.3,1.1,2.4,2.4,2.4h4.8c1.3,0,2.4-1.1,2.4-2.4v-4.8
					c0-1.3-1.1-2.4-2.4-2.4h-4.8c-1.3,0-2.4,1.1-2.4,2.4C11.3,74.3,11.3,79.1,11.3,79.1z M25.8,50.2c0,1.3,1.1,2.4,2.4,2.4h28.9
					V28.5H28.2c-1.3,0-2.4,1.1-2.4,2.4C25.8,30.9,25.8,50.2,25.8,50.2z M25.8,79.1c0,1.3,1.1,2.4,2.4,2.4h28.9V57.4H28.2
					c-1.3,0-2.4,1.1-2.4,2.4C25.8,59.8,25.8,79.1,25.8,79.1z"/>
			</g>
		</g>
	</g>
	<polygon class="st2" points="70.6,54.6 35.5,74.8 35.5,34.3 	"/>
</g>
</svg>
