<?xml version="1.0" encoding="utf-8"?>
<!-- Generator: Adobe Illustrator 19.2.1, SVG Export Plug-In . SVG Version: 6.00 Build 0)  -->
<svg version="1.1" id="Layer_1" xmlns="http://www.w3.org/2000/svg" xmlns:xlink="http://www.w3.org/1999/xlink" x="0px" y="0px"
	 viewBox="0 0 150 150" style="enable-background:new 0 0 150 150;" xml:space="preserve">
<path d="M84.8,84.3c0-2.2,0.8-4.2,2.4-5.8l1.5-1.5c1.5-1.5,3.6-2.4,5.8-2.4c1.4,0,2.8,0.4,4,1.1l6.2-5.8c2.5-0.4,1.8-45.2,1.8-45.2
	s-41.3-1.4-44.2,1.5L16.5,67.7c-5.1,3.3-1.3,8.7,2.7,13.3l28.7,31.8c2.9,2.9,7.7,2.9,10.7,0l27.1-25.3
	C85.1,86.6,84.8,85.5,84.8,84.3z M84.9,34.2c3.1-3.1,8.1-3.1,11.1,0c3.1,3.1,3.1,8.1,0,11.1s-8.1,3.1-11.1,0
	C81.8,42.2,81.8,37.3,84.9,34.2z M131.8,104.8H129c-0.5,1.6-1.1,3.2-1.9,4.6l2.6,2.6c1.6,1.6,1.6,4.3,0,5.9l-1.5,1.5
	c-1.6,1.6-4.3,1.6-5.9,0l-2.6-2.6c-1.4,0.8-3,1.4-4.6,1.9v2.7c0,2.3-1.9,4.2-4.2,4.2h-2.1c-2.3,0-4.2-1.9-4.2-4.2v-2.7
	c-1.6-0.4-3.2-1.1-4.6-1.9l-2.6,2.6c-1.6,1.6-4.3,1.6-5.9,0l-1.5-1.5c-1.6-1.6-1.6-4.3,0-5.9l2.6-2.6c-0.8-1.4-1.5-3-1.9-4.6h-2.8
	c-2.3,0-4.2-1.9-4.2-4.2v-2.1c0-2.3,1.9-4.2,4.2-4.2h2.7c0.4-1.6,1.1-3.2,1.9-4.6L90,87.2c-1.6-1.6-1.6-4.3,0-5.9l1.5-1.5
	c1.6-1.6,4.3-1.6,5.9,0l2.4,2.4c1.5-0.9,3.1-1.5,4.8-2v-2.8c0-2.3,1.9-4.2,4.2-4.2h2.1c2.3,0,4.2,1.9,4.2,4.2v2.8
	c1.7,0.5,3.3,1.1,4.8,2l2.4-2.4c1.6-1.6,4.3-1.6,5.9,0l1.5,1.5c1.6,1.6,1.6,4.3,0,5.9l-2.5,2.5c0.8,1.4,1.4,3,1.9,4.6h2.7
	c2.3,0,4.2,1.9,4.2,4.2v2.1C136,102.9,134.1,104.8,131.8,104.8z M109.8,88.1c-6.4,0-11.5,5.2-11.5,11.5c0,6.4,5.2,11.5,11.5,11.5
	c6.4,0,11.5-5.2,11.5-11.5C121.4,93.2,116.2,88.1,109.8,88.1z M109.8,104.7c-2.9,0-5.2-2.3-5.2-5.2s2.3-5.2,5.2-5.2
	c2.9,0,5.2,2.3,5.2,5.2S112.7,104.7,109.8,104.7z M45.3,53.8c0.8-0.7,1.7-1.3,2.7-1.9c1-0.6,2-1.1,3.1-1.6c1.1-0.5,2.3-0.8,3.6-1.1
	c1.3-0.3,2.6-0.4,4.1-0.4c2.1,0,3.9,0.3,5.6,0.8c1.7,0.6,3.1,1.3,4.3,2.4c1.2,1,2.1,2.3,2.7,3.7s0.9,3.1,0.9,4.8
	c0,1.7-0.2,3.2-0.7,4.4s-1.1,2.3-1.8,3.2c-0.7,0.9-1.5,1.7-2.4,2.3c-0.8,0.7-1.7,1.3-2.4,1.8c-0.8,0.6-1.4,1.1-2,1.7
	c-0.6,0.6-0.9,1.2-1,1.9l-0.9,4.6h-7l-0.7-5.3c0-0.1,0-0.3,0-0.4c0-0.1,0-0.3,0-0.4c0-1,0.2-1.8,0.7-2.5c0.5-0.7,1-1.4,1.8-2
	c0.7-0.6,1.5-1.2,2.3-1.8c0.8-0.6,1.6-1.2,2.3-1.8c0.7-0.7,1.3-1.4,1.8-2.2c0.5-0.8,0.7-1.8,0.7-2.9c0-1.3-0.4-2.4-1.3-3.2
	c-0.9-0.8-2.1-1.2-3.6-1.2c-1.2,0-2.1,0.1-2.9,0.4c-0.8,0.2-1.5,0.5-2,0.8c-0.6,0.3-1.1,0.6-1.5,0.8c-0.4,0.2-0.8,0.4-1.3,0.4
	c-0.9,0-1.7-0.4-2.1-1.2L45.3,53.8z M51.4,92.4c0-0.8,0.1-1.5,0.4-2.2c0.3-0.7,0.7-1.3,1.2-1.8c0.5-0.5,1.1-0.9,1.8-1.2
	c0.7-0.3,1.5-0.4,2.3-0.4c0.8,0,1.6,0.1,2.3,0.4c0.7,0.3,1.3,0.7,1.9,1.2c0.5,0.5,0.9,1.1,1.2,1.8c0.3,0.7,0.4,1.4,0.4,2.2
	s-0.1,1.5-0.4,2.2c-0.3,0.7-0.7,1.3-1.2,1.8c-0.5,0.5-1.1,0.9-1.9,1.2C58.8,97.9,58,98,57.2,98c-0.8,0-1.6-0.1-2.3-0.4
	c-0.7-0.3-1.3-0.7-1.8-1.2c-0.5-0.5-0.9-1.1-1.2-1.8C51.5,93.9,51.4,93.2,51.4,92.4z"/>
</svg>
