<?xml version="1.0" encoding="utf-8"?>
<!-- Generator: Adobe Illustrator 18.1.0, SVG Export Plug-In . SVG Version: 6.00 Build 0)  -->
<svg version="1.1" id="Layer_1" xmlns="http://www.w3.org/2000/svg" xmlns:xlink="http://www.w3.org/1999/xlink" x="0px" y="0px"
	 viewBox="-361 335 150 150" enable-background="new -361 335 150 150" xml:space="preserve">
<g>
	<path d="M-285.3,390.2c-10.9,0-19.7,8.8-19.7,19.7c0,10.9,8.8,19.7,19.7,19.7s19.7-8.8,19.7-19.7
		C-265.6,399-274.5,390.2-285.3,390.2z"/>
	<path d="M-285.3,376.8c-36.5,0-66,33-66,33s29.6,33,66,33c36.5,0,66-33,66-33S-248.9,376.8-285.3,376.8z M-285.3,438.2
		c-15.6,0-28.3-12.7-28.3-28.3c0-15.6,12.7-28.3,28.3-28.3c15.6,0,28.3,12.7,28.3,28.3C-257,425.5-269.7,438.2-285.3,438.2z"/>
</g>
</svg>
