<?xml version="1.0" encoding="utf-8"?>
<!-- Generator: Adobe Illustrator 19.2.1, SVG Export Plug-In . SVG Version: 6.00 Build 0)  -->
<svg version="1.1" id="Layer_1" xmlns="http://www.w3.org/2000/svg" xmlns:xlink="http://www.w3.org/1999/xlink" x="0px" y="0px"
	 viewBox="0 0 150 150" style="enable-background:new 0 0 150 150;" xml:space="preserve">
<style type="text/css">
	.st0{fill:#A7ACBD;}
</style>
<path class="st0" d="M120.3,16.2v11.3H4.1V16.2c0-4.4,3.6-8.1,8.1-8.1h100C116.7,8.1,120.3,11.8,120.3,16.2z M4.1,46.9h116.2v30.7
	c0,4.4-3.6,8.1-8.1,8.1h-100c-4.4,0-8.1-3.6-8.1-8.1V46.9z M17,72.7h12.9v-6.5H17V72.7z M36.4,72.7h19.4v-6.5H36.4V72.7z
	 M142.3,97.7c0.2-1.2,0.3-2.5,0.3-3.8c0-14.3-11.6-25.9-25.9-25.9S90.9,79.7,90.9,93.9c0,1.4,0.1,2.8,0.3,4.1
	c-1.8,1.8-3.2,4-3.2,5.7c0,9.8,0,19.5,0,29.3c0,2.9,3.6,7,6.5,7.8c15.3,4.2,30.2,4.2,44.9,0c2.8-0.8,6.3-4.9,6.3-7.8
	c0-9.8,0-19.5,0-29.3C145.7,101.9,144.2,99.5,142.3,97.7z M124.8,131.2h-14.9l5-14.8c-2.9-1-5-3.8-5-7c0-4.1,3.3-7.4,7.4-7.4
	s7.4,3.3,7.4,7.4c0,3.2-2.1,6-5,7L124.8,131.2z M136.6,94c-4.5-2.8-11.6-4.6-19.5-4.6c-7.8,0-14.8,1.8-19.4,4.5c0-0.2,0-0.4,0-0.6
	c0-10.7,8.7-19.5,19.5-19.5c10.7,0,19.5,8.7,19.5,19.5C136.6,93.6,136.6,93.8,136.6,94z"/>
</svg>
