<?xml version="1.0" encoding="utf-8"?>
<!-- Generator: Adobe Illustrator 19.2.1, SVG Export Plug-In . SVG Version: 6.00 Build 0)  -->
<svg version="1.1" id="Layer_1" xmlns="http://www.w3.org/2000/svg" xmlns:xlink="http://www.w3.org/1999/xlink" x="0px" y="0px"
	 viewBox="0 0 150 150" style="enable-background:new 0 0 150 150;" xml:space="preserve">
<style type="text/css">
	.st0{fill:#A7ACBD;}
	.st1{fill:#FFFFFF;}
</style>
<g>
	<g>
		<g>
			<path class="st0" d="M146,25.9H6.4l69.8,58.7L146,25.9z M99.7,70.4l46.6,55.6V30.9L99.7,70.4z M76.1,90.4L55.7,73.6l-44.5,52.5
				h129.9l-44.5-53L76.1,90.4z M5.8,30.9V126l46.6-55.6L5.8,30.9z"/>
		</g>
	</g>
	<g>
		<path class="st1" d="M80,42.1l0.5-2.1h5.1l-2.9,13.8c-0.2,0.9-0.3,1.4-0.3,1.7c0,0.3,0.1,0.5,0.2,0.7c0.1,0.2,0.3,0.2,0.5,0.2
			c0.7,0,1.6-0.5,2.7-1.4s2-2.1,2.9-3.7c0.8-1.6,1.2-3.3,1.2-5.1c0-1.5-0.3-3-0.9-4.3c-0.6-1.4-1.4-2.5-2.5-3.5
			c-1.1-1-2.5-1.8-4.1-2.3c-1.6-0.6-3.5-0.8-5.5-0.8c-2.1,0-4,0.3-5.7,0.8c-1.7,0.5-3.3,1.3-4.6,2.3c-1.3,1-2.4,2.3-3.3,3.8
			c-0.8,1.3-1.4,2.8-1.8,4.3c-0.4,1.6-0.6,3.2-0.6,4.9c0,2.2,0.4,4.2,1.3,6c0.9,1.8,2.2,3.4,3.8,4.6c1.7,1.2,3.7,2.1,6.1,2.6
			c2.4,0.5,5,0.6,8,0.3c2.4-0.3,4.4-0.8,6-1.6c1.6-0.8,3-1.9,4.2-3.3h4.1c-0.7,1.4-1.5,2.6-2.6,3.7c-1.1,1.1-2.3,2-3.8,2.7
			c-1.4,0.7-3,1.3-4.8,1.7c-1.8,0.4-3.7,0.6-5.8,0.6c-3.2,0-6-0.4-8.5-1.2c-2.5-0.8-4.6-2-6.4-3.6c-1.7-1.6-3-3.4-3.9-5.6
			c-0.9-2.2-1.3-4.5-1.3-7.2c0-2.7,0.5-5.3,1.4-7.6c0.9-2.4,2.2-4.4,3.9-6.2c1.7-1.7,3.8-3.1,6.3-4.1c2.5-1,5.2-1.5,8.2-1.5
			c2.4,0,4.7,0.4,6.7,1.1c2,0.7,3.8,1.7,5.2,3.1c1.4,1.3,2.6,2.9,3.3,4.7c0.8,1.8,1.1,3.8,1.1,6c0,1.7-0.3,3.4-0.9,5
			c-0.6,1.6-1.5,3.1-2.6,4.4c-1.1,1.3-2.5,2.4-4,3.1c-1.5,0.8-3.2,1.1-5,1.1c-1,0-1.8-0.2-2.4-0.5c-0.6-0.4-1-0.9-1.2-1.7
			c-1.1,1.1-2.4,1.8-3.8,2.1c-1.4,0.3-2.8,0.2-4.2-0.4c-1.4-0.6-2.5-1.5-3.3-2.8c-0.8-1.3-1.3-2.9-1.3-4.9c0-2,0.4-4,1.3-5.9
			c0.9-1.9,2.1-3.5,3.7-4.8c1.6-1.2,3.4-1.9,5.4-1.9C77.2,39.5,78.9,40.3,80,42.1z M69.5,52c0,1.5,0.3,2.7,1,3.5
			c0.6,0.8,1.5,1.2,2.5,1.2c1.2,0,2.3-0.5,3.2-1.4c0.9-1,1.6-2.2,2.1-3.6c0.5-1.5,0.7-2.9,0.7-4.3c0-0.7-0.1-1.3-0.2-1.8
			c-0.2-0.5-0.4-1-0.7-1.4c-0.3-0.4-0.7-0.7-1.1-0.9s-0.9-0.3-1.5-0.3c-1.1,0-2.1,0.4-3,1.3c-0.9,0.9-1.6,2-2.1,3.4
			C69.7,49.1,69.5,50.5,69.5,52z"/>
	</g>
</g>
</svg>
