<?xml version="1.0" encoding="utf-8"?>
<!-- Generator: Adobe Illustrator 19.2.1, SVG Export Plug-In . SVG Version: 6.00 Build 0)  -->
<svg version="1.1" id="Layer_1" xmlns="http://www.w3.org/2000/svg" xmlns:xlink="http://www.w3.org/1999/xlink" x="0px" y="0px"
	 viewBox="0 0 150 150" style="enable-background:new 0 0 150 150;" xml:space="preserve">
<style type="text/css">
	.st0{fill-rule:evenodd;clip-rule:evenodd;}
</style>
<g>
	<g id="形状_3_18_">
		<g>
			<path class="st0" d="M62.7,81.9c-3.9-4-6.8-8.4-6.8-8.4l-8.4-2.1c0,0,2.1,2.9,4.7,5.6c2.4,2.5,5.3,4.9,5.3,4.9s3.3,2.5,6.7,4.1
				c2.6,1.2,5.5,1.6,5.5,1.6S65.5,84.8,62.7,81.9z"/>
		</g>
	</g>
	<g id="形状_2_9_">
		<g>
			<path class="st0" d="M63.5,88.2c-3.4-0.9-5.8-2.4-5.8-2.4s-2-1.3-3.8-2.7c-2.6-2.2-5.4-5-5.4-5s-1.3-1.4-2.8-3.2
				c-1.8-2.1-3.8-4.7-3.8-4.7l-13-4.4c0,0,1.9,3.2,4.1,6.2c1.8,2.6,3.9,5.1,3.9,5.1s2.4,2.9,5,5.3c2.3,2.1,4.8,3.9,4.8,3.9
				s2.6,1.8,5.9,3.1c2.3,0.9,4.5,1.2,6.3,1.4c2.2,0.2,3.9,0.2,6.3,0c2.8-0.3,6.8-1.3,6.8-1.3S67.2,89.2,63.5,88.2z"/>
		</g>
	</g>
	<g id="形状_3_16_">
		<g>
			<path class="st0" d="M62.7,81.9c-3.9-4-6.8-8.4-6.8-8.4l-8.4-2.1c0,0,2.1,2.9,4.7,5.6c2.4,2.5,5.3,4.9,5.3,4.9s3.3,2.5,6.7,4.1
				c2.6,1.2,5.5,1.6,5.5,1.6S65.5,84.8,62.7,81.9z"/>
		</g>
	</g>
	<g id="形状_1_8_">
		<g>
			<path class="st0" d="M70.3,103.3c-3.2-1-6.3-2.3-6.3-2.3s-3.1-1.1-6.2-2.7c-3.1-1.5-6.2-3.5-6.2-3.5s-2.7-1.5-5.6-3.6
				c-2.8-2-5.7-4.7-5.7-4.7s-2.1-1.7-4.2-3.7c-2.5-2.4-5.1-5.1-5.1-5.1s-2-2.4-4.4-5.7c-2.8-3.8-6-8.5-6-8.5L5.2,57.8
				c0,0,2.2,3.7,4.6,7.3c2,3,4.4,5.8,4.4,5.8s2.8,3.3,5.3,6c2.7,2.8,5.1,5,5.1,5s2.6,2.4,5.3,4.5c2.8,2.3,5.8,4.3,5.8,4.3
				s2.7,2,5.5,3.6c2.8,1.7,5.6,3.1,5.6,3.1s3.1,1.6,6.4,2.8c3.5,1.4,7.2,2.4,7.2,2.4s2,0.5,4.1,1c2.1,0.5,4.3,0.9,4.3,0.9
				s2.7,0.4,5,0.6c1.9,0.2,3.6,0,3.6,0S73.8,104.4,70.3,103.3z"/>
		</g>
	</g>
	<g id="形状_4_8_">
		<g>
			<path class="st0" d="M108.5,49.4c0,0-1.9,4.9-4.1,9.5c-1.9,4-4.1,7.8-4.1,7.8s-2.8,4.4-5.7,8.1c-3,3.9-6.1,7.2-6.1,7.2
				s-2.8,2.9-6.2,5.5c-2.8,2.1-6.1,4-6.1,4s-2.5,1.3-5.5,2.6c-3.1,1.3-6.9,2.5-6.9,2.5s3.7,0,7.5-0.8c3.9-0.8,7.8-2.3,7.8-2.3
				s5.3-1.9,9.6-4.1c4.9-2.5,9-5.4,9-5.4s2.9-1.9,6.5-4.8c2.9-2.3,6.7-5.8,6.7-5.8s3.2-3.3,5.8-6.3c2-2.4,3.6-4.7,3.6-4.7
				s2.4-3.3,4.4-6.7c1.7-3,3.1-6.1,3.1-6.1H108.5z"/>
		</g>
	</g>
	<g id="形状_5_9_">
		<g>
			<path class="st0" d="M129.4,65.9c0,0-6,5.8-12.2,10.7c-5.8,4.6-11.9,8.4-11.9,8.4s-3.4,2.2-7.3,4.1c-4,1.9-8.5,3.6-8.5,3.6
				s-3.4,1.1-6.3,1.6c-3.3,0.6-6.2,0.6-6.2,0.6s5.7,1.2,10.6,3.1c3.3,1.3,6.4,3.4,6.4,3.4s2.9,1.9,4.9,4.4c1.8,2.2,2.8,4.9,2.8,4.9
				l5.2-5.7c0,0-3-3.3-7.3-5.8c-4-2.3-9.4-3.7-9.4-3.7s5.5-0.5,11.2-1.9c5.1-1.2,10.5-3.4,10.5-3.4s4.2-1.7,8.2-3.7
				c1.4-0.7,4.2-2.3,7.3-4.2c3.3-2.1,7-4.7,9.7-7.1c4.4-4,7.8-8.7,7.8-8.7L129.4,65.9z"/>
		</g>
	</g>
</g>
</svg>
