<?xml version="1.0" encoding="utf-8"?>
<!-- Generator: Adobe Illustrator 19.2.1, SVG Export Plug-In . SVG Version: 6.00 Build 0)  -->
<svg version="1.1" id="Layer_1" xmlns="http://www.w3.org/2000/svg" xmlns:xlink="http://www.w3.org/1999/xlink" x="0px" y="0px"
	 viewBox="0 0 150 150" style="enable-background:new 0 0 150 150;" xml:space="preserve">
<style type="text/css">
	.st0{fill:#414042;}
</style>
<path class="st0" d="M108.3,116.5c-0.3-3.7-0.6-7.5-1-11.2c-0.3-3.1-1.7-5.4-4.2-7.1c-3-2.1-6.3-3-9.8-3.6c-2.8-0.5-5.7-0.7-8.1-2.6
	l-2-4.4L83,87.8c0.1-1.3,0.1-2.6,0.3-3.9c0.1-0.4,0.2-0.9,0.4-1.2c2.8-2.8,4.6-6,5.3-9.9c0.1-0.2,0.3-0.5,0.4-0.6c3-1,3.7-6.7,0.9-9
	c-0.3-0.3-0.5-0.7-0.6-1.1c-0.2-3.3-0.2-6.5-0.4-9.8c-0.1-1.9-0.6-3.7-2.7-4.2c-1.5-0.4-3-0.3-4.6-0.5c-0.3-0.1-0.7-0.1-0.9-0.4
	c-1.1-1.3-2.4-2.4-4.2-2.6c-3.4-0.4-6.9-0.5-10.2,0.5c-4.1,1.3-6.5,4.3-6.7,8.3c-0.1,3-0.3,5.8-0.4,8.8c0,0.3-0.1,0.6-0.3,0.6
	c-2.1,1-2.7,4-2.1,6.3c0.3,1.3,0.9,2.4,2.2,2.9c0.7,0.3,0.8,0.6,1,1.3c0.6,3.9,2.6,6.7,5.6,9c0.3,0.3,0.6,0.7,0.6,1.1
	c0,1.5-0.1,3-0.1,4.4c0,0.1,0,0.3,0,0.4L66.4,88L65,91.8c-1.7,1.2-3.7,1.9-5.8,2.3c-1.7,0.3-3.3,0.6-4.9,0.9c-3.1,0.6-6,1.6-8.6,3.5
	c-1.9,1.4-3.2,3-3.3,5.5c-0.1,2.6-0.5,5.2-0.6,7.8c-0.1,1.7,0,3.5,0,5.3c0.4,0,1.1,0,1.1,0s11.4,2.7,32.6,2.7s32.8-2.8,32.8-2.8
	S108.3,116.7,108.3,116.5z"/>
<g>
	<path class="st0" d="M130.3,75.1h15.9l-24.4-25l-24.4,25h15.9c0,20.5-16.7,37.1-37.1,37.1c-8.6,0-16.9-3-23.5-8.4L41.9,117
		c9.6,7.9,21.8,12.3,34.3,12.3C106.1,129.2,130.3,105,130.3,75.1z"/>
	<path class="st0" d="M19.7,74.9H3.8l24.4,25l24.4-25H36.8c0-20.5,16.7-37.1,37.1-37.1c8.6,0,16.9,3,23.5,8.4L108.2,33
		C98.6,25,86.4,20.7,73.9,20.7C44,20.8,19.7,45,19.7,74.9z"/>
</g>
</svg>
