<?xml version="1.0" encoding="utf-8"?>
<!-- Generator: Adobe Illustrator 19.2.1, SVG Export Plug-In . SVG Version: 6.00 Build 0)  -->
<svg version="1.1" id="Layer_1" xmlns="http://www.w3.org/2000/svg" xmlns:xlink="http://www.w3.org/1999/xlink" x="0px" y="0px"
	 viewBox="0 0 150 150" style="enable-background:new 0 0 150 150;" xml:space="preserve">
<path d="M136.6,124.2l-31.8-31.8c14.3-20.2,12.6-48.4-5.5-66.4c-20.2-20.2-53-20.2-73.2,0s-20.2,53,0,73.2
	c18.1,18.1,46.2,19.8,66.4,5.5l31.8,31.8c3.4,3.4,8.9,3.4,12.3,0S139.9,127.6,136.6,124.2z M32.2,93c-16.8-16.8-16.8-44.1,0-60.9
	s44.1-16.8,60.9,0s16.8,44.1,0,60.9C76.3,109.8,48.9,109.8,32.2,93z"/>
<g>
	<path d="M66.5,87.6v6.3c0,0.7-0.5,1.2-1.2,1.2h-4.9c-0.6,0-1.2-0.5-1.2-1.2v-6.3c-8.5-1.2-13.1-6.3-13.3-6.5
		c-0.4-0.4-0.4-1.1-0.1-1.5l3.7-4.9c0.2-0.3,0.5-0.4,0.8-0.4c0.3,0,0.7,0.1,0.9,0.3c0.1,0,5.1,4.9,11.6,4.9c3.5,0,7.4-1.9,7.4-6
		c0-3.5-4.3-5.2-9.2-7.1c-6.5-2.6-14.6-5.8-14.6-14.9c0-6.7,5.2-12.2,12.8-13.6v-6.5c0-0.7,0.5-1.2,1.2-1.2h4.9
		c0.7,0,1.2,0.5,1.2,1.2v6.4c7.4,0.8,11.3,4.8,11.4,5c0.4,0.4,0.4,0.9,0.2,1.4l-2.9,5.3c-0.2,0.3-0.5,0.5-0.8,0.6
		c-0.4,0.1-0.7,0-1-0.3c0,0-4.4-3.9-9.8-3.9c-4.6,0-7.8,2.3-7.8,5.6c0,3.8,4.4,5.5,9.6,7.5c6.7,2.6,14.2,5.5,14.2,14.2
		C79.5,80.5,74.2,86.3,66.5,87.6z"/>
</g>
</svg>
