<?xml version="1.0" encoding="utf-8"?>
<!-- Generator: Adobe Illustrator 19.2.1, SVG Export Plug-In . SVG Version: 6.00 Build 0)  -->
<svg version="1.1" id="Layer_1" xmlns="http://www.w3.org/2000/svg" xmlns:xlink="http://www.w3.org/1999/xlink" x="0px" y="0px"
	 viewBox="0 0 150 150" style="enable-background:new 0 0 150 150;" xml:space="preserve">
<path d="M65.9,39.7c-18.3,0.5-34.7,16-36.3,34.4c-0.4,2.8-0.4,5.7-0.2,8.4c1.2,5.5,3.7,10.8,7.2,15.2c6.7,8.4,17.1,13.7,27.8,14.4
	c-4.2-0.6-8.3-1.8-12-3.8c-5.4-2.8-10.1-7-13.4-12c-4.6-6.9-6.7-15.3-5.8-23.5c1-8.2,5-16,11.3-21.4c4.9-4.1,11-6.7,17.4-7.3
	c6.4-0.6,12.9,0.8,18.4,3.9c3.7,2.1,7.1,5,9.6,8.6c2.5,3.5,4.2,7.7,4.8,11.9c0.8,6-0.5,12.2-3.5,17.5c-3.3,5.7-8.5,10.1-14.5,12.6
	c5.2-0.1,10.4-1.5,14.9-4.2c3.9-2.4,7.2-5.8,9.5-9.8c0.9-2.5,1.6-5.1,1.9-7.8c2.8-19.3-14.6-36.6-33.3-37.1
	C68.3,39.7,67.1,39.7,65.9,39.7L65.9,39.7z"/>
<path d="M67.9,30.4c-4.5,0.1-9,0.9-13.2,2.5c-20.5,6.4-33.9,27.8-32.9,48.9c0,0,0,0,0,0c1.1,8.5,4.5,16.7,9.9,23.5
	c9.5,12,25.1,19,40.4,18.1c0.1,0,0.1,0,0.2,0c-7.1-0.1-14.2-1.8-20.6-5.1c-6.7-3.5-12.6-8.7-16.8-15c-5.7-8.6-8.4-19.1-7.2-29.3
	c1.2-10.2,6.3-20,14.2-26.7c6.1-5.1,13.8-8.4,21.7-9.1c7.9-0.7,16.1,1,23,4.9c4.7,2.7,8.8,6.3,11.9,10.7c3.1,4.4,5.2,9.5,5.9,14.9
	c1,7.5-0.6,15.3-4.4,21.9c-4.2,7.3-11.1,13-18.9,16c6.9,0.1,13.8-1.6,19.6-5.2c1.8-1.1,3.5-2.4,5.1-3.8c7.6-10.3,10.9-23.7,6.9-36.2
	C107.2,41.9,87.4,29.8,67.9,30.4L67.9,30.4z"/>
<path d="M74.8,14.3c-5.1,0.1-10.1,0.8-15,2.1c-13.1,3.5-25,11.3-33.3,22C18.3,48.8,13.6,62,13.3,75.2c-0.2,13.2,4,26.6,12,37.1
	c11.6,15.3,31.1,24.4,50.3,23.3c3.4-0.2,6.7-0.8,10-1.6c-2.7,0.4-5.4,0.8-8.1,0.8c-9.4,0.2-18.9-2-27.2-6.4
	c-8.4-4.4-15.6-10.9-20.9-18.7C22.3,99.2,19,86,20.5,73.3c1.5-12.7,7.8-24.9,17.6-33.1c7.6-6.4,17.1-10.4,27-11.3
	c9.9-0.9,20,1.2,28.6,6.1c5.8,3.3,10.9,7.8,14.8,13.3c3.9,5.5,6.5,11.8,7.4,18.5c1.3,9.3-0.8,19-5.4,27.1
	c-5.5,9.6-14.6,17-25.1,20.6c10,2.3,20.9,0.8,29.8-4.4c6.2-3.6,11.4-8.9,15.1-15.1c3.7-6.2,5.8-13.3,6.4-20.5
	c0.9-11.9-2.5-24-9.2-33.9c-6.7-9.9-16.6-17.5-27.8-21.9C91.7,15.6,83.2,14.1,74.8,14.3L74.8,14.3z"/>
</svg>
