<?xml version="1.0" encoding="utf-8"?>
<!-- Generator: Adobe Illustrator 19.2.1, SVG Export Plug-In . SVG Version: 6.00 Build 0)  -->
<svg version="1.1" id="Layer_1" xmlns="http://www.w3.org/2000/svg" xmlns:xlink="http://www.w3.org/1999/xlink" x="0px" y="0px"
	 viewBox="0 0 150 150" style="enable-background:new 0 0 150 150;" xml:space="preserve">
<path d="M114.1,145.8h-67c-3.3,0-6-2.7-6-6V10.2c0-3.3,2.7-6,6-6h67c3.3,0,6,2.7,6,6v129.5C120.1,143.1,117.4,145.8,114.1,145.8z
	 M115.3,14.5H45.8V130h69.5V14.5z M99.6,9.5h-38v2h38V9.5z M80.6,132.5c-3.1,0-5.6,2.5-5.6,5.6s2.5,5.6,5.6,5.6s5.6-2.5,5.6-5.6
	S83.7,132.5,80.6,132.5z"/>
<path d="M102.8,72.7c0,0,2.1,2.7,0.9,5.7c0,0-0.8,2.1-2,2.8c0,0,2.1,4.9-2.3,8.1c0,0,0,4.5-3,5.8c0,0-6.3,2.1-15.9,1.7
	c-5-0.2-11.3-1.3-13.7-1.5V65.1c2.7-1,9.4-3.3,12.9-7.1c3.3-3.5,5.2-8.4,5.1-14.6c0,0,0.2-5.1,5-3.4c0.8,0.8,5.9,9.2,0.8,22.6h9
	c0,0,3.3-0.2,4.7,4.1C104.2,66.6,105.6,69.4,102.8,72.7z M54.6,62.7h9.7v36.4h-9.7V62.7z M59.6,97.3c1.4,0,2.6-1.1,2.6-2.6
	c0-1.4-1.1-2.6-2.6-2.6c-1.4,0-2.6,1.1-2.6,2.6C57.1,96.1,58.2,97.3,59.6,97.3z"/>
</svg>
