<?xml version="1.0" encoding="utf-8"?>
<!-- Generator: Adobe Illustrator 19.2.1, SVG Export Plug-In . SVG Version: 6.00 Build 0)  -->
<svg version="1.1" id="Layer_1" xmlns="http://www.w3.org/2000/svg" xmlns:xlink="http://www.w3.org/1999/xlink" x="0px" y="0px"
	 viewBox="0 0 1000 127.5" style="enable-background:new 0 0 1000 127.5;" xml:space="preserve">
<style type="text/css">
	.st0{fill:#FFFFFF;}
	.st1{fill:#2A4A7D;}
	.st2{fill:#1E75BC;fill-opacity:0.7;}
</style>
<g>
	<g>
		<path class="st0" d="M169.6,43.4c4.9,0,8.6,1.1,11.1,3.2c2.5,2.1,3.7,5.2,3.7,9.2c0,1.8-0.3,3.5-1,5.1c-0.7,1.5-1.7,2.9-3,4
			c-1.3,1.1-2.8,2-4.7,2.6s-3.9,0.9-6.2,0.9h-7.8v16.9h-3V43.4H169.6z M169.6,66c1.8,0,3.5-0.3,4.9-0.8c1.5-0.5,2.7-1.2,3.7-2.1
			s1.8-2,2.3-3.2c0.5-1.2,0.8-2.6,0.8-4c0-3.2-1-5.7-3-7.4c-2-1.7-4.9-2.6-8.8-2.6h-7.8V66H169.6z"/>
		<path class="st0" d="M239.5,85.3h-2.6c-0.3,0-0.6-0.1-0.8-0.2c-0.2-0.1-0.4-0.3-0.6-0.6l-13.4-17c-0.2-0.2-0.3-0.4-0.5-0.6
			c-0.2-0.2-0.4-0.3-0.6-0.4s-0.5-0.2-0.7-0.2c-0.3,0-0.6-0.1-1-0.1h-5.5v18.9h-3V43.4h10.7c4.8,0,8.4,0.9,10.8,2.8s3.6,4.6,3.6,8.2
			c0,1.6-0.3,3.1-0.8,4.4c-0.6,1.3-1.3,2.5-2.4,3.5c-1,1-2.3,1.8-3.8,2.4s-3.1,1.1-4.9,1.3c0.5,0.3,0.9,0.7,1.3,1.2L239.5,85.3z
			 M220.9,64.1c1.9,0,3.5-0.2,5-0.7c1.5-0.4,2.7-1.1,3.7-1.9c1-0.8,1.8-1.8,2.3-3c0.5-1.2,0.8-2.5,0.8-3.9c0-3-1-5.2-2.9-6.6
			c-1.9-1.4-4.8-2.2-8.5-2.2h-7.6v18.3H220.9z"/>
		<path class="st0" d="M301.1,64.3c0,3.2-0.5,6.2-1.4,8.8c-1,2.6-2.3,4.9-4.1,6.7c-1.8,1.9-3.9,3.3-6.3,4.3c-2.5,1-5.2,1.5-8.1,1.5
			c-3,0-5.6-0.5-8.1-1.5c-2.4-1-4.5-2.5-6.3-4.3c-1.8-1.9-3.1-4.1-4.1-6.7c-1-2.6-1.4-5.6-1.4-8.8c0-3.2,0.5-6.1,1.4-8.8
			c1-2.6,2.3-4.9,4.1-6.7s3.8-3.3,6.3-4.3c2.4-1,5.1-1.5,8.1-1.5c3,0,5.7,0.5,8.1,1.5c2.5,1,4.6,2.5,6.3,4.3
			c1.8,1.9,3.1,4.1,4.1,6.8C300.6,58.2,301.1,61.1,301.1,64.3z M298,64.3c0-2.9-0.4-5.5-1.2-7.9c-0.8-2.3-1.9-4.3-3.4-5.9
			c-1.5-1.6-3.2-2.9-5.3-3.7s-4.4-1.3-6.8-1.3c-2.5,0-4.8,0.4-6.8,1.3c-2.1,0.9-3.8,2.1-5.3,3.7c-1.5,1.6-2.6,3.6-3.5,5.9
			c-0.8,2.3-1.2,5-1.2,7.9c0,2.9,0.4,5.6,1.2,7.9c0.8,2.3,2,4.3,3.5,5.9c1.5,1.6,3.3,2.9,5.3,3.7c2.1,0.8,4.3,1.3,6.8,1.3
			c2.5,0,4.8-0.4,6.8-1.3s3.8-2.1,5.3-3.7c1.5-1.6,2.6-3.6,3.4-5.9C297.6,69.9,298,67.3,298,64.3z"/>
		<path class="st0" d="M353.2,46h-14.7v39.3h-3V46h-14.8v-2.6h32.5V46z"/>
		<path class="st0" d="M403,82.8l-0.1,2.5h-25V43.4h25v2.5h-22v16.9h18.3v2.5h-18.3v17.5H403z"/>
		<path class="st0" d="M445.2,83.1c2,0,3.8-0.4,5.4-1.1c1.6-0.7,2.9-1.7,4-2.9c1.1-1.2,1.9-2.7,2.5-4.4s0.9-3.5,0.9-5.5V43.4h3v25.9
			c0,2.3-0.4,4.5-1.1,6.5c-0.7,2-1.8,3.7-3.1,5.2s-3,2.7-5,3.5s-4.2,1.3-6.6,1.3c-2.4,0-4.6-0.4-6.6-1.3c-2-0.8-3.6-2-5-3.5
			c-1.4-1.5-2.4-3.2-3.1-5.2c-0.7-2-1.1-4.2-1.1-6.5V43.4h3v25.9c0,2,0.3,3.8,0.9,5.5c0.6,1.7,1.4,3.2,2.5,4.4
			c1.1,1.2,2.4,2.2,4,2.9S443.1,83.1,445.2,83.1z"/>
		<path class="st0" d="M510.8,48.5c-0.2,0.3-0.4,0.5-0.8,0.5c-0.3,0-0.6-0.2-1-0.5c-0.4-0.4-0.9-0.8-1.6-1.2
			c-0.7-0.4-1.5-0.9-2.6-1.2c-1-0.4-2.3-0.6-3.8-0.6s-2.8,0.2-4,0.7c-1.2,0.4-2.1,1-2.9,1.8c-0.8,0.7-1.4,1.6-1.8,2.6
			c-0.4,1-0.6,2-0.6,3.1c0,1.4,0.3,2.6,0.9,3.5c0.6,0.9,1.4,1.7,2.4,2.4c1,0.7,2.1,1.2,3.4,1.6c1.3,0.4,2.5,0.9,3.9,1.3
			c1.3,0.4,2.6,0.9,3.9,1.4c1.2,0.5,2.4,1.2,3.4,2s1.8,1.8,2.4,2.9c0.6,1.2,0.9,2.6,0.9,4.3c0,1.8-0.3,3.4-0.9,5
			c-0.6,1.5-1.5,2.9-2.6,4c-1.1,1.1-2.5,2-4.2,2.7c-1.7,0.7-3.5,1-5.7,1c-2.8,0-5.1-0.5-7.1-1.5c-2-1-3.7-2.3-5.2-4l0.8-1.3
			c0.2-0.3,0.5-0.4,0.8-0.4c0.2,0,0.4,0.1,0.7,0.4c0.3,0.2,0.6,0.5,1,0.9c0.4,0.3,0.9,0.7,1.4,1.1c0.6,0.4,1.2,0.8,1.9,1.1
			c0.7,0.3,1.6,0.6,2.5,0.9c0.9,0.2,2,0.4,3.2,0.4c1.7,0,3.1-0.3,4.4-0.8s2.4-1.2,3.3-2.1c0.9-0.9,1.6-1.9,2.1-3.1
			c0.5-1.2,0.7-2.5,0.7-3.8c0-1.5-0.3-2.7-0.9-3.7c-0.6-1-1.4-1.8-2.4-2.4s-2.1-1.2-3.4-1.6s-2.5-0.9-3.9-1.3s-2.6-0.9-3.9-1.4
			c-1.2-0.5-2.4-1.2-3.4-2c-1-0.8-1.8-1.8-2.4-3c-0.6-1.2-0.9-2.7-0.9-4.5c0-1.4,0.3-2.8,0.8-4.1c0.5-1.3,1.3-2.5,2.3-3.4
			c1-1,2.3-1.8,3.8-2.4c1.5-0.6,3.2-0.9,5.2-0.9c2.2,0,4.1,0.3,5.8,1s3.3,1.7,4.7,3.2L510.8,48.5z"/>
		<path class="st0" d="M552.3,42.5c2.9,0,5.3,0.3,7.4,1c2.1,0.7,3.8,1.6,5.2,2.8c1.4,1.2,2.4,2.6,3,4.3c0.7,1.7,1,3.5,1,5.5
			c0,2.1-0.3,4-1,5.7c-0.7,1.7-1.7,3.2-3.1,4.5c-1.4,1.2-3.1,2.2-5.2,2.9c-2.1,0.7-4.5,1-7.3,1h-5.9v15.1h-7.9V42.5H552.3z
			 M552.3,64c1.5,0,2.7-0.2,3.8-0.5c1.1-0.4,2-0.9,2.7-1.6s1.3-1.5,1.6-2.5c0.4-1,0.5-2.1,0.5-3.3c0-1.1-0.2-2.2-0.5-3.1
			c-0.4-0.9-0.9-1.7-1.6-2.4c-0.7-0.7-1.6-1.1-2.7-1.5c-1.1-0.3-2.4-0.5-3.8-0.5h-5.9V64H552.3z"/>
		<path class="st0" d="M617.7,78.7v6.6h-25V42.5h7.9v36.2H617.7z"/>
		<path class="st0" d="M677.6,85.3h-6.1c-0.7,0-1.2-0.2-1.7-0.5c-0.4-0.3-0.8-0.8-1-1.3l-3.2-8.7H648l-3.2,8.7
			c-0.2,0.5-0.5,0.9-0.9,1.2c-0.5,0.4-1,0.6-1.7,0.6H636l16.8-42.8h8.1L677.6,85.3z M663.6,69.1l-5.2-14.2c-0.3-0.6-0.5-1.4-0.8-2.2
			c-0.3-0.9-0.6-1.8-0.8-2.8c-0.3,1-0.5,1.9-0.8,2.8c-0.3,0.9-0.5,1.6-0.8,2.3L650,69.1H663.6z"/>
		<path class="st0" d="M725.4,49h-12.9v36.2h-7.9V49h-12.9v-6.5h33.7V49z"/>
		<path class="st0" d="M756.7,48.8v12.7h16v6.4h-16v17.4h-8V42.5h26.9v6.3H756.7z"/>
		<path class="st0" d="M840.2,63.9c0,3.1-0.5,6-1.6,8.7c-1,2.7-2.5,5-4.4,6.9c-1.9,2-4.2,3.5-6.8,4.6c-2.7,1.1-5.6,1.6-8.9,1.6
			c-3.2,0-6.2-0.5-8.8-1.6c-2.7-1.1-4.9-2.6-6.8-4.6c-1.9-2-3.4-4.3-4.4-6.9c-1-2.7-1.6-5.6-1.6-8.7c0-3.1,0.5-6,1.6-8.7
			c1-2.7,2.5-5,4.4-6.9c1.9-2,4.2-3.5,6.8-4.6c2.7-1.1,5.6-1.6,8.8-1.6c2.2,0,4.2,0.3,6.1,0.8c1.9,0.5,3.7,1.2,5.3,2.1
			c1.6,0.9,3,2,4.3,3.3c1.3,1.3,2.3,2.8,3.2,4.4c0.9,1.6,1.6,3.4,2,5.3C840,59.8,840.2,61.8,840.2,63.9z M832.1,63.9
			c0-2.3-0.3-4.5-0.9-6.3c-0.6-1.9-1.5-3.4-2.7-4.7c-1.2-1.3-2.6-2.3-4.2-3c-1.7-0.7-3.5-1-5.6-1s-4,0.3-5.6,1
			c-1.7,0.7-3.1,1.7-4.3,3c-1.2,1.3-2.1,2.9-2.7,4.7c-0.6,1.9-0.9,4-0.9,6.3c0,2.3,0.3,4.5,0.9,6.3s1.5,3.4,2.7,4.7
			c1.2,1.3,2.6,2.3,4.3,3c1.7,0.7,3.5,1,5.6,1s4-0.3,5.6-1c1.7-0.7,3.1-1.7,4.2-3c1.2-1.3,2.1-2.9,2.7-4.7
			C831.8,68.3,832.1,66.2,832.1,63.9z"/>
		<path class="st0" d="M898.3,85.3h-7.2c-1.4,0-2.3-0.5-3-1.6l-9-13.7c-0.3-0.5-0.7-0.9-1.1-1.1c-0.4-0.2-1-0.3-1.8-0.3h-3.4v16.7
			h-7.9V42.5h13c2.9,0,5.4,0.3,7.5,0.9c2.1,0.6,3.8,1.4,5.1,2.5c1.3,1.1,2.3,2.4,2.9,3.9s0.9,3.2,0.9,5c0,1.4-0.2,2.8-0.6,4.1
			c-0.4,1.3-1,2.4-1.8,3.5c-0.8,1-1.8,2-3,2.8s-2.5,1.4-4,1.9c0.5,0.3,1,0.6,1.4,1.1c0.4,0.4,0.8,0.9,1.2,1.4L898.3,85.3z
			 M877.8,62.8c1.5,0,2.8-0.2,3.9-0.6c1.1-0.4,2-0.9,2.7-1.6c0.7-0.7,1.3-1.4,1.6-2.4c0.4-0.9,0.5-1.9,0.5-3c0-2.2-0.7-3.8-2.1-5
			c-1.4-1.2-3.6-1.7-6.5-1.7h-5.1v14.2H877.8z"/>
		<path class="st0" d="M966.9,42.5v42.8h-7V57.6c0-1.1,0.1-2.3,0.2-3.6l-12.9,24.3c-0.6,1.2-1.5,1.7-2.8,1.7h-1.1
			c-1.3,0-2.2-0.6-2.8-1.7l-13-24.4c0.1,0.7,0.1,1.3,0.1,1.9c0,0.6,0.1,1.2,0.1,1.7v27.6h-7V42.5h6c0.4,0,0.7,0,0.9,0
			c0.3,0,0.5,0.1,0.7,0.1c0.2,0.1,0.4,0.2,0.6,0.4c0.2,0.2,0.3,0.4,0.5,0.7l12.8,23.8c0.3,0.6,0.6,1.3,0.9,2
			c0.3,0.7,0.6,1.4,0.8,2.1c0.3-0.7,0.6-1.4,0.9-2.1c0.3-0.7,0.6-1.3,0.9-2l12.6-23.7c0.2-0.3,0.3-0.5,0.5-0.7
			c0.2-0.2,0.4-0.3,0.6-0.4c0.2-0.1,0.4-0.1,0.7-0.1c0.3,0,0.6,0,0.9,0H966.9z"/>
	</g>
	<g>
		<path class="st1" d="M65.2,32.6C48.8,33,34,47,32.6,63.5c-0.4,2.5-0.4,5.1-0.2,7.6c1.1,5,3.3,9.7,6.5,13.7
			c6,7.6,15.4,12.3,25,12.9c-3.8-0.5-7.4-1.6-10.8-3.4C48.2,91.8,44,88,41,83.5c-4.1-6.2-6-13.8-5.2-21.1C36.7,55,40.3,48,46,43.2
			c4.4-3.7,9.9-6,15.6-6.5c5.7-0.5,11.6,0.7,16.6,3.5c3.4,1.9,6.3,4.5,8.6,7.7c2.2,3.2,3.8,6.9,4.3,10.7c0.7,5.4-0.5,11-3.2,15.7
			c-2.9,5.1-7.6,9.1-13.1,11.3c4.7,0,9.4-1.3,13.4-3.8c3.5-2.2,6.5-5.2,8.5-8.8c0.8-2.2,1.4-4.6,1.7-7c2.5-17.3-13.1-32.9-29.9-33.4
			C67.4,32.6,66.3,32.5,65.2,32.6L65.2,32.6z"/>
		<path class="st2" d="M67.1,24.2c-4,0.1-8.1,0.8-11.9,2.2c-18.4,5.7-30.4,25-29.5,43.9c0,0,0,0,0,0c1,7.6,4.1,15,8.9,21.1
			c8.5,10.8,22.5,17.1,36.3,16.3c0.1,0,0.1,0,0.2,0c-6.4-0.1-12.8-1.6-18.5-4.6c-6-3.1-11.3-7.8-15.1-13.5
			C32.3,82,29.9,72.5,31,63.3c1.1-9.2,5.6-18,12.7-24c5.5-4.6,12.4-7.5,19.5-8.2c7.1-0.7,14.5,0.9,20.7,4.4
			c4.2,2.4,7.9,5.7,10.7,9.6c2.8,3.9,4.7,8.6,5.3,13.4c0.9,6.8-0.6,13.8-3.9,19.6c-3.8,6.6-10,11.6-17,14.4
			c6.2,0.1,12.4-1.5,17.7-4.7c1.6-1,3.2-2.2,4.6-3.4c6.8-9.2,9.8-21.3,6.2-32.5C102.4,34.5,84.6,23.7,67.1,24.2L67.1,24.2z"/>
		<path class="st1" d="M73.2,9.7c-4.6,0.1-9.1,0.7-13.5,1.9C48,14.8,37.3,21.8,29.8,31.4C22.5,40.8,18.2,52.6,18,64.5
			c-0.2,11.9,3.6,23.9,10.8,33.4c10.4,13.8,27.9,21.9,45.2,20.9c3-0.2,6-0.7,9-1.4c-2.4,0.4-4.8,0.7-7.3,0.7
			c-8.5,0.2-17-1.8-24.5-5.7c-7.5-3.9-14-9.8-18.8-16.8c-6.4-9.6-9.4-21.4-8.1-32.8c1.3-11.4,7-22.3,15.9-29.8
			c6.8-5.7,15.4-9.3,24.2-10.2c8.9-0.8,18,1.1,25.7,5.5c5.2,3,9.8,7,13.3,11.9c3.5,4.9,5.8,10.6,6.6,16.6c1.2,8.4-0.7,17.1-4.9,24.4
			c-5,8.6-13.2,15.3-22.6,18.5c9,2.1,18.8,0.7,26.8-4c5.6-3.3,10.2-8,13.5-13.6c3.3-5.6,5.2-12,5.7-18.4c0.8-10.7-2.3-21.6-8.3-30.5
			c-6-8.9-14.9-15.8-24.9-19.7C88.4,10.9,80.8,9.6,73.2,9.7L73.2,9.7z"/>
	</g>
</g>
</svg>
